<svg xmlns="http://www.w3.org/2000/svg" width="85" height="86.908" viewBox="0 0 85 86.908">
  <g id="documento" transform="translate(0 0)">
    <path id="Trazado_113601" data-name="Trazado 113601" d="M0,53.741A42.5,42.5,0,1,1,71.963,84.369,274.412,274.412,0,0,0,42.5,82.81a275.111,275.111,0,0,0-28.244,1.43,2.577,2.577,0,0,1-2.107-.751A42.36,42.36,0,0,1,0,53.742Zm0,0" transform="translate(0 -9.334)" fill="#e659a9"/>
    <path id="Trazado_113602" data-name="Trazado 113602" d="M132.25,6.939V74.147a42.493,42.493,0,0,1-60.715,0V6.939A6.939,6.939,0,0,1,78.474,0h46.837a6.939,6.939,0,0,1,6.939,6.939Zm0,0" transform="translate(-59.393)" fill="#fdd194"/>
    <path id="Trazado_113603" data-name="Trazado 113603" d="M76.457,78.454a42.816,42.816,0,0,1-4.922-4.3V6.939A6.939,6.939,0,0,1,78.474,0H83.4a6.939,6.939,0,0,0-6.939,6.939Zm0,0" transform="translate(-59.392)" fill="#fdc273"/>
    <path id="Trazado_113604" data-name="Trazado 113604" d="M164.791,133.723v1.735a.868.868,0,0,1-.867.867H132.7a.868.868,0,0,1-.867-.867v-1.735a.867.867,0,0,1,.867-.867h31.225A.867.867,0,0,1,164.791,133.723Zm-11.275,6.072H132.7a.867.867,0,0,0-.867.867V142.4a.868.868,0,0,0,.867.867h20.817a.868.868,0,0,0,.867-.867v-1.735A.867.867,0,0,0,153.516,139.794Zm0,0" transform="translate(-109.454 -110.305)" fill="#fd7d43"/>
    <path id="Trazado_113605" data-name="Trazado 113605" d="M171.73,235.918v1.735a.868.868,0,0,1-.867.867H132.7a.868.868,0,0,1-.867-.867v-1.735a.868.868,0,0,1,.867-.867h38.163A.868.868,0,0,1,171.73,235.918Zm-6.072,6.072H132.7a.867.867,0,0,0-.867.867v1.735a.868.868,0,0,0,.867.867h32.959a.868.868,0,0,0,.867-.867v-1.735A.867.867,0,0,0,165.658,241.989Zm-12.143,6.938H132.7a.868.868,0,0,0-.867.868v1.735a.868.868,0,0,0,.867.867h20.817a.868.868,0,0,0,.867-.867V249.8A.868.868,0,0,0,153.516,248.928Zm-19.949,17.347a1.735,1.735,0,1,0,1.735,1.735A1.734,1.734,0,0,0,133.567,266.275Zm5.2,0a1.735,1.735,0,1,0,1.735,1.735A1.734,1.734,0,0,0,138.771,266.275Zm5.2,0a1.735,1.735,0,1,0,1.735,1.735A1.735,1.735,0,0,0,143.975,266.275Zm0,0" transform="translate(-109.455 -195.153)" fill="#fc9368"/>
    <path id="Trazado_113606" data-name="Trazado 113606" d="M81.678,8v5.878a1.734,1.734,0,0,1-1.735,1.735H31.372a1.734,1.734,0,0,1-1.735-1.735V8a8,8,0,0,1,8-8h52.04a8,8,0,0,0-8,8Zm0,0" transform="translate(-24.607 0)" fill="#fcf498"/>
    <path id="Trazado_113607" data-name="Trazado 113607" d="M115.618,8v5.878a1.734,1.734,0,0,1-1.735,1.735H70.516V8a8,8,0,0,1,8-8h45.1a8,8,0,0,0-8,8Zm0,0" transform="translate(-58.547 0)" fill="#fdf7bd"/>
    <path id="Trazado_113608" data-name="Trazado 113608" d="M318.506,319.966a17.809,17.809,0,1,1-17.809-17.81A17.809,17.809,0,0,1,318.506,319.966Zm0,0" transform="translate(-234.869 -250.868)" fill="#08e092"/>
    <path id="Trazado_113609" data-name="Trazado 113609" d="M315.784,342.744a17.81,17.81,0,1,1-24.552-24.552,17.811,17.811,0,0,0,24.552,24.552Zm0,0" transform="translate(-234.869 -264.181)" fill="#04d481"/>
    <path id="Trazado_113610" data-name="Trazado 113610" d="M343.755,335.688l-18.574,18.574a2.6,2.6,0,0,1-3.68,0l-8.165-8.165a2.6,2.6,0,0,1,0-3.679l1.227-1.227a2.6,2.6,0,0,1,3.68,0l4.486,4.486a.867.867,0,0,0,1.227,0l14.894-14.894a2.6,2.6,0,0,1,3.68,0l1.227,1.227a2.6,2.6,0,0,1,0,3.68Zm0,0" transform="translate(-259.518 -274.002)" fill="#fdf7bd"/>
    <path id="Trazado_113611" data-name="Trazado 113611" d="M354.847,332.008a2.6,2.6,0,0,1,0,3.68l-17.529,17.529a17.845,17.845,0,0,1-11.385-12.265,2.6,2.6,0,0,1,3.4.238l4.486,4.486a.867.867,0,0,0,1.227,0l14.894-14.894a2.6,2.6,0,0,1,3.68,0Zm0,0" transform="translate(-270.609 -274.002)" fill="#fff5f5"/>
  </g>
</svg>
