<svg xmlns="http://www.w3.org/2000/svg" xmlns:xlink="http://www.w3.org/1999/xlink" width="469.701" height="211.215" viewBox="0 0 469.701 211.215">
  <defs>
    <clipPath id="clip-path">
      <path id="Trazado_117601" data-name="Trazado 117601" d="M621.532,13.247c.954-7.93,3.752-15.965,1.82-23.714a24.573,24.573,0,0,0-7.273-11.784,43.262,43.262,0,0,0-11.786-7.515,41.753,41.753,0,0,0-15.173-4.066A23.174,23.174,0,0,0,574.2-29.666c-4.217,3.155-8.552,8.311-8.189,13.567-3.925.068-7.449,2.835-9.294,6.3s-2.246,7.525-2.122,11.449a49.009,49.009,0,0,0,13.034,31.308,10.357,10.357,0,0,0,5.453,3.059h0c-.2.128-.684.576-.878.708L518.8,73.213H622.789V36.351C620.5,29.3,620.647,20.6,621.532,13.247Z" transform="translate(-518.798 33.862)" fill="none"/>
    </clipPath>
    <clipPath id="clip-path-2">
      <rect id="Rectángulo_34468" data-name="Rectángulo 34468" width="48.178" height="48.178" transform="translate(3.135 0) rotate(3.731)" fill="none"/>
    </clipPath>
  </defs>
  <g id="Grupo_84037" data-name="Grupo 84037" transform="translate(-364.177 33.862)">
    <g id="Grupo_84002" data-name="Grupo 84002" transform="translate(370.259 -33.862)">
      <path id="Trazado_117537" data-name="Trazado 117537" d="M827.213,131.708h-454.8a3.514,3.514,0,0,1-3.513-3.513h0a3.513,3.513,0,0,1,3.513-3.512h454.8a3.513,3.513,0,0,1,3.513,3.512h0A3.514,3.514,0,0,1,827.213,131.708Z" transform="translate(-368.899 79.508)" fill="#21255c"/>
      <g id="Grupo_84001" data-name="Grupo 84001" transform="translate(0.92)">
        <g id="Grupo_83972" data-name="Grupo 83972" transform="translate(72.154 97.133)">
          <path id="Rectángulo_34450" data-name="Rectángulo 34450" d="M2.92,0H23.294a2.919,2.919,0,0,1,2.919,2.919V14.527a2.92,2.92,0,0,1-2.92,2.92H2.92A2.92,2.92,0,0,1,0,14.527V2.92A2.92,2.92,0,0,1,2.92,0Z" transform="translate(3.384)" fill="#4883b2"/>
          <rect id="Rectángulo_34451" data-name="Rectángulo 34451" width="26.214" height="17.446" rx="2.919" fill="#70cde2"/>
        </g>
        <path id="Trazado_117538" data-name="Trazado 117538" d="M512.453,73.277H512.2a30.669,30.669,0,0,0-30.669,30.669v11h61.592v-11A30.669,30.669,0,0,0,512.453,73.277Z" transform="translate(-337.391 64.708)" fill="#21255c"/>
        <path id="Trazado_117539" data-name="Trazado 117539" d="M671.165,73.277h-.254a30.67,30.67,0,0,0-30.669,30.669v11h61.592v-11A30.669,30.669,0,0,0,671.165,73.277Z" transform="translate(-291.697 64.708)" fill="#21255c"/>
        <g id="Grupo_83973" data-name="Grupo 83973" transform="translate(134.195 141.878)">
          <path id="Trazado_117540" data-name="Trazado 117540" d="M501.621,76.3h13.906v8.083a33.845,33.845,0,0,1,0,46.264v8.083H501.621c-15.361,0-27.812-13.975-27.812-31.215S486.26,76.3,501.621,76.3Z" transform="translate(-473.809 -76.3)" fill="#21255c"/>
          <ellipse id="Elipse_4818" data-name="Elipse 4818" cx="27.812" cy="31.215" rx="27.812" ry="31.215" transform="translate(13.906 0)" fill="#495375"/>
          <path id="Trazado_117541" data-name="Trazado 117541" d="M520.885,105.272c0-10.979-7.047-20.032-16.036-21.079a15,15,0,0,1,1.741-.1c9.8,0,17.78,9.5,17.78,21.182s-7.976,21.182-17.78,21.182a15.284,15.284,0,0,1-1.741-.1C513.837,125.3,520.885,116.252,520.885,105.272Z" transform="translate(-464.872 -74.057)" fill="#99a3b0"/>
          <ellipse id="Elipse_4819" data-name="Elipse 4819" cx="16.037" cy="21.079" rx="16.037" ry="21.079" transform="translate(23.939 10.136)" fill="#c7d2d7"/>
          <path id="Trazado_117542" data-name="Trazado 117542" d="M507.787,94.354h3.833v1.269a8.5,8.5,0,0,1,0,13.389v1.269h-3.833c-3.918,0-7.1-3.565-7.1-7.963S503.869,94.354,507.787,94.354Z" transform="translate(-466.069 -71.102)" fill="#99a3b0"/>
          <path id="Trazado_117543" data-name="Trazado 117543" d="M503.668,102.317c0,4.4,3.176,7.963,7.1,7.963s7.1-3.565,7.1-7.963-3.177-7.963-7.1-7.963S503.668,97.919,503.668,102.317Z" transform="translate(-465.212 -71.102)" fill="#fff"/>
        </g>
        <g id="Grupo_83974" data-name="Grupo 83974" transform="translate(338.601 141.878)">
          <path id="Trazado_117544" data-name="Trazado 117544" d="M660.333,76.3H674.24v8.083a33.848,33.848,0,0,1,0,46.264v8.083H660.333c-15.36,0-27.812-13.975-27.812-31.215S644.974,76.3,660.333,76.3Z" transform="translate(-632.521 -76.3)" fill="#21255c"/>
          <ellipse id="Elipse_4820" data-name="Elipse 4820" cx="27.812" cy="31.215" rx="27.812" ry="31.215" transform="translate(13.907 0)" fill="#495375"/>
          <path id="Trazado_117545" data-name="Trazado 117545" d="M679.6,105.272c0-10.979-7.049-20.032-16.037-21.079a15,15,0,0,1,1.741-.1c9.8,0,17.78,9.5,17.78,21.182s-7.976,21.182-17.78,21.182a15.283,15.283,0,0,1-1.741-.1C672.549,125.3,679.6,116.252,679.6,105.272Z" transform="translate(-623.584 -74.057)" fill="#99a3b0"/>
          <path id="Trazado_117546" data-name="Trazado 117546" d="M651.109,105.249c0-10.979,7.049-20.032,16.037-21.079,8.988,1.047,16.037,10.1,16.037,21.079s-7.049,20.032-16.037,21.079C658.158,125.281,651.109,116.229,651.109,105.249Z" transform="translate(-627.169 -74.034)" fill="#c7d2d7"/>
          <path id="Trazado_117547" data-name="Trazado 117547" d="M666.5,94.354h3.831v1.269a8.5,8.5,0,0,1,0,13.389v1.269H666.5c-3.919,0-7.1-3.565-7.1-7.963S662.581,94.354,666.5,94.354Z" transform="translate(-624.781 -71.102)" fill="#99a3b0"/>
          <path id="Trazado_117548" data-name="Trazado 117548" d="M662.38,102.317c0,4.4,3.177,7.963,7.1,7.963s7.1-3.565,7.1-7.963-3.176-7.963-7.1-7.963S662.38,97.919,662.38,102.317Z" transform="translate(-623.924 -71.102)" fill="#fff"/>
        </g>
        <g id="Grupo_83975" data-name="Grupo 83975" transform="translate(39.182 141.878)">
          <path id="Trazado_117549" data-name="Trazado 117549" d="M427.848,76.3h13.906v8.083a33.845,33.845,0,0,1,0,46.264v8.083H427.848c-15.36,0-27.812-13.975-27.812-31.215S412.489,76.3,427.848,76.3Z" transform="translate(-400.036 -76.3)" fill="#495375"/>
          <ellipse id="Elipse_4821" data-name="Elipse 4821" cx="27.812" cy="31.215" rx="27.812" ry="31.215" transform="translate(13.906 0)" fill="#21255c"/>
          <path id="Trazado_117550" data-name="Trazado 117550" d="M447.113,105.272c0-10.979-7.049-20.032-16.037-21.079a15,15,0,0,1,1.741-.1c9.8,0,17.78,9.5,17.78,21.182s-7.976,21.182-17.78,21.182a15.284,15.284,0,0,1-1.741-.1C440.064,125.3,447.113,116.252,447.113,105.272Z" transform="translate(-391.099 -74.057)" fill="#21255c"/>
          <path id="Trazado_117551" data-name="Trazado 117551" d="M418.624,105.249c0-10.979,7.049-20.032,16.037-21.079,8.988,1.047,16.037,10.1,16.037,21.079s-7.049,20.032-16.037,21.079C425.673,125.281,418.624,116.229,418.624,105.249Z" transform="translate(-394.684 -74.034)" fill="#21255c"/>
        </g>
        <g id="Grupo_83976" data-name="Grupo 83976" transform="translate(243.59 141.878)">
          <path id="Trazado_117552" data-name="Trazado 117552" d="M586.56,76.3h13.907v8.083a33.845,33.845,0,0,1,0,46.264v8.083H586.56c-15.36,0-27.811-13.975-27.811-31.215S571.2,76.3,586.56,76.3Z" transform="translate(-558.749 -76.3)" fill="#495375"/>
          <ellipse id="Elipse_4822" data-name="Elipse 4822" cx="27.812" cy="31.215" rx="27.812" ry="31.215" transform="translate(13.906 0)" fill="#21255c"/>
          <path id="Trazado_117553" data-name="Trazado 117553" d="M605.825,105.272c0-10.979-7.049-20.032-16.037-21.079a15,15,0,0,1,1.742-.1c9.8,0,17.778,9.5,17.778,21.182s-7.976,21.182-17.778,21.182a15.286,15.286,0,0,1-1.742-.1C598.776,125.3,605.825,116.252,605.825,105.272Z" transform="translate(-549.813 -74.057)" fill="#21255c"/>
          <path id="Trazado_117554" data-name="Trazado 117554" d="M577.336,105.249c0-10.979,7.049-20.032,16.037-21.079,8.988,1.047,16.037,10.1,16.037,21.079s-7.049,20.032-16.037,21.079C584.385,125.281,577.336,116.229,577.336,105.249Z" transform="translate(-553.398 -74.034)" fill="#21255c"/>
        </g>
        <path id="Trazado_117555" data-name="Trazado 117555" d="M792.6,58.83,749.453,23.757a48.766,48.766,0,0,0-30.76-10.925H607.2a30.667,30.667,0,0,0-17.3,5.346L523.993,63.2l-14.315,2.742A184.169,184.169,0,0,0,445.23,91.6l5.881,29.08a14.565,14.565,0,0,0,14.275,11.676h26.6v-11A30.669,30.669,0,0,1,522.65,90.68h.254a30.669,30.669,0,0,1,30.669,30.669v11H696.387v-11A30.67,30.67,0,0,1,727.056,90.68h.254a30.669,30.669,0,0,1,30.669,30.669v11h25.613a18.529,18.529,0,0,0,13.289-5.617l4.875-5.019a18.524,18.524,0,0,0,5.238-12.909V89.083A38.99,38.99,0,0,0,792.6,58.83Z" transform="translate(-347.842 47.305)" fill="#57a0cf"/>
        <g id="Grupo_83978" data-name="Grupo 83978" transform="translate(0 60.137)">
          <path id="Trazado_117556" data-name="Trazado 117556" d="M434.062,54.686a184.185,184.185,0,0,0-64.449,25.649H467a184.169,184.169,0,0,1,64.448-25.649l14.315-2.742H448.378Z" transform="translate(-369.613 -1.571)" fill="#70cde2"/>
          <path id="Trazado_117557" data-name="Trazado 117557" d="M375.495,103.068a14.563,14.563,0,0,0,14.275,11.676h97.386a14.565,14.565,0,0,1-14.275-11.676L467,73.988H369.613Z" transform="translate(-369.613 4.775)" fill="#4883b2"/>
          <path id="Trazado_117558" data-name="Trazado 117558" d="M611.359,12.832H513.971a30.663,30.663,0,0,0-17.3,5.346L430.77,63.2h97.386l65.9-45.027A30.667,30.667,0,0,1,611.359,12.832Z" transform="translate(-352.005 -12.832)" fill="#4883b2"/>
          <path id="Trazado_117559" data-name="Trazado 117559" d="M493.354,20.655,439.4,57.518h85.211l53.954-36.863Z" transform="translate(-349.521 -10.58)" fill="#21255c"/>
          <g id="Grupo_83977" data-name="Grupo 83977" transform="translate(4.199 82.198)">
            <path id="Trazado_117560" data-name="Trazado 117560" d="M449.815,90.221l-2.744-13.566H429.076l2.744,13.566Z" transform="translate(-356.692 -76.655)" fill="#fff"/>
            <path id="Trazado_117561" data-name="Trazado 117561" d="M390.835,76.655H372.873l2.744,13.566h17.962Z" transform="translate(-372.873 -76.655)" fill="#fff"/>
            <path id="Trazado_117562" data-name="Trazado 117562" d="M437.175,84.46l-1.579-7.8H390.429l1.406,6.957a8.245,8.245,0,0,0,8.08,6.61h32.545A4.809,4.809,0,0,0,437.175,84.46Z" transform="translate(-367.819 -76.655)" fill="#57a0cf"/>
          </g>
        </g>
        <path id="Trazado_117563" data-name="Trazado 117563" d="M572.8,20.655c-.2.126-.4.242-.6.375L518.8,57.517H622.789V20.655Z" transform="translate(-326.662 49.557)" fill="#495375"/>
        <rect id="Rectángulo_34452" data-name="Rectángulo 34452" width="64.848" height="36.863" transform="translate(303.086 70.212)" fill="#495375"/>
        <path id="Trazado_117564" data-name="Trazado 117564" d="M683.52,26.3a42.486,42.486,0,0,0-9.1-5.647H660.7V57.517h61.219Z" transform="translate(-285.807 49.557)" fill="#495375"/>
        <g id="Grupo_83979" data-name="Grupo 83979" transform="translate(231.845 70.212)">
          <path id="Trazado_117565" data-name="Trazado 117565" d="M586.833,20.655l-37.2,36.863h15.351l37.2-36.863Z" transform="translate(-549.63 -20.655)" fill="#5a5a68"/>
          <path id="Trazado_117566" data-name="Trazado 117566" d="M608.479,24.478V20.655h-2.771L568.5,57.518h6.63Z" transform="translate(-544.196 -20.655)" fill="#5a5a68"/>
          <path id="Trazado_117567" data-name="Trazado 117567" d="M641.335,20.655l-36.39,36.057v.806h14.538l37.2-36.863Z" transform="translate(-533.705 -20.655)" fill="#5a5a68"/>
          <path id="Trazado_117568" data-name="Trazado 117568" d="M664.541,23.112V20.655h-4.15l-37.2,36.863h6.63Z" transform="translate(-528.452 -20.655)" fill="#5a5a68"/>
          <path id="Trazado_117569" data-name="Trazado 117569" d="M696.5,36.786,680.261,52.874h6.63l13.248-13.127Z" transform="translate(-512.021 -16.01)" fill="#5a5a68"/>
          <path id="Trazado_117570" data-name="Trazado 117570" d="M688.578,28.358,661.387,55.3h15.351l20.272-20.087Z" transform="translate(-517.454 -18.437)" fill="#5a5a68"/>
        </g>
        <g id="Grupo_83980" data-name="Grupo 83980" transform="translate(267.529 118.633)">
          <path id="Rectángulo_34453" data-name="Rectángulo 34453" d="M1.721,0H21.74a1.721,1.721,0,0,1,1.721,1.721v6.3a0,0,0,0,1,0,0H0a0,0,0,0,1,0,0v-6.3A1.721,1.721,0,0,1,1.721,0Z" transform="translate(0 0)" fill="#4883b2"/>
          <path id="Rectángulo_34454" data-name="Rectángulo 34454" d="M1.721,0H21.74a1.721,1.721,0,0,1,1.721,1.721v2.29a0,0,0,0,1,0,0H0a0,0,0,0,1,0,0V1.721A1.721,1.721,0,0,1,1.721,0Z" transform="translate(0 0)" fill="#70cde2"/>
        </g>
        <rect id="Rectángulo_34455" data-name="Rectángulo 34455" width="2.514" height="99.599" transform="translate(298.35 70.212)" fill="#70cde2"/>
        <path id="Trazado_117571" data-name="Trazado 117571" d="M372.837,103.956l-2.443-12.078h100.87l2.443,12.078Z" transform="translate(-369.388 70.063)" fill="#fff"/>
        <path id="Trazado_117572" data-name="Trazado 117572" d="M448.715,91.878h18.14l2.443,12.078h-18.14Z" transform="translate(-346.839 70.063)" fill="#c7d2d7"/>
        <path id="Trazado_117573" data-name="Trazado 117573" d="M733.479,91.878h-18.14L712.9,103.956h18.14Z" transform="translate(-270.779 70.063)" fill="#c7d2d7"/>
        <g id="Grupo_83999" data-name="Grupo 83999" transform="translate(192.136)">
          <g id="Grupo_83998" data-name="Grupo 83998" clip-path="url(#clip-path)">
            <g id="Grupo_83997" data-name="Grupo 83997" transform="translate(-3.22 3.173)">
              <path id="Trazado_117574" data-name="Trazado 117574" d="M563.765-13.852c-5.386.473-9.684,5.144-11.3,10.3s-1.066,10.73-.252,16.076,6.53,17.674,11.117,24.058c-.985,8.2-15.754,7.64-16.506,15.864-.9,9.852,4.505,19.583,12.33,25.636s17.753,8.835,27.6,9.823c11.246,1.128,24.148-.686,30.871-9.773,4.725-6.388,5.262-15.072,3.6-22.841s-5.279-14.955-8.285-22.31-5.458-15.232-4.612-23.132c.612-5.711,2.931-11.214,2.848-16.955s-3.9-12.187-9.643-12.141a31.206,31.206,0,0,0-13.608-10.687c-5.441-2.1-11.847-2.061-16.9.853A15.5,15.5,0,0,0,563.765-13.852Z" transform="translate(-507.538 31.398)" fill="#6a3649"/>
              <g id="Grupo_83983" data-name="Grupo 83983" transform="translate(0 65.268)">
                <g id="Grupo_83981" data-name="Grupo 83981" transform="translate(2.891 69.042)">
                  <path id="Trazado_117575" data-name="Trazado 117575" d="M535.287,72.888l-1.951,29.363,5.28,5.66-8.611,21.46-5.05-15.693a101.833,101.833,0,0,1-4.281-20.015l-2.131-19.3Z" transform="translate(-518.543 -72.888)" fill="#f2c9ad"/>
                  <path id="Trazado_117576" data-name="Trazado 117576" d="M535.287,72.888,534.9,78.77c-6.961,5.5-15.708,1.433-15.708,1.433l-.644-5.836Z" transform="translate(-518.543 -72.888)" fill="#eba58e"/>
                </g>
                <g id="Grupo_83982" data-name="Grupo 83982" transform="translate(0 0)">
                  <path id="Trazado_117577" data-name="Trazado 117577" d="M567.025,19.5h0a14.03,14.03,0,0,0-14.154,6.026L522.323,71.349a19.048,19.048,0,0,0-2.626,5.922l-3.4,13.505c7.744,3.965,20.837,1.23,20.837,1.23l1.4-11.366,11.1-15.385Z" transform="translate(-516.298 -19.28)" fill="#7dd3e9"/>
                  <path id="Trazado_117578" data-name="Trazado 117578" d="M541.051,48.9l13.586-20.735,1.745.214L543.339,62.7l-3.289,4.557-1.066-3.381A17.635,17.635,0,0,1,541.051,48.9Z" transform="translate(-510.002 -16.721)" fill="#5fa5cc"/>
                </g>
              </g>
              <path id="Trazado_117579" data-name="Trazado 117579" d="M627.716,28.983c-9.152-5.032-24.493,1.092-24.493,1.092C611.078,37.175,625.376,32.882,627.716,28.983Z" transform="translate(-491.272 48.21)" fill="#5fa5cc"/>
              <g id="Grupo_83984" data-name="Grupo 83984" transform="translate(57.483 54.862)">
                <path id="Trazado_117580" data-name="Trazado 117580" d="M564.8,32.769a8.228,8.228,0,0,1-3.579-5.55,17.623,17.623,0,0,1-.267-4.175l4.15.746L566.646,11.2l13.2,1.621L579.5,23.7c-1.583,2.814-3.121,5.89-5.669,7.87S567.578,34.407,564.8,32.769Z" transform="translate(-560.931 -11.2)" fill="#f2c9ad"/>
                <path id="Trazado_117581" data-name="Trazado 117581" d="M578.716,12.821l-.071,2.231c-5.7,5.884-13.791,1.542-13.791,1.542l.662-5.394Z" transform="translate(-559.801 -11.2)" fill="#de7274"/>
              </g>
              <g id="Grupo_83988" data-name="Grupo 83988" transform="translate(54.495 21.463)">
                <g id="Grupo_83986" data-name="Grupo 83986">
                  <path id="Trazado_117582" data-name="Trazado 117582" d="M583.573-14.733a34.584,34.584,0,0,0,8.781,16.671A19.9,19.9,0,0,0,591,11.457c-5.519,12.812-17.828,14.44-23.422,12.108s-9.3-10.01-8.941-17.751,4.551-18.291,4.551-18.291A40.362,40.362,0,0,0,583.573-14.733Z" transform="translate(-558.611 14.733)" fill="#f2c9ad"/>
                  <g id="Grupo_83985" data-name="Grupo 83985" transform="translate(4.912 5.403)">
                    <path id="Trazado_117583" data-name="Trazado 117583" d="M582.672-2.815,573.627-7.55a3.831,3.831,0,0,1,3.441-1.057,6.023,6.023,0,0,1,3.14,1.714A10.623,10.623,0,0,1,582.672-2.815Z" transform="translate(-559.2 11.078)" fill="#6a3649"/>
                    <path id="Trazado_117584" data-name="Trazado 117584" d="M575.977-.214h0a1.177,1.177,0,0,1-.885-1.41l.288-1.26a1.179,1.179,0,0,1,1.412-.885h0a1.178,1.178,0,0,1,.885,1.412L577.388-1.1A1.179,1.179,0,0,1,575.977-.214Z" transform="translate(-558.787 12.478)" fill="#422c4f"/>
                    <path id="Trazado_117585" data-name="Trazado 117585" d="M562.425-7.36l6.273-.68a3.471,3.471,0,0,0-1.844-2.348,2.389,2.389,0,0,0-2.192.3A6.977,6.977,0,0,0,562.425-7.36Z" transform="translate(-562.425 10.538)" fill="#6a3649"/>
                    <path id="Trazado_117586" data-name="Trazado 117586" d="M565.3-2.39h0A.814.814,0,0,0,566.273-3l.451-1.968a.814.814,0,0,0-.612-.975h0a.814.814,0,0,0-.975.612l-.451,1.968A.813.813,0,0,0,565.3-2.39Z" transform="translate(-561.78 11.854)" fill="#422c4f"/>
                    <path id="Trazado_117587" data-name="Trazado 117587" d="M564.841,6.422l10.609.148A6.981,6.981,0,0,1,570.074,9.3,6.859,6.859,0,0,1,564.841,6.422Z" transform="translate(-561.729 15.421)" fill="#fff"/>
                    <path id="Trazado_117588" data-name="Trazado 117588" d="M566.563,1.119a36.627,36.627,0,0,1,4.848,1.044,3.126,3.126,0,0,1-2.772,1.388C567.544,3.4,566.983,2.14,566.563,1.119Z" transform="translate(-561.234 13.894)" fill="#eba58e"/>
                  </g>
                </g>
                <g id="Grupo_83987" data-name="Grupo 83987" transform="translate(29.458 21.043)">
                  <path id="Trazado_117589" data-name="Trazado 117589" d="M587.361,1.721a4.193,4.193,0,0,1,4.758,2.043,4.526,4.526,0,0,1-.048,3.311,7.442,7.442,0,0,1-7.05,4.79,3.853,3.853,0,0,1-2.815-1.114,3.47,3.47,0,0,1-.662-2.85A8.247,8.247,0,0,1,587.361,1.721Z" transform="translate(-581.483 -1.606)" fill="#f2c9ad"/>
                  <path id="Trazado_117590" data-name="Trazado 117590" d="M590.05,4.448a2.148,2.148,0,0,0-1.386-.95,3.577,3.577,0,0,0-1.709.085,5.481,5.481,0,0,0-3.747,3.654,2.035,2.035,0,0,0,.31,2.074,1.529,1.529,0,0,0,1.405.294,2.825,2.825,0,0,0,1.256-.783,2.721,2.721,0,0,0,.918-1.949,1.437,1.437,0,0,0-1.388-1.419,3.667,3.667,0,0,1,1.831-1.271A4.7,4.7,0,0,1,590.05,4.448Z" transform="translate(-581.026 -1.081)" fill="#eba58e"/>
                </g>
              </g>
              <g id="Grupo_83996" data-name="Grupo 83996" transform="translate(21.433 63.926)">
                <path id="Trazado_117591" data-name="Trazado 117591" d="M547.661,81.9c.945-7.7-6.172-14.405-5.181-22.471s6.778-15.792,10.779-23.117S562.233,19.8,562.233,19.8l6.776,1.216a17.623,17.623,0,0,0,.267,4.175,8.228,8.228,0,0,0,3.579,5.55c2.782,1.638,6.488.779,9.037-1.2s4.087-5.056,5.669-7.87c6.615-6.383,14.825-2.522,19.75.813S623.458,32.6,623.458,32.6c9.393,2.916,21.176.92,24.493-1.092L649.5,45.736a14.118,14.118,0,0,1-3.489,10.918h0a14.117,14.117,0,0,1-17.693,2.787l-16.654-9.78c-1.419,9.533-12.963,28.276-13.626,39.733s9.3,28.868,9.753,38.788c-35.348,1.43-65.494-7.669-74.854-13.285C544.312,94.024,546.715,89.6,547.661,81.9Z" transform="translate(-532.94 -18.238)" fill="#7dd3e9"/>
                <path id="Trazado_117592" data-name="Trazado 117592" d="M574.1,70.6c-5.14-.229-9.941-2.556-15-3.52a28.809,28.809,0,0,0-13.976.851c-.309-3.445-1.925-6.738-3.3-10.1l47.66,5.852A19.377,19.377,0,0,1,574.1,70.6Z" transform="translate(-530.379 -6.841)" fill="#5fa5cc"/>
                <path id="Trazado_117593" data-name="Trazado 117593" d="M587.913,44.564a11.412,11.412,0,0,1-4.745-8.329l14.038,8.244c-.076.51-.187,1.052-.318,1.612A10.923,10.923,0,0,1,587.913,44.564Z" transform="translate(-518.479 -13.056)" fill="#5fa5cc"/>
                <path id="Trazado_117594" data-name="Trazado 117594" d="M603.356,29.387,608.995,48.9C600.054,41.724,603.356,29.387,603.356,29.387Z" transform="translate(-512.838 -15.028)" fill="#5fa5cc"/>
                <g id="Grupo_83995" data-name="Grupo 83995" transform="translate(5.076 7.41)">
                  <g id="Grupo_83989" data-name="Grupo 83989" transform="translate(29.283)">
                    <path id="Trazado_117595" data-name="Trazado 117595" d="M559.905,24.139a8.937,8.937,0,0,0,2.429,5.891,7.971,7.971,0,0,0,6.273,2.352,10.358,10.358,0,0,0,6.177-3.155A40.36,40.36,0,0,0,579,23.991a19.831,19.831,0,0,1-3.131,6.208,11.955,11.955,0,0,1-3.014,2.724,9.088,9.088,0,0,1-4.092,1.391,8.631,8.631,0,0,1-7.539-3.349A7.9,7.9,0,0,1,559.905,24.139Z" transform="translate(-559.618 -23.991)" fill="#5fa5cc"/>
                  </g>
                  <g id="Grupo_83990" data-name="Grupo 83990" transform="translate(21.293 13.953)">
                    <path id="Trazado_117596" data-name="Trazado 117596" d="M553.414,37.078a35.229,35.229,0,0,0,6.81,2.08A28.667,28.667,0,0,0,575.78,37.94a35.373,35.373,0,0,0,6.4-3.115,19.149,19.149,0,0,1-5.785,4.524,21.387,21.387,0,0,1-16.568,1.3A19.121,19.121,0,0,1,553.414,37.078Z" transform="translate(-553.414 -34.825)" fill="#5fa5cc"/>
                  </g>
                  <g id="Grupo_83991" data-name="Grupo 83991" transform="translate(21.983 11.684)">
                    <path id="Trazado_117597" data-name="Trazado 117597" d="M553.95,33.063c1.686.823,3.582,1.889,5.543,2.833s3.968,1.784,5.659,2.6a10.27,10.27,0,0,1-11.2-5.43Z" transform="translate(-553.95 -33.063)" fill="#5fa5cc"/>
                  </g>
                  <g id="Grupo_83992" data-name="Grupo 83992" transform="translate(0 86.703)">
                    <path id="Trazado_117598" data-name="Trazado 117598" d="M536.881,91.312c4.3,1.555,9.287,3.231,14.681,4.706a158.5,158.5,0,0,0,17.04,3.687,158.223,158.223,0,0,0,17.349,1.727c5.586.254,10.843.189,15.418.032a90.938,90.938,0,0,1-15.438,1.58,102.3,102.3,0,0,1-17.662-1.217,102.369,102.369,0,0,1-17.183-4.269A91.085,91.085,0,0,1,536.881,91.312Z" transform="translate(-536.881 -91.312)" fill="#5fa5cc"/>
                  </g>
                  <g id="Grupo_83993" data-name="Grupo 83993" transform="translate(13.519 88.367)">
                    <path id="Trazado_117599" data-name="Trazado 117599" d="M547.378,92.6c2.685.433,5.731.907,8.978,1.242a99.469,99.469,0,0,0,10.131.545,99.139,99.139,0,0,0,10.131-.54c3.247-.332,6.294-.8,8.979-1.235a38.2,38.2,0,0,1-8.653,3.146,45.58,45.58,0,0,1-20.914-.005A38.215,38.215,0,0,1,547.378,92.6Z" transform="translate(-547.378 -92.604)" fill="#5fa5cc"/>
                  </g>
                  <g id="Grupo_83994" data-name="Grupo 83994" transform="translate(7.48 79.527)">
                    <path id="Trazado_117600" data-name="Trazado 117600" d="M542.689,85.74a82.3,82.3,0,0,0,9.266,4.5,82.29,82.29,0,0,0,9.823,3.109,25.8,25.8,0,0,1-19.089-7.613Z" transform="translate(-542.689 -85.74)" fill="#5fa5cc"/>
                  </g>
                </g>
              </g>
            </g>
          </g>
        </g>
        <g id="Grupo_84000" data-name="Grupo 84000" transform="translate(192.23 97.133)">
          <path id="Rectángulo_34456" data-name="Rectángulo 34456" d="M2.92,0H23.294a2.919,2.919,0,0,1,2.919,2.919V14.527a2.92,2.92,0,0,1-2.92,2.92H2.92A2.92,2.92,0,0,1,0,14.527V2.92A2.92,2.92,0,0,1,2.92,0Z" transform="translate(3.384)" fill="#4883b2"/>
          <path id="Rectángulo_34457" data-name="Rectángulo 34457" d="M2.92,0H23.294a2.919,2.919,0,0,1,2.919,2.919V14.527a2.92,2.92,0,0,1-2.92,2.92H2.919A2.919,2.919,0,0,1,0,14.527V2.92A2.92,2.92,0,0,1,2.92,0Z" fill="#70cde2"/>
        </g>
      </g>
    </g>
    <g id="Grupo_84029" data-name="Grupo 84029" transform="translate(613.315 11.107)">
      <rect id="Rectángulo_34458" data-name="Rectángulo 34458" width="163.07" height="94.724" rx="5.184" transform="translate(6.164 29.361) rotate(3.731)" fill="#fff"/>
      <rect id="Rectángulo_34459" data-name="Rectángulo 34459" width="125.232" height="5.569" transform="translate(24.491 39.053) rotate(3.731)" fill="#c7d2d7"/>
      <g id="Grupo_84007" data-name="Grupo 84007" transform="translate(41.412 0)">
        <g id="Grupo_84003" data-name="Grupo 84003" transform="translate(0 3.31)">
          <path id="Trazado_117602" data-name="Trazado 117602" d="M601.26,46.8h0A12.283,12.283,0,0,1,589.8,33.744l1.214-18.635A12.285,12.285,0,0,1,604.075,3.651h0a12.285,12.285,0,0,1,11.459,13.058l-1.216,18.633A12.283,12.283,0,0,1,601.26,46.8Z" transform="translate(-589.775 -3.625)" fill="#f0bf9c"/>
          <path id="Trazado_117603" data-name="Trazado 117603" d="M592.282,27.567A9.08,9.08,0,1,0,610.4,28.748l.116-1.759L592.4,25.806Z" transform="translate(-589.059 2.762)" fill="#fcd6be"/>
        </g>
        <g id="Grupo_84004" data-name="Grupo 84004" transform="translate(81.734 17.594)">
          <path id="Trazado_117604" data-name="Trazado 117604" d="M662.3,48.78h0a9.69,9.69,0,0,1-9.04-10.3l.958-14.7a9.691,9.691,0,0,1,10.3-9.04h0a9.69,9.69,0,0,1,9.04,10.3l-.958,14.7A9.692,9.692,0,0,1,662.3,48.78Z" transform="translate(-653.238 -14.716)" fill="#f0bf9c"/>
          <path id="Trazado_117605" data-name="Trazado 117605" d="M655.859,31.9l-.12,1.837a6.487,6.487,0,1,0,12.947.845l.12-1.838Z" transform="translate(-652.522 -9.768)" fill="#fcd6be"/>
        </g>
        <g id="Grupo_84005" data-name="Grupo 84005" transform="translate(54.466 6.862)">
          <path id="Trazado_117606" data-name="Trazado 117606" d="M643.55,49.559h0A12.283,12.283,0,0,1,632.092,36.5l1.214-18.635A12.285,12.285,0,0,1,646.365,6.409h0a12.285,12.285,0,0,1,11.458,13.058L656.607,38.1A12.282,12.282,0,0,1,643.55,49.559Z" transform="translate(-632.065 -6.382)" fill="#f0bf9c"/>
          <path id="Trazado_117607" data-name="Trazado 117607" d="M634.573,30.325a9.08,9.08,0,1,0,18.121,1.181l.115-1.759-18.121-1.182Z" transform="translate(-631.349 0.004)" fill="#fcd6be"/>
        </g>
        <g id="Grupo_84006" data-name="Grupo 84006" transform="translate(27.114)">
          <path id="Trazado_117608" data-name="Trazado 117608" d="M622.313,49.309h0a12.284,12.284,0,0,1-11.458-13.057L612.4,12.539A12.285,12.285,0,0,1,625.458,1.081h0a12.284,12.284,0,0,1,11.459,13.058l-1.545,23.712A12.284,12.284,0,0,1,622.313,49.309Z" transform="translate(-610.828 -1.055)" fill="#f0bf9c"/>
          <path id="Trazado_117609" data-name="Trazado 117609" d="M613.336,28.94a9.08,9.08,0,1,0,18.121,1.181l.115-1.759-18.121-1.182Z" transform="translate(-610.112 6.467)" fill="#fcd6be"/>
        </g>
      </g>
      <rect id="Rectángulo_34460" data-name="Rectángulo 34460" width="80.837" height="5.569" transform="matrix(0.998, 0.065, -0.065, 0.998, 46.121, 48.492)" fill="#c7d2d7"/>
      <rect id="Rectángulo_34461" data-name="Rectángulo 34461" width="48.178" height="48.178" transform="translate(20.294 60.187) rotate(3.731)" fill="#7dd3e9"/>
      <rect id="Rectángulo_34462" data-name="Rectángulo 34462" width="62.792" height="4.717" transform="translate(88.045 64.605) rotate(3.731)" fill="#c7d2d7"/>
      <rect id="Rectángulo_34463" data-name="Rectángulo 34463" width="53.179" height="4.717" transform="translate(87.532 72.465) rotate(3.731)" fill="#c7d2d7"/>
      <rect id="Rectángulo_34464" data-name="Rectángulo 34464" width="29.536" height="4.717" transform="translate(87.02 80.326) rotate(3.731)" fill="#c7d2d7"/>
      <rect id="Rectángulo_34465" data-name="Rectángulo 34465" width="59.073" height="4.717" transform="translate(86.507 88.186) rotate(3.731)" fill="#c7d2d7"/>
      <rect id="Rectángulo_34466" data-name="Rectángulo 34466" width="45.588" height="4.717" transform="translate(85.994 96.046) rotate(3.731)" fill="#c7d2d7"/>
      <rect id="Rectángulo_34467" data-name="Rectángulo 34467" width="23.269" height="4.717" transform="translate(126.213 117.738) rotate(3.731)" fill="#c7d2d7"/>
      <g id="Grupo_84008" data-name="Grupo 84008" transform="translate(25.456 108.587)">
        <path id="Trazado_117610" data-name="Trazado 117610" d="M628.124,95.544h0a14.98,14.98,0,0,1-9.38,19l-21.567,7.308a14.98,14.98,0,0,1-18.994-9.381h0a14.978,14.978,0,0,1,9.38-18.994l21.567-7.308A14.978,14.978,0,0,1,628.124,95.544Z" transform="translate(-577.386 -85.367)" fill="#f0bf9c"/>
        <path id="Trazado_117611" data-name="Trazado 117611" d="M610.569,109.964a11.072,11.072,0,1,0-7.107-20.974l-2.036.69,7.107,20.974Z" transform="translate(-570.465 -84.493)" fill="#fcd6be"/>
      </g>
      <g id="Grupo_84027" data-name="Grupo 84027" transform="translate(17.159 60.187)">
        <g id="Grupo_84026" data-name="Grupo 84026" clip-path="url(#clip-path-2)">
          <g id="Grupo_84025" data-name="Grupo 84025" transform="translate(-18.482 1.589)">
            <path id="Trazado_117612" data-name="Trazado 117612" d="M585.987,59.886c-3.336.292-6,3.185-7,6.38s-.659,6.644-.156,9.954,4.044,10.945,6.884,14.9c-.609,5.077-9.755,4.732-10.221,9.824-.558,6.1,2.79,12.127,7.636,15.875s10.992,5.471,17.089,6.083c6.964.7,14.954-.425,19.116-6.052,2.926-3.955,3.258-9.332,2.227-14.144s-3.27-9.26-5.131-13.815-3.379-9.431-2.855-14.324c.379-3.535,1.815-6.943,1.763-10.5s-2.415-7.547-5.971-7.519a19.324,19.324,0,0,0-8.427-6.617,12.349,12.349,0,0,0-10.466.528A9.6,9.6,0,0,0,585.987,59.886Z" transform="translate(-551.168 -49.021)" fill="#6a3649"/>
            <g id="Grupo_84011" data-name="Grupo 84011" transform="translate(0 40.416)">
              <g id="Grupo_84009" data-name="Grupo 84009" transform="translate(1.79 42.754)">
                <path id="Trazado_117613" data-name="Trazado 117613" d="M568.352,113.6l-1.209,18.183,3.271,3.5-5.333,13.29-3.127-9.719a63.079,63.079,0,0,1-2.651-12.394l-1.32-11.948Z" transform="translate(-557.983 -113.598)" fill="#f2c9ad"/>
                <path id="Trazado_117614" data-name="Trazado 117614" d="M568.352,113.6l-.242,3.642c-4.311,3.405-9.728.887-9.728.887l-.4-3.613Z" transform="translate(-557.983 -113.598)" fill="#eba58e"/>
              </g>
              <g id="Grupo_84010" data-name="Grupo 84010">
                <path id="Trazado_117615" data-name="Trazado 117615" d="M588.005,80.539h0a8.692,8.692,0,0,0-8.765,3.732l-18.917,28.374a11.792,11.792,0,0,0-1.625,3.668l-2.1,8.362c4.795,2.455,12.9.761,12.9.761l.864-7.038,6.876-9.527Z" transform="translate(-556.593 -80.402)" fill="#7dd3e9"/>
                <path id="Trazado_117616" data-name="Trazado 117616" d="M571.92,98.745l8.414-12.84,1.081.133-8.076,21.249-2.036,2.822-.661-2.094A10.92,10.92,0,0,1,571.92,98.745Z" transform="translate(-552.694 -78.817)" fill="#5fa5cc"/>
              </g>
            </g>
            <path id="Trazado_117617" data-name="Trazado 117617" d="M625.588,86.411c-5.668-3.117-15.168.676-15.168.676C615.284,91.483,624.139,88.826,625.588,86.411Z" transform="translate(-541.096 -38.609)" fill="#5fa5cc"/>
            <g id="Grupo_84012" data-name="Grupo 84012" transform="translate(35.596 33.973)">
              <path id="Trazado_117618" data-name="Trazado 117618" d="M586.625,88.755a5.094,5.094,0,0,1-2.216-3.436,10.856,10.856,0,0,1-.165-2.586l2.569.462.957-7.8,8.173,1-.211,6.734c-.98,1.743-1.933,3.647-3.511,4.873A5.158,5.158,0,0,1,586.625,88.755Z" transform="translate(-584.231 -75.399)" fill="#f2c9ad"/>
              <path id="Trazado_117619" data-name="Trazado 117619" d="M595.244,76.4l-.042,1.382c-3.531,3.643-8.54.954-8.54.954l.41-3.34Z" transform="translate(-583.532 -75.399)" fill="#de7274"/>
            </g>
            <g id="Grupo_84016" data-name="Grupo 84016" transform="translate(33.745 13.291)">
              <g id="Grupo_84014" data-name="Grupo 84014">
                <path id="Trazado_117620" data-name="Trazado 117620" d="M598.253,59.34a21.418,21.418,0,0,0,5.438,10.324,12.318,12.318,0,0,0-.841,5.893c-3.417,7.935-11.04,8.942-14.5,7.5s-5.757-6.2-5.537-10.992,2.818-11.327,2.818-11.327A24.988,24.988,0,0,0,598.253,59.34Z" transform="translate(-582.795 -59.34)" fill="#f2c9ad"/>
                <g id="Grupo_84013" data-name="Grupo 84013" transform="translate(3.041 3.346)">
                  <path id="Trazado_117621" data-name="Trazado 117621" d="M597.694,66.72l-5.6-2.933a2.374,2.374,0,0,1,2.131-.654,3.734,3.734,0,0,1,1.944,1.061A6.567,6.567,0,0,1,597.694,66.72Z" transform="translate(-583.159 -61.603)" fill="#6a3649"/>
                  <path id="Trazado_117622" data-name="Trazado 117622" d="M593.549,68.331h0a.73.73,0,0,1-.549-.874l.179-.779a.728.728,0,0,1,.873-.547h0A.729.729,0,0,1,594.6,67l-.179.779A.729.729,0,0,1,593.549,68.331Z" transform="translate(-582.903 -60.736)" fill="#422c4f"/>
                  <path id="Trazado_117623" data-name="Trazado 117623" d="M585.156,63.906l3.886-.421a2.151,2.151,0,0,0-1.142-1.454,1.479,1.479,0,0,0-1.357.187A4.31,4.31,0,0,0,585.156,63.906Z" transform="translate(-585.156 -61.938)" fill="#6a3649"/>
                  <path id="Trazado_117624" data-name="Trazado 117624" d="M586.936,66.983h0a.5.5,0,0,0,.6-.379l.279-1.218a.506.506,0,0,0-.379-.6h0a.5.5,0,0,0-.6.379l-.279,1.22A.5.5,0,0,0,586.936,66.983Z" transform="translate(-584.756 -61.123)" fill="#422c4f"/>
                  <path id="Trazado_117625" data-name="Trazado 117625" d="M586.653,72.44l6.568.091a4.321,4.321,0,0,1-3.328,1.687A4.243,4.243,0,0,1,586.653,72.44Z" transform="translate(-584.725 -58.914)" fill="#fff"/>
                  <path id="Trazado_117626" data-name="Trazado 117626" d="M587.719,69.156a22.573,22.573,0,0,1,3,.647,1.935,1.935,0,0,1-1.717.86C588.327,70.569,587.979,69.788,587.719,69.156Z" transform="translate(-584.418 -59.86)" fill="#eba58e"/>
                </g>
              </g>
              <g id="Grupo_84015" data-name="Grupo 84015" transform="translate(18.241 13.031)">
                <path id="Trazado_117627" data-name="Trazado 117627" d="M600.6,69.529a2.594,2.594,0,0,1,2.945,1.265,2.806,2.806,0,0,1-.028,2.05,4.608,4.608,0,0,1-4.366,2.966,2.387,2.387,0,0,1-1.744-.69,2.149,2.149,0,0,1-.41-1.764A5.107,5.107,0,0,1,600.6,69.529Z" transform="translate(-596.958 -69.458)" fill="#f2c9ad"/>
                <path id="Trazado_117628" data-name="Trazado 117628" d="M602.263,71.217a1.325,1.325,0,0,0-.859-.587,2.213,2.213,0,0,0-1.057.052,3.393,3.393,0,0,0-2.32,2.263,1.256,1.256,0,0,0,.192,1.284.947.947,0,0,0,.871.182,1.76,1.76,0,0,0,.777-.484,1.684,1.684,0,0,0,.568-1.207.89.89,0,0,0-.859-.88,2.282,2.282,0,0,1,1.135-.787A2.91,2.91,0,0,1,602.263,71.217Z" transform="translate(-596.675 -69.133)" fill="#eba58e"/>
              </g>
            </g>
            <g id="Grupo_84024" data-name="Grupo 84024" transform="translate(13.272 39.585)">
              <path id="Trazado_117629" data-name="Trazado 117629" d="M576.014,119.181c.586-4.768-3.821-8.92-3.208-13.915s4.2-9.779,6.675-14.315,5.557-10.227,5.557-10.227l4.2.753a10.859,10.859,0,0,0,.165,2.586,5.094,5.094,0,0,0,2.217,3.436,5.158,5.158,0,0,0,5.6-.744c1.578-1.226,2.531-3.131,3.511-4.873,4.1-3.953,9.18-1.561,12.23.5s10,6.263,10,6.263c5.816,1.806,13.112.569,15.168-.676l.961,8.812a8.739,8.739,0,0,1-2.161,6.76h0a8.741,8.741,0,0,1-10.956,1.726l-10.312-6.056c-.878,5.9-8.027,17.509-8.437,24.6s5.756,17.877,6.039,24.019c-21.888.885-40.556-4.75-46.353-8.227C573.94,126.686,575.429,123.949,576.014,119.181Z" transform="translate(-566.898 -79.757)" fill="#7dd3e9"/>
              <path id="Trazado_117630" data-name="Trazado 117630" d="M592.388,112.18c-3.184-.143-6.156-1.584-9.286-2.18a17.846,17.846,0,0,0-8.655.528,22.7,22.7,0,0,0-2.041-6.258l29.512,3.624A12,12,0,0,1,592.388,112.18Z" transform="translate(-565.312 -72.699)" fill="#5fa5cc"/>
              <path id="Trazado_117631" data-name="Trazado 117631" d="M600.939,96.059A7.069,7.069,0,0,1,598,90.9l8.693,5.105c-.048.316-.116.652-.2,1A6.77,6.77,0,0,1,600.939,96.059Z" transform="translate(-557.943 -76.548)" fill="#5fa5cc"/>
              <path id="Trazado_117632" data-name="Trazado 117632" d="M610.5,86.661l3.492,12.083C608.457,94.3,610.5,86.661,610.5,86.661Z" transform="translate(-554.45 -77.769)" fill="#5fa5cc"/>
              <g id="Grupo_84023" data-name="Grupo 84023" transform="translate(3.142 4.588)">
                <g id="Grupo_84017" data-name="Grupo 84017" transform="translate(18.133)">
                  <path id="Trazado_117633" data-name="Trazado 117633" d="M583.6,83.41a5.535,5.535,0,0,0,1.5,3.649,4.942,4.942,0,0,0,3.886,1.457,6.427,6.427,0,0,0,3.825-1.954,25.159,25.159,0,0,0,2.608-3.243,12.274,12.274,0,0,1-1.94,3.844,7.4,7.4,0,0,1-1.865,1.687,5.652,5.652,0,0,1-2.535.862,5.344,5.344,0,0,1-4.669-2.075A4.89,4.89,0,0,1,583.6,83.41Z" transform="translate(-583.418 -83.319)" fill="#5fa5cc"/>
                </g>
                <g id="Grupo_84018" data-name="Grupo 84018" transform="translate(13.186 8.641)">
                  <path id="Trazado_117634" data-name="Trazado 117634" d="M579.576,91.423a21.819,21.819,0,0,0,4.218,1.289,17.773,17.773,0,0,0,9.632-.755,21.81,21.81,0,0,0,3.965-1.929,11.828,11.828,0,0,1-3.582,2.8,13.234,13.234,0,0,1-10.259.8A11.849,11.849,0,0,1,579.576,91.423Z" transform="translate(-579.576 -90.028)" fill="#5fa5cc"/>
                </g>
                <g id="Grupo_84019" data-name="Grupo 84019" transform="translate(13.613 7.235)">
                  <path id="Trazado_117635" data-name="Trazado 117635" d="M579.908,88.937c1.044.51,2.219,1.169,3.434,1.754s2.457,1.105,3.5,1.609a6.364,6.364,0,0,1-6.938-3.363Z" transform="translate(-579.908 -88.937)" fill="#5fa5cc"/>
                </g>
                <g id="Grupo_84020" data-name="Grupo 84020" transform="translate(0 53.69)">
                  <path id="Trazado_117636" data-name="Trazado 117636" d="M569.338,125.007c2.666.962,5.752,2,9.091,2.915a95.025,95.025,0,0,0,21.3,3.352c3.459.157,6.715.117,9.547.019a56.367,56.367,0,0,1-9.56.979,62.8,62.8,0,0,1-21.576-3.4A56.372,56.372,0,0,1,569.338,125.007Z" transform="translate(-569.338 -125.007)" fill="#5fa5cc"/>
                </g>
                <g id="Grupo_84021" data-name="Grupo 84021" transform="translate(8.373 54.721)">
                  <path id="Trazado_117637" data-name="Trazado 117637" d="M575.839,125.807c1.663.268,3.549.562,5.559.769a58.819,58.819,0,0,0,12.547,0c2.01-.206,3.9-.5,5.561-.765a23.672,23.672,0,0,1-5.359,1.949,28.229,28.229,0,0,1-12.951,0A23.645,23.645,0,0,1,575.839,125.807Z" transform="translate(-575.839 -125.807)" fill="#5fa5cc"/>
                </g>
                <g id="Grupo_84022" data-name="Grupo 84022" transform="translate(4.633 49.247)">
                  <path id="Trazado_117638" data-name="Trazado 117638" d="M572.935,121.557a43.84,43.84,0,0,0,11.82,4.714,15.98,15.98,0,0,1-11.82-4.714Z" transform="translate(-572.935 -121.557)" fill="#5fa5cc"/>
                </g>
              </g>
            </g>
          </g>
        </g>
      </g>
      <g id="Grupo_84028" data-name="Grupo 84028" transform="translate(94.368 75.936)">
        <path id="Trazado_117639" data-name="Trazado 117639" d="M645.522,96.109,630.893,79.438l3.455-3.032,11.6,13.215,33.737-29.606,3.032,3.455Z" transform="translate(-630.893 -60.015)" fill="#87d38c"/>
      </g>
    </g>
    <g id="Grupo_84036" data-name="Grupo 84036" transform="translate(364.177 97.016)">
      <g id="Grupo_84031" data-name="Grupo 84031">
        <rect id="Rectángulo_34469" data-name="Rectángulo 34469" width="57.759" height="9.545" transform="translate(0 63.638)" fill="#a34262"/>
        <path id="Trazado_117640" data-name="Trazado 117640" d="M391.338,67.759h0a6.4,6.4,0,0,0-6.2,4.827l-14.993,59.051h42.393L397.542,72.586A6.4,6.4,0,0,0,391.338,67.759Z" transform="translate(-362.459 -67.759)" fill="#cc6164"/>
        <g id="Grupo_84030" data-name="Grupo 84030" transform="translate(11.162 15.153)">
          <path id="Trazado_117641" data-name="Trazado 117641" d="M397.97,79.524H380.318l-2.556,10.068h22.764Z" transform="translate(-371.427 -79.524)" fill="#fff"/>
          <path id="Trazado_117642" data-name="Trazado 117642" d="M375.4,98.9l-2.556,10.068h35.435L405.723,98.9Z" transform="translate(-372.843 -73.945)" fill="#fff"/>
        </g>
      </g>
      <g id="Grupo_84033" data-name="Grupo 84033" transform="translate(121.103)">
        <rect id="Rectángulo_34470" data-name="Rectángulo 34470" width="57.759" height="9.545" transform="translate(0 63.638)" fill="#a34262"/>
        <path id="Trazado_117643" data-name="Trazado 117643" d="M485.369,67.759h0a6.4,6.4,0,0,0-6.2,4.827l-14.991,59.051h42.391L491.574,72.586A6.4,6.4,0,0,0,485.369,67.759Z" transform="translate(-456.49 -67.759)" fill="#cc6164"/>
        <g id="Grupo_84032" data-name="Grupo 84032" transform="translate(11.162 15.153)">
          <path id="Trazado_117644" data-name="Trazado 117644" d="M492,79.524H474.35l-2.556,10.068h22.764Z" transform="translate(-465.458 -79.524)" fill="#fff"/>
          <path id="Trazado_117645" data-name="Trazado 117645" d="M469.43,98.9l-2.556,10.068H502.31L499.754,98.9Z" transform="translate(-466.874 -73.945)" fill="#fff"/>
        </g>
      </g>
      <g id="Grupo_84035" data-name="Grupo 84035" transform="translate(394.927)">
        <rect id="Rectángulo_34471" data-name="Rectángulo 34471" width="57.759" height="9.545" transform="translate(0 63.638)" fill="#a34262"/>
        <path id="Trazado_117646" data-name="Trazado 117646" d="M697.981,67.759h0a6.4,6.4,0,0,0-6.205,4.827l-14.991,59.051h42.392L704.185,72.586A6.4,6.4,0,0,0,697.981,67.759Z" transform="translate(-669.101 -67.759)" fill="#cc6164"/>
        <g id="Grupo_84034" data-name="Grupo 84034" transform="translate(11.161 15.153)">
          <path id="Trazado_117647" data-name="Trazado 117647" d="M704.613,79.524H686.961l-2.556,10.068h22.764Z" transform="translate(-678.069 -79.524)" fill="#fff"/>
          <path id="Trazado_117648" data-name="Trazado 117648" d="M682.042,98.9l-2.556,10.068h35.436L712.365,98.9Z" transform="translate(-679.486 -73.945)" fill="#fff"/>
        </g>
      </g>
    </g>
  </g>
</svg>
