<svg xmlns="http://www.w3.org/2000/svg" width="117" height="117" viewBox="0 0 117 117">
  <g id="Grupo_84337" data-name="Grupo 84337" transform="translate(-322 -5717)">
    <circle id="Elipse_4823" data-name="Elipse 4823" cx="58.5" cy="58.5" r="58.5" transform="translate(322 5717)" fill="#fff5c5"/>
    <g id="Grupo_84039" data-name="Grupo 84039" transform="translate(337 5727.141)">
      <path id="Trazado_117650" data-name="Trazado 117650" d="M186.827,181.14c-1.567-.11-3.969.575-4.714,1.664-3.127,4.567,4.81,3.924,7.041,4.026-1.444,1.226-6.959,7.012-7.287,8.382-.369,1.534-.369,13.764-.4,16.4-.048,3.547-.828,11.6,1.786,13.64H178.9a1.312,1.312,0,0,0-1.307,1.308h0a1.312,1.312,0,0,0,1.307,1.308h83.971a1.311,1.311,0,0,0,1.307-1.308h0a1.311,1.311,0,0,0-1.307-1.308H258.5c3.319-2.684,1.4-16.413,1.478-21.261.15-8.929-.13-11.449-7.37-17.16,2.368-.109,9.484.746,7.212-3.746-.684-1.356-5.036-3.054-6.644-1.178-3.257,3.807-2.908-.288-5.885-4.574-.322-.644-.615-1.226-.9-1.76a4.1,4.1,0,0,1-1.17.931l4.947,9.586c-3.018-.021-6.055-.144-9.107-.294-1.485,1.541-4.078,2.431-5.782.815a3.022,3.022,0,0,0-1.505-.733,4.15,4.15,0,0,0-1.259,2.568,2.575,2.575,0,0,1,.15.651c.226,2.034-1.574,3.677-3.373,4.225-2.053.74-4.776.192-5.59-2.054l-.014-.027c-.123-.376-.6-1.24-1.006-1.383a4.231,4.231,0,0,0-2.279,1.6c-.527,2.294-3.182,3.1-5.262,2.622-2.2-.424-4.318-2.266-3.757-4.67a2.891,2.891,0,0,0-.164-1.636c-.623-.178-2.374-.26-2.758.171-1.574,1.8-4.413,1.048-5.973-.383a5.755,5.755,0,0,1-1.252-1.691c-3.305.171-6.542.281-9.641.226a58.567,58.567,0,0,1,3.572-7.2c.253-.452.479-.863.684-1.246a5.541,5.541,0,0,1-.9-1.486,65.433,65.433,0,0,0-3.332,5.95c-2.2,4.327-1.8-.753-4.79-.972Zm5.556,44.112c1.43-1.008,1.04-3.143,1.143-5.6,9.627-.671,45.126-.671,54.713,0,.1,2.389-.295,4.574,1.149,5.6Zm8.594-71.33c1.012.952.9,3.472.6,4.245-.425.726-1.738,1.02-3.106.781-1.321-.295-2.751.958-3.12,2.876-.418,1.8.308,3.526,1.622,3.828,1.43.3,2.45,2.636,2.511,3.417.116.774-.835,1.794-2.156,2.15-1.368.486-1.916,2.335-1.368,4.129s2.142,2.938,3.463,2.52c1.252-.479,2.7-.239,3.052.479.417.6.889,3.109-.062,4.184-.835,1.02-.472,2.869.9,4.129s3.346,1.5,4.242.479,3.408-.774,4.188-.479c.718.3,1.081,1.684.834,2.992-.355,1.438.9,2.876,2.812,3.232,1.8.418,3.538-.356,3.832-1.732.363-1.315,2.634-2.452,3.407-2.513s1.8.952,2.218,2.219c.479,1.315,2.272,1.965,4.065,1.315,1.792-.541,2.929-2.1,2.449-3.355-.417-1.376,1.081-3.479,1.738-3.951.6-.479,1.977-.061,2.99.836,1.013.958,2.867.6,4.181-.836,1.2-1.438,1.444-3.294.431-4.245s-.787-3.472-.431-4.2c.308-.712,1.621-1.075,2.935-.774,1.437.3,2.874-1.013,3.237-2.814.417-1.917-.362-3.643-1.745-3.944-1.307-.246-2.388-2.575-2.511-3.355-.055-.842.958-1.732,2.217-2.219,1.375-.418,1.977-2.218,1.375-4.006-.6-1.862-2.148-2.93-3.407-2.513-1.314.356-3.47-1.075-3.948-1.684-.472-.712-.055-2.027.9-3.047s.534-2.938-.9-4.191c-1.382-1.26-3.285-1.493-4.249-.486-.9,1.027-3.47.911-4.119.548-.725-.308-1.142-1.739-.848-3.061.362-1.308-1.013-2.753-2.806-3.17-1.847-.356-3.586.356-3.948,1.739-.24,1.377-2.573,2.458-3.346,2.513-.787,0-1.738-.89-2.217-2.273-.424-1.315-2.21-1.856-4.01-1.315s-2.928,2.089-2.511,3.472c.356,1.315-1.012,3.348-1.738,3.828-.657.486-1.971.116-2.99-.836-1.013-.9-2.929-.479-4.181.836-1.259,1.438-1.506,3.417-.479,4.252Zm15.245-.952h0a15.055,15.055,0,1,1-9.621,18.913,15.055,15.055,0,0,1,9.621-18.913Zm-10.27,53.794a4.889,4.889,0,0,0,4.872,4.875h20.131a4.888,4.888,0,0,0,4.871-4.875V203.4a4.893,4.893,0,0,0-4.871-4.876H210.823a4.894,4.894,0,0,0-4.872,4.876Zm-6.2.014a5.968,5.968,0,0,0,2.662-2.882c-3-1.774-14.171-2.562-17.6-1.884-1.547,9.087,11.79,6.265,14.937,4.766Zm39.611-2.882a5.969,5.969,0,0,0,2.662,2.882c3.148,1.5,16.484,4.321,14.938-4.766-3.429-.678-14.6.11-17.6,1.884Z" transform="translate(-177.596 -141.615)" fill="#f88f05" fill-rule="evenodd"/>
      <path id="Trazado_117651" data-name="Trazado 117651" d="M364.678,233.612a.528.528,0,0,0-.752,0l-.465.459c-.76-.767-1.41-1.4-2.039-2.034l2.237-2.246.937-.938a3.581,3.581,0,0,0,4.79-4.286l-.1-.356-2.429,2.438-2.026-2.027,2.43-2.438-.349-.1a3.571,3.571,0,0,0-4.283,4.786l-.937.945v0l-2.252,2.246c-1.129-1.116-2.491-2.472-4.516-4.5a.021.021,0,0,0-.007-.014l-.972-1.664a.213.213,0,0,0-.061-.075l-1.642-1.137a.228.228,0,0,0-.287.027l-.732.733a.219.219,0,0,0-.027.288l1.136,1.644a.37.37,0,0,0,.075.069l1.663.972h.014c1.957,1.958,3.346,3.348,4.516,4.505l-2.251,2.246h0l-.937.938a3.575,3.575,0,0,0-4.783,4.287l.1.356,2.436-2.438,2.025,2.027-2.436,2.438.356.1a3.576,3.576,0,0,0,4.284-4.786l.937-.945,2.251-2.253c.664.657,1.314,1.3,2.046,2.041l-.458.459a.529.529,0,0,0,0,.753l5.159,5.163a.528.528,0,0,0,.752,0l1.766-1.767a.531.531,0,0,0,0-.753Zm2.634,6.525-4-4,.424-.418,3.989,3.992Zm.945-.952-3.989-3.992.417-.425,4,4Z" transform="translate(-316.835 -206.316)" fill="#f88f05" fill-rule="evenodd"/>
    </g>
  </g>
</svg>
