<svg xmlns="http://www.w3.org/2000/svg" width="610" height="290" viewBox="0 0 610 290">
  <g id="Grupo_84345" data-name="Grupo 84345" transform="translate(-810 -3917)">
    <rect id="Rectángulo_34558" data-name="Rectángulo 34558" width="610" height="290" transform="translate(810 3917)" fill="#fff5c5"/>
    <g id="Grupo_84248" data-name="Grupo 84248" transform="translate(411.547 3577.333)">
      <g id="Grupo_84151" data-name="Grupo 84151" transform="translate(549.968 387.234)">
        <path id="Trazado_117753" data-name="Trazado 117753" d="M461.381,374.859H860.291q28.285,60.6,0,118.346H461.381q-32.181-56.312,0-118.346Z" transform="translate(-445.29 -374.859)" fill="#b1b1b1" fill-rule="evenodd"/>
      </g>
      <g id="Grupo_84152" data-name="Grupo 84152" transform="translate(954.783 378.63)">
        <path id="Trazado_117754" data-name="Trazado 117754" d="M583.441,478.644l-1-.031,1.57-50.5c-3.015-23.848-10.565-42.185-22.454-54.434l-12.608.043-.008-1.008,13.037-.055.152.16c12.135,12.4,19.829,30.992,22.883,55.246Z" transform="translate(-548.938 -372.656)" fill="#221e20"/>
      </g>
      <g id="Grupo_84153" data-name="Grupo 84153" transform="translate(570.241 409.657)">
        <path id="Trazado_117755" data-name="Trazado 117755" d="M465.159,380.6H827.922c8.069,0,14.685,6.1,14.685,13.576v67.139c0,7.468-6.616,13.576-14.685,13.576H465.159c-8.069,0-14.678-6.109-14.678-13.576V394.176c0-7.472,6.608-13.576,14.678-13.576Z" transform="translate(-450.481 -380.6)" fill="#535353" fill-rule="evenodd"/>
      </g>
      <g id="Grupo_84154" data-name="Grupo 84154" transform="translate(570.241 471.968)">
        <path id="Trazado_117756" data-name="Trazado 117756" d="M450.481,396.554H842.607v18.411a12.407,12.407,0,0,1-.465,3.328H450.93a12.551,12.551,0,0,1-.449-3.328V396.554Z" transform="translate(-450.481 -396.554)" fill="#868686" fill-rule="evenodd"/>
      </g>
      <g id="Grupo_84155" data-name="Grupo 84155" transform="translate(573.171 394.37)">
        <path id="Trazado_117757" data-name="Trazado 117757" d="M453.883,376.686H830.609a2.66,2.66,0,0,1,2.648,2.644h0a2.658,2.658,0,0,1-2.648,2.648H453.883a2.661,2.661,0,0,1-2.652-2.648h0a2.66,2.66,0,0,1,2.652-2.644Z" transform="translate(-451.231 -376.686)" fill="#fff" fill-rule="evenodd"/>
      </g>
      <g id="Grupo_84156" data-name="Grupo 84156" transform="translate(495.752 370.6)">
        <path id="Trazado_117758" data-name="Trazado 117758" d="M438.912,370.6h0a7.518,7.518,0,0,0-7.5,7.5v5.089a7.518,7.518,0,0,0,7.5,7.5h0a7.516,7.516,0,0,0,7.495-7.5V378.1a7.516,7.516,0,0,0-7.495-7.5Z" transform="translate(-431.409 -370.6)" fill="#ef8124" fill-rule="evenodd"/>
      </g>
      <g id="Grupo_84157" data-name="Grupo 84157" transform="translate(495.753 383.193)">
        <path id="Trazado_117759" data-name="Trazado 117759" d="M431.409,373.824h15v5.714h-15v-5.714Z" transform="translate(-431.409 -373.824)" fill="#808185" fill-rule="evenodd"/>
      </g>
      <g id="Grupo_84158" data-name="Grupo 84158" transform="translate(699.146 537.475)">
        <path id="Trazado_117760" data-name="Trazado 117760" d="M483.485,413.326H650.491v10.016H483.485V413.326Z" transform="translate(-483.485 -413.326)" fill="#59595b" fill-rule="evenodd"/>
      </g>
      <g id="Grupo_84159" data-name="Grupo 84159" transform="translate(415.927 492.506)">
        <path id="Trazado_117761" data-name="Trazado 117761" d="M410.971,402.621l121.56-.808,18.586,15.173h15.711v-5.493h38.557v5.493h60.832v-5.493h38.565v5.493h48.981v-5.493H881.052v5.493h40.117v-5.493h38.565v5.493h2.392v29.8h-495.2l-15.207,17.644-31.276.583-5.286-16.485-4.188-45.9Z" transform="translate(-410.971 -401.813)" fill="#424143" fill-rule="evenodd"/>
      </g>
      <g id="Grupo_84160" data-name="Grupo 84160" transform="translate(415.463 386.969)">
        <path id="Trazado_117762" data-name="Trazado 117762" d="M525.691,374.791v106.9l-47.138,1.832c-12.2.473-26.891,9.94-28.566,22.692l-38.4.367-.734-69.556,29.265-60.042,85.573-2.2Z" transform="translate(-410.852 -374.791)" fill="#067da9" fill-rule="evenodd"/>
      </g>
      <g id="Grupo_84161" data-name="Grupo 84161" transform="translate(423.341 392.937)">
        <path id="Trazado_117763" data-name="Trazado 117763" d="M440.841,498.071H415.818l-.023-.488-2.925-66.424.051-.113,24.739-53.453,58.593-1.273V474.9l-28.218,1.062c-14.006,3.007-22.883,10.131-27.066,21.77Zm-24.051-1.016h23.348c4.355-11.8,13.447-19.021,27.766-22.091l27.332-1.035V377.354l-56.921,1.23-24.422,52.77Z" transform="translate(-412.869 -376.319)" fill="#1a608a"/>
      </g>
      <g id="Grupo_84162" data-name="Grupo 84162" transform="translate(428.561 397.416)">
        <path id="Trazado_117764" data-name="Trazado 117764" d="M436.4,378.931l52.328-1.465-5.21,47.122-62.956,9.53A5.354,5.354,0,0,1,415.41,432a5.29,5.29,0,0,1-.734-5.523L436.4,378.931Z" transform="translate(-414.206 -377.466)" fill="#bad4dd" fill-rule="evenodd"/>
      </g>
      <g id="Grupo_84163" data-name="Grupo 84163" transform="translate(409.265 488.743)">
        <path id="Trazado_117765" data-name="Trazado 117765" d="M412.675,400.849h7.557a3.723,3.723,0,0,1,3.41,3.956v17.724a3.727,3.727,0,0,1-3.41,3.968h-7.557a3.727,3.727,0,0,1-3.41-3.968V404.805a3.723,3.723,0,0,1,3.41-3.956Z" transform="translate(-409.265 -400.849)" fill="#efba27" fill-rule="evenodd"/>
      </g>
      <g id="Grupo_84164" data-name="Grupo 84164" transform="translate(434.281 389.164)">
        <path id="Trazado_117766" data-name="Trazado 117766" d="M422.8,382.164c-2.371,0-4.753-.012-7.128-.019.98-5.07,5.023-6.714,10.448-6.792l-3.32,6.811Z" transform="translate(-415.67 -375.353)" fill="#1c93d1" fill-rule="evenodd"/>
      </g>
      <g id="Grupo_84165" data-name="Grupo 84165" transform="translate(434.071 414.934)">
        <path id="Trazado_117767" data-name="Trazado 117767" d="M415.616,381.951h3.776v10.428h-3.776V381.951Z" transform="translate(-415.616 -381.951)" fill="#59595b" fill-rule="evenodd"/>
      </g>
      <g id="Grupo_84166" data-name="Grupo 84166" transform="translate(559.884 493.391)">
        <path id="Trazado_117768" data-name="Trazado 117768" d="M858.242,402.039q-2.355,6.1-5.327,12.19H454a134.286,134.286,0,0,1-6.175-12.19Z" transform="translate(-447.829 -402.039)" fill="#6f6f73" fill-rule="evenodd"/>
      </g>
      <g id="Grupo_84167" data-name="Grupo 84167" transform="translate(530.302 393.479)">
        <path id="Trazado_117769" data-name="Trazado 117769" d="M440.255,376.458H456.8v91.451H440.255V376.458Z" transform="translate(-440.255 -376.458)" fill="#808185" fill-rule="evenodd"/>
      </g>
      <g id="Grupo_84168" data-name="Grupo 84168" transform="translate(535.258 372.905)">
        <path id="Trazado_117770" data-name="Trazado 117770" d="M448.164,391.784l-6.64-.039.031-5.038a14.129,14.129,0,0,1,4.515-10.475c3.734-3.519,9.5-5.347,15.783-5l-.363,6.624c-4.46-.246-8.452.926-10.873,3.2a7.583,7.583,0,0,0-2.437,5.687Z" transform="translate(-441.524 -371.19)" fill="#221e20"/>
      </g>
      <g id="Grupo_84169" data-name="Grupo 84169" transform="translate(521.436 484.919)">
        <path id="Trazado_117771" data-name="Trazado 117771" d="M439.434,417.231c-.48,0-.961-.019-1.449-.047l.25-4.632c4.773.25,8.995-1,11.6-3.472a8.54,8.54,0,0,0,2.758-6.405l.012-2.8,4.644.02-.012,2.808a13.2,13.2,0,0,1-4.214,9.764C449.78,415.52,444.879,417.231,439.434,417.231Z" transform="translate(-437.985 -399.87)" fill="#221e20"/>
      </g>
      <g id="Grupo_84170" data-name="Grupo 84170" transform="translate(530.294 410.578)">
        <path id="Trazado_117772" data-name="Trazado 117772" d="M440.253,380.836h17.728v4.218H440.253v-4.218Z" transform="translate(-440.253 -380.836)" fill="#221e20" fill-rule="evenodd"/>
      </g>
      <g id="Grupo_84171" data-name="Grupo 84171" transform="translate(530.023 459.849)">
        <path id="Trazado_117773" data-name="Trazado 117773" d="M440.184,393.451h17.728v4.219H440.184v-4.219Z" transform="translate(-440.184 -393.451)" fill="#221e20" fill-rule="evenodd"/>
      </g>
      <g id="Grupo_84172" data-name="Grupo 84172" transform="translate(645.902 381.009)">
        <path id="Trazado_117774" data-name="Trazado 117774" d="M471.579,373.265h24.133c.949,0,1.722,1.066,1.722,2.379v3.417l0,.117h-27.57l-.008-.117v-3.417c0-1.312.773-2.379,1.726-2.379Z" transform="translate(-469.853 -373.265)" fill="#6f6f73" fill-rule="evenodd"/>
      </g>
      <g id="Grupo_84173" data-name="Grupo 84173" transform="translate(816.014 381.009)">
        <path id="Trazado_117775" data-name="Trazado 117775" d="M515.142,373.265h24.129c.953,0,1.726,1.066,1.726,2.379v3.417l-.008.117H513.415l-.007-.117v-3.417c0-1.312.781-2.379,1.734-2.379Z" transform="translate(-513.408 -373.265)" fill="#6f6f73" fill-rule="evenodd"/>
      </g>
      <g id="Grupo_84174" data-name="Grupo 84174" transform="translate(553.579 517.531)">
        <path id="Trazado_117776" data-name="Trazado 117776" d="M446.215,408.22h91.734v36.448H446.215V408.22Z" transform="translate(-446.215 -408.22)" fill="#808185" fill-rule="evenodd"/>
      </g>
      <g id="Grupo_84175" data-name="Grupo 84175" transform="translate(566.513 517.531)">
        <path id="Trazado_117777" data-name="Trazado 117777" d="M449.526,408.22h5.747v36.448h-5.747V408.22Z" transform="translate(-449.526 -408.22)" fill="#a6a8ab" fill-rule="evenodd"/>
      </g>
      <g id="Grupo_84176" data-name="Grupo 84176" transform="translate(627.341 517.531)">
        <path id="Trazado_117778" data-name="Trazado 117778" d="M465.1,408.22h5.755v36.448H465.1V408.22Z" transform="translate(-465.101 -408.22)" fill="#a6a8ab" fill-rule="evenodd"/>
      </g>
      <g id="Grupo_84177" data-name="Grupo 84177" transform="translate(597.407 517.531)">
        <path id="Trazado_117779" data-name="Trazado 117779" d="M457.437,408.22h5.752v36.448h-5.752V408.22Z" transform="translate(-457.437 -408.22)" fill="#a6a8ab" fill-rule="evenodd"/>
      </g>
      <g id="Grupo_84178" data-name="Grupo 84178" transform="translate(612.974 520.41)">
        <path id="Trazado_117780" data-name="Trazado 117780" d="M465.5,408.957a4.074,4.074,0,1,1-4.082,4.074,4.072,4.072,0,0,1,4.082-4.074Z" transform="translate(-461.422 -408.957)" fill="#59595b" fill-rule="evenodd"/>
      </g>
      <g id="Grupo_84179" data-name="Grupo 84179" transform="translate(476.513 518.207)">
        <path id="Trazado_117781" data-name="Trazado 117781" d="M459.462,408.393a32.974,32.974,0,1,1-32.979,32.972,32.976,32.976,0,0,1,32.979-32.972Z" transform="translate(-426.483 -408.393)" fill="#59595b" fill-rule="evenodd"/>
      </g>
      <g id="Grupo_84180" data-name="Grupo 84180" transform="translate(481.208 522.906)">
        <path id="Trazado_117782" data-name="Trazado 117782" d="M455.97,409.6a28.275,28.275,0,1,1-28.285,28.273A28.278,28.278,0,0,1,455.97,409.6Z" transform="translate(-427.685 -409.596)" fill="#6f6f73" fill-rule="evenodd"/>
      </g>
      <g id="Grupo_84181" data-name="Grupo 84181" transform="translate(476.427 518.059)">
        <path id="Trazado_117783" data-name="Trazado 117783" d="M457.976,408.394l-.277,5.874c.6-.039,1.211-.058,1.828-.058.3,0,.621,0,.926.019l-.508-5.874h-.418c-.519,0-1.039.008-1.551.039Zm6.917.391c.652.105,1.289.234,1.926.371l-.722,5.855a27.537,27.537,0,0,0-2.7-.527l1.5-5.7Zm6.683,1.828c.605.238,1.211.5,1.8.769l-1.922,5.577c-.828-.406-1.664-.766-2.531-1.09l2.648-5.257Zm6.144,3.187c.543.363,1.086.73,1.609,1.125l-3.035,5.05q-1.084-.843-2.25-1.582l3.675-4.593Zm5.355,4.39c.461.465.91.941,1.34,1.433l-4.019,4.316a26.95,26.95,0,0,0-1.875-2.015l4.554-3.734Zm4.331,5.4c.355.551.7,1.109,1.012,1.687l-4.824,3.371c-.441-.809-.906-1.6-1.414-2.359l5.226-2.7Zm3.113,6.183c.23.613.445,1.238.641,1.863l-5.421,2.3a27.277,27.277,0,0,0-.9-2.6l5.683-1.558Zm1.75,6.7c.1.648.18,1.3.234,1.957l-5.78,1.117a26.793,26.793,0,0,0-.328-2.726l5.874-.348Zm.32,6.921c-.039.656-.09,1.312-.164,1.957l-5.894-.1a26.944,26.944,0,0,0,.238-2.742l5.819.883Zm-1.117,6.831c-.176.633-.363,1.265-.57,1.886l-5.741-1.336c.309-.859.582-1.738.808-2.632l5.5,2.082Zm-2.515,6.456c-.3.574-.625,1.156-.953,1.719l-5.343-2.5a27.127,27.127,0,0,0,1.336-2.4l4.96,3.175Zm-3.808,5.78c-.418.5-.848,1-1.3,1.476l-4.7-3.542a25.555,25.555,0,0,0,1.808-2.078l4.187,4.144Zm-4.925,4.866c-.512.41-1.039.808-1.57,1.183l-3.863-4.441c.754-.523,1.488-1.074,2.2-1.664l3.238,4.921Zm-5.827,3.742c-.586.3-1.176.578-1.781.836l-2.851-5.156q1.277-.522,2.492-1.16l2.14,5.48Zm-6.48,2.449c-.633.164-1.269.309-1.914.441l-1.722-5.64a25.465,25.465,0,0,0,2.683-.609l.953,5.808Zm-6.847,1.039c-.512.027-1.023.035-1.543.035H459.1l-.512-5.874c.313.016.621.02.934.02.609,0,1.215-.02,1.816-.063l-.273,5.882Zm-6.905-.395c-.652-.105-1.3-.23-1.933-.379l.711-5.847a26.36,26.36,0,0,0,2.71.527l-1.488,5.7Zm-6.683-1.832c-.617-.238-1.223-.492-1.816-.769l1.922-5.57a27.006,27.006,0,0,0,2.535,1.082l-2.64,5.257Zm-6.151-3.179c-.551-.367-1.09-.742-1.617-1.133l3.043-5.046c.719.559,1.476,1.086,2.254,1.578l-3.679,4.6Zm-5.363-4.394c-.457-.465-.906-.945-1.332-1.437l4.015-4.308c.59.707,1.222,1.371,1.879,2.015l-4.562,3.73Zm-4.328-5.4c-.347-.559-.691-1.113-1.011-1.7l4.831-3.37a26.221,26.221,0,0,0,1.414,2.363l-5.234,2.7Zm-3.109-6.191c-.23-.605-.449-1.23-.644-1.859l5.433-2.3a26.156,26.156,0,0,0,.886,2.605l-5.675,1.55Zm-1.754-6.694c-.094-.652-.18-1.3-.23-1.957l5.78-1.125c.062.934.18,1.836.328,2.734l-5.878.348Zm-.316-6.921c.039-.656.094-1.308.164-1.961l5.894.1c-.125.914-.2,1.82-.242,2.742l-5.816-.883Zm1.109-6.835c.176-.633.367-1.262.578-1.879l5.737,1.328a27.091,27.091,0,0,0-.809,2.636l-5.507-2.086Zm2.523-6.448c.3-.586.625-1.16.961-1.719l5.335,2.492c-.48.773-.929,1.578-1.34,2.4l-4.956-3.175Zm3.812-5.784c.414-.508.84-1,1.289-1.484l4.7,3.539q-.955,1-1.812,2.086l-4.179-4.14Zm4.921-4.87c.508-.414,1.035-.8,1.566-1.187l3.867,4.452a25.912,25.912,0,0,0-2.2,1.656l-3.234-4.921Zm5.831-3.745c.574-.289,1.168-.57,1.773-.832l2.855,5.156a27.287,27.287,0,0,0-2.5,1.16l-2.133-5.483Zm6.464-2.445c.637-.172,1.277-.309,1.922-.441l1.719,5.632a25.612,25.612,0,0,0-2.679.621l-.961-5.812Z" transform="translate(-426.461 -408.355)" fill="#6f6f73" fill-rule="evenodd"/>
      </g>
      <g id="Grupo_84182" data-name="Grupo 84182" transform="translate(491.171 532.865)">
        <path id="Trazado_117784" data-name="Trazado 117784" d="M448.558,412.146a18.316,18.316,0,1,1-18.322,18.314,18.313,18.313,0,0,1,18.322-18.314Z" transform="translate(-430.236 -412.146)" fill="#efba27" fill-rule="evenodd"/>
      </g>
      <g id="Grupo_84183" data-name="Grupo 84183" transform="translate(494.366 536.056)">
        <path id="Trazado_117785" data-name="Trazado 117785" d="M446.181,412.963a15.125,15.125,0,1,1-15.127,15.123,15.12,15.12,0,0,1,15.127-15.123Z" transform="translate(-431.054 -412.963)" fill="#dd9f2e" fill-rule="evenodd"/>
      </g>
      <g id="Grupo_84184" data-name="Grupo 84184" transform="translate(503.189 544.891)">
        <path id="Trazado_117786" data-name="Trazado 117786" d="M439.617,415.225a6.288,6.288,0,1,1-6.3,6.288,6.292,6.292,0,0,1,6.3-6.288Z" transform="translate(-433.313 -415.225)" fill="#efba27" fill-rule="evenodd"/>
      </g>
      <g id="Grupo_84185" data-name="Grupo 84185" transform="translate(508.516 541.317)">
        <path id="Trazado_117787" data-name="Trazado 117787" d="M435.653,414.31a.974.974,0,0,1,0,1.949.974.974,0,1,1,0-1.949Z" transform="translate(-434.677 -414.31)" fill="#ffdd10" fill-rule="evenodd"/>
      </g>
      <g id="Grupo_84186" data-name="Grupo 84186" transform="translate(503.291 543.013)">
        <path id="Trazado_117788" data-name="Trazado 117788" d="M433.745,414.927a.97.97,0,0,1,1.351.215.957.957,0,0,1-.215,1.355.969.969,0,1,1-1.137-1.57Z" transform="translate(-433.339 -414.744)" fill="#ffdd10" fill-rule="evenodd"/>
      </g>
      <g id="Grupo_84187" data-name="Grupo 84187" transform="translate(500.059 547.459)">
        <path id="Trazado_117789" data-name="Trazado 117789" d="M432.56,416.556a.975.975,0,1,1,.629,1.222.973.973,0,0,1-.629-1.222Z" transform="translate(-432.512 -415.882)" fill="#ffdd10" fill-rule="evenodd"/>
      </g>
      <g id="Grupo_84188" data-name="Grupo 84188" transform="translate(500.059 552.953)">
        <path id="Trazado_117790" data-name="Trazado 117790" d="M432.56,418.562a.975.975,0,0,1,1.855-.6.975.975,0,1,1-1.855.6Z" transform="translate(-432.512 -417.289)" fill="#ffdd10" fill-rule="evenodd"/>
      </g>
      <g id="Grupo_84189" data-name="Grupo 84189" transform="translate(503.287 557.401)">
        <path id="Trazado_117791" data-name="Trazado 117791" d="M433.74,420.185a.971.971,0,1,1,1.359-.219.966.966,0,0,1-1.359.219Z" transform="translate(-433.338 -418.428)" fill="#ffdd10" fill-rule="evenodd"/>
      </g>
      <g id="Grupo_84190" data-name="Grupo 84190" transform="translate(508.512 559.1)">
        <path id="Trazado_117792" data-name="Trazado 117792" d="M435.656,420.808a.972.972,0,1,1,.969-.972.977.977,0,0,1-.969.972Z" transform="translate(-434.676 -418.863)" fill="#ffdd10" fill-rule="evenodd"/>
      </g>
      <g id="Grupo_84191" data-name="Grupo 84191" transform="translate(513.74 557.403)">
        <path id="Trazado_117793" data-name="Trazado 117793" d="M437.564,420.184a.973.973,0,1,1,.207-1.359.978.978,0,0,1-.207,1.359Z" transform="translate(-436.014 -418.429)" fill="#ffdd10" fill-rule="evenodd"/>
      </g>
      <g id="Grupo_84192" data-name="Grupo 84192" transform="translate(516.972 552.96)">
        <path id="Trazado_117794" data-name="Trazado 117794" d="M438.736,418.561a.971.971,0,0,1-1.222.625.961.961,0,0,1-.621-1.222.969.969,0,1,1,1.843.6Z" transform="translate(-436.842 -417.291)" fill="#ffdd10" fill-rule="evenodd"/>
      </g>
      <g id="Grupo_84193" data-name="Grupo 84193" transform="translate(516.972 547.461)">
        <path id="Trazado_117795" data-name="Trazado 117795" d="M438.736,416.558a.969.969,0,1,1-1.222-.625.965.965,0,0,1,1.222.625Z" transform="translate(-436.842 -415.883)" fill="#ffdd10" fill-rule="evenodd"/>
      </g>
      <g id="Grupo_84194" data-name="Grupo 84194" transform="translate(513.743 543.015)">
        <path id="Trazado_117796" data-name="Trazado 117796" d="M437.561,414.926a.986.986,0,0,1,.215,1.367.972.972,0,0,1-1.359.2.959.959,0,0,1-.215-1.347.98.98,0,0,1,1.359-.223Z" transform="translate(-436.015 -414.745)" fill="#ffdd10" fill-rule="evenodd"/>
      </g>
      <g id="Grupo_84195" data-name="Grupo 84195" transform="translate(752.137 518.207)">
        <path id="Trazado_117797" data-name="Trazado 117797" d="M530.021,408.393a32.974,32.974,0,1,1-32.968,32.972,32.975,32.975,0,0,1,32.968-32.972Z" transform="translate(-497.053 -408.393)" fill="#59595b" fill-rule="evenodd"/>
      </g>
      <g id="Grupo_84196" data-name="Grupo 84196" transform="translate(756.831 522.906)">
        <path id="Trazado_117798" data-name="Trazado 117798" d="M526.528,409.6a28.275,28.275,0,1,1-28.273,28.273A28.28,28.28,0,0,1,526.528,409.6Z" transform="translate(-498.255 -409.596)" fill="#6f6f73" fill-rule="evenodd"/>
      </g>
      <g id="Grupo_84197" data-name="Grupo 84197" transform="translate(752.039 518.059)">
        <path id="Trazado_117799" data-name="Trazado 117799" d="M528.547,408.394l-.273,5.874c.605-.039,1.207-.058,1.828-.058.309,0,.609,0,.926.019l-.516-5.874h-.418c-.52,0-1.035.008-1.547.039Zm6.909.391c.652.105,1.3.234,1.937.371l-.719,5.855c-.883-.219-1.793-.394-2.7-.527l1.484-5.7Zm6.683,1.828c.613.238,1.219.5,1.812.769l-1.918,5.577a26.6,26.6,0,0,0-2.535-1.09l2.64-5.257Zm6.151,3.187c.551.363,1.094.73,1.609,1.125l-3.031,5.05q-1.09-.843-2.254-1.582l3.675-4.593Zm5.362,4.39q.685.7,1.332,1.433l-4.015,4.316q-.9-1.06-1.879-2.015l4.562-3.734Zm4.335,5.4c.34.551.68,1.109,1,1.687l-4.835,3.371a25.792,25.792,0,0,0-1.414-2.359l5.245-2.7Zm3.105,6.183c.227.613.441,1.238.64,1.863l-5.421,2.3c-.258-.883-.566-1.754-.9-2.6l5.679-1.558Zm1.754,6.7c.094.648.172,1.3.226,1.957L557.3,439.55a26.741,26.741,0,0,0-.328-2.726l5.878-.348Zm.316,6.921c-.035.656-.1,1.312-.172,1.957l-5.886-.1c.121-.914.2-1.824.234-2.742l5.823.883Zm-1.117,6.831c-.176.633-.359,1.265-.574,1.886l-5.734-1.336q.463-1.289.8-2.632l5.507,2.082Zm-2.519,6.456c-.3.574-.621,1.156-.953,1.719l-5.347-2.5c.488-.777.93-1.578,1.347-2.4l4.953,3.175Zm-3.808,5.78c-.41.5-.847,1-1.293,1.476l-4.7-3.542a26.209,26.209,0,0,0,1.8-2.078l4.191,4.144Zm-4.921,4.866c-.512.41-1.035.808-1.57,1.183l-3.863-4.441c.762-.523,1.492-1.074,2.2-1.664l3.234,4.921Zm-5.827,3.742c-.586.3-1.176.578-1.781.836l-2.859-5.156a27.426,27.426,0,0,0,2.5-1.16l2.144,5.48Zm-6.48,2.449c-.637.164-1.273.309-1.918.441l-1.715-5.64a25.992,25.992,0,0,0,2.675-.609l.957,5.808Zm-6.847,1.039c-.516.027-1.031.035-1.551.035h-.414l-.512-5.874c.309.016.617.02.934.02.605,0,1.219-.02,1.82-.063l-.277,5.882Zm-6.917-.395c-.644-.105-1.289-.23-1.929-.379l.719-5.847a26.086,26.086,0,0,0,2.707.527l-1.5,5.7Zm-6.679-1.832c-.609-.238-1.215-.492-1.8-.769l1.918-5.57a26.519,26.519,0,0,0,2.531,1.082l-2.644,5.257Zm-6.144-3.179c-.551-.367-1.086-.742-1.617-1.133l3.042-5.046c.722.559,1.465,1.086,2.25,1.578l-3.675,4.6Zm-5.355-4.394c-.469-.465-.91-.945-1.347-1.437l4.023-4.308c.6.707,1.215,1.371,1.871,2.015l-4.546,3.73Zm-4.335-5.4c-.351-.559-.683-1.113-1.008-1.7l4.824-3.37a27.172,27.172,0,0,0,1.414,2.363l-5.23,2.7Zm-3.109-6.191c-.23-.605-.445-1.23-.644-1.859l5.421-2.3c.262.883.563,1.758.9,2.605l-5.675,1.55Zm-1.754-6.694c-.1-.652-.18-1.3-.238-1.957L502.9,443.4a27.115,27.115,0,0,0,.328,2.734l-5.874.348Zm-.324-6.921c.039-.656.1-1.308.172-1.961l5.886.1c-.125.914-.2,1.82-.234,2.742l-5.823-.883Zm1.121-6.835c.168-.633.367-1.262.574-1.879l5.745,1.328a24.213,24.213,0,0,0-.808,2.636l-5.511-2.086Zm2.511-6.448q.457-.879.961-1.719l5.339,2.492a24.406,24.406,0,0,0-1.336,2.4l-4.964-3.175Zm3.812-5.784c.422-.508.848-1,1.293-1.484l4.7,3.539c-.629.664-1.238,1.359-1.8,2.086l-4.187-4.14Zm4.925-4.87c.512-.414,1.035-.8,1.566-1.187l3.867,4.452a26.585,26.585,0,0,0-2.2,1.656l-3.23-4.921Zm5.823-3.745c.59-.289,1.18-.57,1.781-.832l2.855,5.156a27.273,27.273,0,0,0-2.5,1.16l-2.14-5.483Zm6.479-2.445c.633-.172,1.269-.309,1.914-.441l1.722,5.632a25.212,25.212,0,0,0-2.683.621l-.953-5.812Z" transform="translate(-497.028 -408.355)" fill="#6f6f73" fill-rule="evenodd"/>
      </g>
      <g id="Grupo_84198" data-name="Grupo 84198" transform="translate(766.791 532.865)">
        <path id="Trazado_117800" data-name="Trazado 117800" d="M519.127,412.146a18.316,18.316,0,1,1-18.322,18.314,18.315,18.315,0,0,1,18.322-18.314Z" transform="translate(-500.805 -412.146)" fill="#efba27" fill-rule="evenodd"/>
      </g>
      <g id="Grupo_84199" data-name="Grupo 84199" transform="translate(769.986 536.056)">
        <path id="Trazado_117801" data-name="Trazado 117801" d="M516.75,412.963a15.125,15.125,0,1,1-15.127,15.123,15.117,15.117,0,0,1,15.127-15.123Z" transform="translate(-501.623 -412.963)" fill="#dd9f2e" fill-rule="evenodd"/>
      </g>
      <g id="Grupo_84200" data-name="Grupo 84200" transform="translate(778.817 544.891)">
        <path id="Trazado_117802" data-name="Trazado 117802" d="M510.18,415.225a6.288,6.288,0,1,1-6.3,6.288,6.284,6.284,0,0,1,6.3-6.288Z" transform="translate(-503.884 -415.225)" fill="#efba27" fill-rule="evenodd"/>
      </g>
      <g id="Grupo_84201" data-name="Grupo 84201" transform="translate(784.132 541.317)">
        <path id="Trazado_117803" data-name="Trazado 117803" d="M506.225,414.31a.974.974,0,0,1,0,1.949.974.974,0,1,1,0-1.949Z" transform="translate(-505.245 -414.31)" fill="#ffdd10" fill-rule="evenodd"/>
      </g>
      <g id="Grupo_84202" data-name="Grupo 84202" transform="translate(778.908 543.013)">
        <path id="Trazado_117804" data-name="Trazado 117804" d="M504.308,414.927a.98.98,0,0,1,1.359.215.973.973,0,1,1-1.359-.215Z" transform="translate(-503.907 -414.744)" fill="#ffdd10" fill-rule="evenodd"/>
      </g>
      <g id="Grupo_84203" data-name="Grupo 84203" transform="translate(775.68 547.459)">
        <path id="Trazado_117805" data-name="Trazado 117805" d="M503.128,416.556a.971.971,0,1,1,1.848.6.971.971,0,1,1-1.848-.6Z" transform="translate(-503.081 -415.882)" fill="#ffdd10" fill-rule="evenodd"/>
      </g>
      <g id="Grupo_84204" data-name="Grupo 84204" transform="translate(775.68 552.953)">
        <path id="Trazado_117806" data-name="Trazado 117806" d="M503.128,418.562a.97.97,0,1,1,1.223.629.981.981,0,0,1-1.223-.629Z" transform="translate(-503.081 -417.289)" fill="#ffdd10" fill-rule="evenodd"/>
      </g>
      <g id="Grupo_84205" data-name="Grupo 84205" transform="translate(778.907 557.401)">
        <path id="Trazado_117807" data-name="Trazado 117807" d="M504.309,420.185a.97.97,0,0,1-.215-1.359.97.97,0,1,1,1.57,1.14.963.963,0,0,1-1.355.219Z" transform="translate(-503.907 -418.428)" fill="#ffdd10" fill-rule="evenodd"/>
      </g>
      <g id="Grupo_84206" data-name="Grupo 84206" transform="translate(784.132 559.1)">
        <path id="Trazado_117808" data-name="Trazado 117808" d="M506.218,420.808a.972.972,0,1,1,.973-.972.968.968,0,0,1-.973.972Z" transform="translate(-505.245 -418.863)" fill="#ffdd10" fill-rule="evenodd"/>
      </g>
      <g id="Grupo_84207" data-name="Grupo 84207" transform="translate(789.358 557.403)">
        <path id="Trazado_117809" data-name="Trazado 117809" d="M508.126,420.184a.973.973,0,0,1-1.144-1.574.988.988,0,0,1,1.363.215.969.969,0,0,1-.219,1.359Z" transform="translate(-506.583 -418.429)" fill="#ffdd10" fill-rule="evenodd"/>
      </g>
      <g id="Grupo_84208" data-name="Grupo 84208" transform="translate(792.588 552.96)">
        <path id="Trazado_117810" data-name="Trazado 117810" d="M509.312,418.561a.978.978,0,0,1-1.226.625.97.97,0,1,1,1.226-.625Z" transform="translate(-507.41 -417.291)" fill="#ffdd10" fill-rule="evenodd"/>
      </g>
      <g id="Grupo_84209" data-name="Grupo 84209" transform="translate(792.588 547.461)">
        <path id="Trazado_117811" data-name="Trazado 117811" d="M509.312,416.558a.975.975,0,1,1-1.226-.625.977.977,0,0,1,1.226.625Z" transform="translate(-507.41 -415.883)" fill="#ffdd10" fill-rule="evenodd"/>
      </g>
      <g id="Grupo_84210" data-name="Grupo 84210" transform="translate(789.358 543.015)">
        <path id="Trazado_117812" data-name="Trazado 117812" d="M508.133,414.926a.973.973,0,1,1-1.148,1.57.955.955,0,0,1-.215-1.347.984.984,0,0,1,1.363-.223Z" transform="translate(-506.583 -414.745)" fill="#ffdd10" fill-rule="evenodd"/>
      </g>
      <g id="Grupo_84211" data-name="Grupo 84211" transform="translate(827.02 518.207)">
        <path id="Trazado_117813" data-name="Trazado 117813" d="M549.2,408.393a32.974,32.974,0,1,1-32.972,32.972A32.974,32.974,0,0,1,549.2,408.393Z" transform="translate(-516.226 -408.393)" fill="#59595b" fill-rule="evenodd"/>
      </g>
      <g id="Grupo_84212" data-name="Grupo 84212" transform="translate(831.719 522.906)">
        <path id="Trazado_117814" data-name="Trazado 117814" d="M545.7,409.6a28.275,28.275,0,1,1-28.273,28.273A28.278,28.278,0,0,1,545.7,409.6Z" transform="translate(-517.429 -409.596)" fill="#6f6f73" fill-rule="evenodd"/>
      </g>
      <g id="Grupo_84213" data-name="Grupo 84213" transform="translate(826.923 518.059)">
        <path id="Trazado_117815" data-name="Trazado 117815" d="M547.716,408.394l-.273,5.874c.609-.039,1.214-.058,1.835-.058.309,0,.609,0,.918.019l-.512-5.874h-.414c-.519,0-1.043.008-1.555.039Zm6.917.391c.652.105,1.292.234,1.933.371l-.719,5.855q-1.33-.328-2.707-.527l1.492-5.7Zm6.682,1.828c.613.238,1.211.5,1.8.769l-1.918,5.577a26.18,26.18,0,0,0-2.535-1.09l2.648-5.257Zm6.151,3.187c.543.363,1.082.73,1.6,1.125l-3.027,5.05c-.73-.562-1.472-1.09-2.25-1.582l3.675-4.593Zm5.355,4.39c.453.465.906.941,1.34,1.433l-4.015,4.316q-.9-1.06-1.879-2.015l4.554-3.734Zm4.335,5.4c.344.551.684,1.109,1.008,1.687l-4.832,3.371c-.43-.809-.906-1.6-1.414-2.359l5.237-2.7Zm3.1,6.183c.238.613.453,1.238.652,1.863l-5.429,2.3c-.262-.883-.563-1.754-.9-2.6l5.675-1.558Zm1.761,6.7c.1.648.172,1.3.231,1.957l-5.784,1.117a25.811,25.811,0,0,0-.328-2.726l5.882-.348Zm.316,6.921c-.039.656-.1,1.312-.172,1.957l-5.886-.1c.125-.914.2-1.824.234-2.742l5.823.883Zm-1.113,6.831c-.176.633-.367,1.265-.582,1.886l-5.738-1.336a24.428,24.428,0,0,0,.8-2.632l5.519,2.082Zm-2.527,6.456c-.3.574-.617,1.156-.953,1.719l-5.343-2.5q.726-1.166,1.347-2.4l4.948,3.175Zm-3.8,5.78c-.414.5-.844,1-1.293,1.476l-4.7-3.542a27.051,27.051,0,0,0,1.8-2.078l4.187,4.144Zm-4.926,4.866c-.511.41-1.035.808-1.574,1.183l-3.859-4.441c.758-.523,1.492-1.074,2.2-1.664l3.23,4.921Zm-5.819,3.742c-.586.3-1.176.578-1.785.836l-2.859-5.156a26.945,26.945,0,0,0,2.5-1.16l2.148,5.48Zm-6.483,2.449c-.633.164-1.269.309-1.922.441l-1.715-5.64a25.674,25.674,0,0,0,2.683-.609l.953,5.808Zm-6.846,1.039c-.512.027-1.027.035-1.547.035h-.418l-.508-5.874c.3.016.617.02.933.02.605,0,1.207-.02,1.82-.063l-.281,5.882Zm-6.913-.395c-.652-.105-1.3-.23-1.933-.379l.719-5.847a25.778,25.778,0,0,0,2.711.527l-1.5,5.7Zm-6.679-1.832c-.613-.238-1.219-.492-1.812-.769l1.918-5.57a27.565,27.565,0,0,0,2.538,1.082l-2.644,5.257Zm-6.152-3.179c-.551-.367-1.086-.742-1.609-1.133l3.035-5.046q1.084.838,2.25,1.578l-3.675,4.6Zm-5.354-4.394q-.7-.7-1.34-1.437l4.015-4.308c.6.707,1.222,1.371,1.879,2.015l-4.554,3.73Zm-4.335-5.4c-.348-.559-.688-1.113-1-1.7l4.828-3.37a26.129,26.129,0,0,0,1.414,2.363l-5.238,2.7Zm-3.105-6.191c-.227-.605-.449-1.23-.648-1.859l5.429-2.3c.25.883.559,1.758.891,2.605l-5.671,1.55Zm-1.757-6.694c-.094-.652-.176-1.3-.231-1.957l5.777-1.125c.066.934.18,1.836.328,2.734l-5.874.348Zm-.32-6.921c.043-.656.1-1.308.176-1.961l5.886.1c-.125.914-.2,1.82-.238,2.742l-5.823-.883Zm1.117-6.835c.168-.633.367-1.262.574-1.879l5.742,1.328c-.313.859-.578,1.738-.809,2.636l-5.507-2.086Zm2.519-6.448c.3-.586.625-1.16.953-1.719l5.347,2.492a26.257,26.257,0,0,0-1.343,2.4l-4.956-3.175Zm3.808-5.784c.418-.508.847-1,1.293-1.484l4.7,3.539q-.95,1-1.813,2.086l-4.183-4.14Zm4.921-4.87c.511-.414,1.035-.8,1.57-1.187L534,418.885a25.813,25.813,0,0,0-2.2,1.656l-3.238-4.921Zm5.823-3.745c.59-.289,1.18-.57,1.785-.832l2.859,5.156a26.336,26.336,0,0,0-2.5,1.16l-2.148-5.483Zm6.484-2.445c.629-.172,1.269-.309,1.917-.441l1.715,5.632a25.844,25.844,0,0,0-2.679.621l-.953-5.812Z" transform="translate(-516.201 -408.355)" fill="#6f6f73" fill-rule="evenodd"/>
      </g>
      <g id="Grupo_84214" data-name="Grupo 84214" transform="translate(841.671 532.865)">
        <path id="Trazado_117816" data-name="Trazado 117816" d="M538.3,412.146a18.316,18.316,0,1,1-18.322,18.314A18.319,18.319,0,0,1,538.3,412.146Z" transform="translate(-519.977 -412.146)" fill="#efba27" fill-rule="evenodd"/>
      </g>
      <g id="Grupo_84215" data-name="Grupo 84215" transform="translate(844.865 536.056)">
        <path id="Trazado_117817" data-name="Trazado 117817" d="M535.922,412.963A15.125,15.125,0,1,1,520.8,428.086a15.117,15.117,0,0,1,15.127-15.123Z" transform="translate(-520.795 -412.963)" fill="#dd9f2e" fill-rule="evenodd"/>
      </g>
      <g id="Grupo_84216" data-name="Grupo 84216" transform="translate(853.696 544.891)">
        <path id="Trazado_117818" data-name="Trazado 117818" d="M529.36,415.225a6.288,6.288,0,1,1-6.3,6.288,6.282,6.282,0,0,1,6.3-6.288Z" transform="translate(-523.056 -415.225)" fill="#efba27" fill-rule="evenodd"/>
      </g>
      <g id="Grupo_84217" data-name="Grupo 84217" transform="translate(859.02 541.317)">
        <path id="Trazado_117819" data-name="Trazado 117819" d="M525.4,414.31a.974.974,0,1,1-.98.972.973.973,0,0,1,.98-.972Z" transform="translate(-524.419 -414.31)" fill="#ffdd10" fill-rule="evenodd"/>
      </g>
      <g id="Grupo_84218" data-name="Grupo 84218" transform="translate(853.79 543.013)">
        <path id="Trazado_117820" data-name="Trazado 117820" d="M523.479,414.927a.986.986,0,0,1,1.363.215.973.973,0,0,1-1.574,1.144.974.974,0,0,1,.211-1.359Z" transform="translate(-523.08 -414.744)" fill="#ffdd10" fill-rule="evenodd"/>
      </g>
      <g id="Grupo_84219" data-name="Grupo 84219" transform="translate(850.56 547.459)">
        <path id="Trazado_117821" data-name="Trazado 117821" d="M522.3,416.556a.974.974,0,1,1,.625,1.222.972.972,0,0,1-.625-1.222Z" transform="translate(-522.253 -415.882)" fill="#ffdd10" fill-rule="evenodd"/>
      </g>
      <g id="Grupo_84220" data-name="Grupo 84220" transform="translate(850.56 552.953)">
        <path id="Trazado_117822" data-name="Trazado 117822" d="M522.3,418.562a.973.973,0,1,1,1.226.629.985.985,0,0,1-1.226-.629Z" transform="translate(-522.253 -417.289)" fill="#ffdd10" fill-rule="evenodd"/>
      </g>
      <g id="Grupo_84221" data-name="Grupo 84221" transform="translate(853.789 557.401)">
        <path id="Trazado_117823" data-name="Trazado 117823" d="M523.479,420.185a.973.973,0,1,1,1.355-.219.963.963,0,0,1-1.355.219Z" transform="translate(-523.08 -418.428)" fill="#ffdd10" fill-rule="evenodd"/>
      </g>
      <g id="Grupo_84222" data-name="Grupo 84222" transform="translate(859.02 559.1)">
        <path id="Trazado_117824" data-name="Trazado 117824" d="M525.384,420.808a.973.973,0,0,1,0-1.945.973.973,0,1,1,0,1.945Z" transform="translate(-524.419 -418.863)" fill="#ffdd10" fill-rule="evenodd"/>
      </g>
      <g id="Grupo_84223" data-name="Grupo 84223" transform="translate(864.245 557.403)">
        <path id="Trazado_117825" data-name="Trazado 117825" d="M527.3,420.184a.963.963,0,0,1-1.355-.219.97.97,0,1,1,1.355.219Z" transform="translate(-525.757 -418.429)" fill="#ffdd10" fill-rule="evenodd"/>
      </g>
      <g id="Grupo_84224" data-name="Grupo 84224" transform="translate(867.468 552.96)">
        <path id="Trazado_117826" data-name="Trazado 117826" d="M528.483,418.561a.974.974,0,1,1-.632-1.222.969.969,0,0,1,.632,1.222Z" transform="translate(-526.582 -417.291)" fill="#ffdd10" fill-rule="evenodd"/>
      </g>
      <g id="Grupo_84225" data-name="Grupo 84225" transform="translate(867.472 547.461)">
        <path id="Trazado_117827" data-name="Trazado 117827" d="M528.481,416.558a.971.971,0,1,1-1.222-.625.972.972,0,0,1,1.222.625Z" transform="translate(-526.583 -415.883)" fill="#ffdd10" fill-rule="evenodd"/>
      </g>
      <g id="Grupo_84226" data-name="Grupo 84226" transform="translate(864.245 543.015)">
        <path id="Trazado_117828" data-name="Trazado 117828" d="M527.3,414.926a.984.984,0,0,1,.219,1.367.973.973,0,0,1-1.359.2.96.96,0,0,1-.219-1.347.979.979,0,0,1,1.359-.223Z" transform="translate(-525.757 -414.745)" fill="#ffdd10" fill-rule="evenodd"/>
      </g>
      <g id="Grupo_84227" data-name="Grupo 84227" transform="translate(653.315 521.676)">
        <path id="Trazado_117829" data-name="Trazado 117829" d="M487.815,409.281a16.07,16.07,0,1,1-16.064,16.068,16.073,16.073,0,0,1,16.064-16.068Z" transform="translate(-471.751 -409.281)" fill="#808185" fill-rule="evenodd"/>
      </g>
      <g id="Grupo_84228" data-name="Grupo 84228" transform="translate(588.051 495.05)">
        <path id="Trazado_117830" data-name="Trazado 117830" d="M455.041,402.464H568.733v8.971H455.041v-8.971Z" transform="translate(-455.041 -402.464)" fill="#d1d3d4" fill-rule="evenodd"/>
      </g>
      <g id="Grupo_84229" data-name="Grupo 84229" transform="translate(585.31 493.316)">
        <path id="Trazado_117831" data-name="Trazado 117831" d="M455.355,402.02h1.265a1.009,1.009,0,0,1,1.012,1v10.428a1.014,1.014,0,0,1-1.012,1.011h-1.265a1.015,1.015,0,0,1-1.016-1.011V403.02a1.01,1.01,0,0,1,1.016-1Z" transform="translate(-454.339 -402.02)" fill="#d1d3d4" fill-rule="evenodd"/>
      </g>
      <g id="Grupo_84230" data-name="Grupo 84230" transform="translate(701.742 493.316)">
        <path id="Trazado_117832" data-name="Trazado 117832" d="M485.154,402.02h1.277a1.009,1.009,0,0,1,1.012,1v10.428a1.014,1.014,0,0,1-1.012,1.011h-1.277a1.008,1.008,0,0,1-1-1.011V403.02a1,1,0,0,1,1-1Z" transform="translate(-484.15 -402.02)" fill="#d1d3d4" fill-rule="evenodd"/>
      </g>
      <g id="Grupo_84231" data-name="Grupo 84231" transform="translate(710.886 495.05)">
        <path id="Trazado_117833" data-name="Trazado 117833" d="M486.491,402.464H600.179v8.971H486.491v-8.971Z" transform="translate(-486.491 -402.464)" fill="#d1d3d4" fill-rule="evenodd"/>
      </g>
      <g id="Grupo_84232" data-name="Grupo 84232" transform="translate(708.139 493.316)">
        <path id="Trazado_117834" data-name="Trazado 117834" d="M486.8,402.02h1.277a1,1,0,0,1,1,1v10.428a1,1,0,0,1-1,1.011H486.8a1.014,1.014,0,0,1-1.012-1.011V403.02a1.009,1.009,0,0,1,1.012-1Z" transform="translate(-485.788 -402.02)" fill="#d1d3d4" fill-rule="evenodd"/>
      </g>
      <g id="Grupo_84233" data-name="Grupo 84233" transform="translate(824.575 493.316)">
        <path id="Trazado_117835" data-name="Trazado 117835" d="M516.6,402.02h1.277a1.009,1.009,0,0,1,1.012,1v10.428a1.014,1.014,0,0,1-1.012,1.011H516.6a1,1,0,0,1-1-1.011V403.02a1,1,0,0,1,1-1Z" transform="translate(-515.6 -402.02)" fill="#d1d3d4" fill-rule="evenodd"/>
      </g>
      <g id="Grupo_84234" data-name="Grupo 84234" transform="translate(833.282 495.05)">
        <path id="Trazado_117836" data-name="Trazado 117836" d="M517.829,402.464H631.513v8.971H517.829v-8.971Z" transform="translate(-517.829 -402.464)" fill="#d1d3d4" fill-rule="evenodd"/>
      </g>
      <g id="Grupo_84235" data-name="Grupo 84235" transform="translate(830.543 493.316)">
        <path id="Trazado_117837" data-name="Trazado 117837" d="M518.136,402.02h1.277a1.008,1.008,0,0,1,1,1v10.428a1.012,1.012,0,0,1-1,1.011h-1.277a1.006,1.006,0,0,1-1.008-1.011V403.02a1,1,0,0,1,1.008-1Z" transform="translate(-517.128 -402.02)" fill="#d1d3d4" fill-rule="evenodd"/>
      </g>
      <g id="Grupo_84236" data-name="Grupo 84236" transform="translate(946.964 493.316)">
        <path id="Trazado_117838" data-name="Trazado 117838" d="M547.948,402.02h1.277a1,1,0,0,1,1,1v10.428a1,1,0,0,1-1,1.011h-1.277a1.017,1.017,0,0,1-1.012-1.011V403.02a1.012,1.012,0,0,1,1.012-1Z" transform="translate(-546.936 -402.02)" fill="#d1d3d4" fill-rule="evenodd"/>
      </g>
      <g id="Grupo_84237" data-name="Grupo 84237" transform="translate(736.582 505.756)">
        <path id="Trazado_117839" data-name="Trazado 117839" d="M515.65,405.205,497.56,417.586,493.07,450.2h7.014l4.668-28.744,14.105-10.054H642.55l14.1,10.054-.119,28.744h7.014l.3-32.619-17.969-12.3v-.076H515.65Z" transform="translate(-493.07 -405.205)" fill="#d1d3d4" fill-rule="evenodd"/>
      </g>
      <g id="Grupo_84238" data-name="Grupo 84238" transform="translate(907.36 514.126)">
        <path id="Trazado_117840" data-name="Trazado 117840" d="M539.018,407.348h30.937a2.234,2.234,0,0,1,2.226,2.23v32.21a2.226,2.226,0,0,1-2.226,2.219H539.018a2.225,2.225,0,0,1-2.222-2.219v-32.21a2.233,2.233,0,0,1,2.222-2.23Z" transform="translate(-536.796 -407.348)" fill="#808185" fill-rule="evenodd"/>
      </g>
      <g id="Grupo_84239" data-name="Grupo 84239" transform="translate(958.943 379.173)">
        <path id="Trazado_117841" data-name="Trazado 117841" d="M580.393,460.852H568.61v-1.012h11.783Zm1.019-32.628-11.928-.035.008-1.012,11.924.031ZM562.8,397.487l-.414-.922,9.479-4.363.414.914Zm-11.783-16.63H550V372.8h1.012Z" transform="translate(-550.003 -372.795)" fill="#221e20"/>
      </g>
      <g id="Grupo_84241" data-name="Grupo 84241" transform="translate(416.935 497.035)">
        <path id="Trazado_117843" data-name="Trazado 117843" d="M411.269,433.878h40.865c3.578-13.17,14.064-27.344,30.183-28.562l42.244-2.344c1.738,3.683,2.5,8.749,1.8,11.116l-31.691.187c-20.009.121-32.405,19.864-31.277,54.426H416.268c-2.945-3.245-5.382-16.158-5-34.823Z" transform="translate(-411.229 -402.972)" fill="#a6a8ab" fill-rule="evenodd"/>
      </g>
      <g id="Grupo_84242" data-name="Grupo 84242" transform="translate(430.359 532.416)">
        <path id="Trazado_117844" data-name="Trazado 117844" d="M414.666,412.031l.484,4.538h26.121l.57-4.394-27.176-.144Zm1.2,9.807,1.3,10.292,21.446.031,1.762-10.323Z" transform="translate(-414.666 -412.031)" fill="#59595b" fill-rule="evenodd"/>
      </g>
      <g id="Grupo_84243" data-name="Grupo 84243" transform="translate(479.238 453.632)">
        <path id="Trazado_117845" data-name="Trazado 117845" d="M427.181,391.859h17.991V395.4H427.181v-3.543Z" transform="translate(-427.181 -391.859)" fill="#d1d3d4" fill-rule="evenodd"/>
      </g>
      <g id="Grupo_84244" data-name="Grupo 84244" transform="translate(960.529 523.763)">
        <path id="Trazado_117846" data-name="Trazado 117846" d="M555.864,409.815h-5.454v34.423h5.454V409.815Z" transform="translate(-550.409 -409.815)" fill="#424143" fill-rule="evenodd"/>
      </g>
      <g id="Grupo_84245" data-name="Grupo 84245" transform="translate(428.561 397.502)">
        <path id="Trazado_117847" data-name="Trazado 117847" d="M422.687,408.878l28.1-30.418,35.116-.972-50.157,54.269-15.185,2.3a5.354,5.354,0,0,1-5.152-2.113,5.29,5.29,0,0,1-.734-5.523l8.011-17.54Z" transform="translate(-414.206 -377.488)" fill="#d1e1e8" fill-rule="evenodd"/>
      </g>
      <g id="Grupo_84246" data-name="Grupo 84246" transform="translate(459.892 404.38)">
        <path id="Trazado_117848" data-name="Trazado 117848" d="M422.228,425.16l42.421-45.911L462.894,395.1l-25.68,27.8-14.986,2.266Z" transform="translate(-422.228 -379.249)" fill="#d1e1e8" fill-rule="evenodd"/>
      </g>
      <g id="Grupo_84247" data-name="Grupo 84247" transform="translate(437.847 395.971)">
        <path id="Trazado_117849" data-name="Trazado 117849" d="M419.075,377.1h.2a2.5,2.5,0,0,1,2.5,2.492V420.25a2.508,2.508,0,0,1-2.5,2.5h-.2a2.5,2.5,0,0,1-2.492-2.5V379.588a2.5,2.5,0,0,1,2.492-2.492Z" transform="translate(-416.583 -377.096)" fill="#808185" fill-rule="evenodd"/>
      </g>
    </g>
  </g>
</svg>
