<svg xmlns="http://www.w3.org/2000/svg" xmlns:xlink="http://www.w3.org/1999/xlink" width="325.776" height="94.941" viewBox="0 0 325.776 94.941">
  <defs>
    <linearGradient id="linear-gradient" x1="0.5" y1="0.073" x2="0.5" y2="0.941" gradientUnits="objectBoundingBox">
      <stop offset="0.014" stop-color="#f8c72c"/>
      <stop offset="0.278" stop-color="#f9bc24"/>
      <stop offset="0.732" stop-color="#fca00e"/>
      <stop offset="1" stop-color="#ff8d00"/>
    </linearGradient>
  </defs>
  <g id="Grupo_84058" data-name="Grupo 84058" transform="translate(-884.224 -1685)">
    <g id="Grupo_84046" data-name="Grupo 84046" transform="translate(-1097.876 1278.65)">
      <path id="Trazado_117653" data-name="Trazado 117653" d="M2035.655,417.5l-43.171,74.774a7.368,7.368,0,0,0,6.381,11.053h86.342a7.369,7.369,0,0,0,6.381-11.053L2048.418,417.5A7.368,7.368,0,0,0,2035.655,417.5Z" transform="translate(-7.374 -5.869)" fill="url(#linear-gradient)"/>
      <g id="Grupo_84045" data-name="Grupo 84045" transform="translate(1982.1 406.35)">
        <path id="Trazado_117654" data-name="Trazado 117654" d="M2075.23,500.568H1994.1a11.976,11.976,0,0,1-10.372-17.965l40.567-70.264a11.977,11.977,0,0,1,20.744,0L2085.6,482.6a11.976,11.976,0,0,1-10.372,17.965Zm-45.561-85.124L1989.1,485.708a5.767,5.767,0,0,0,4.995,8.65h81.134a5.767,5.767,0,0,0,4.994-8.65l-40.567-70.265a5.767,5.767,0,0,0-9.988,0Z" transform="translate(-1982.1 -406.35)"/>
      </g>
      <path id="Trazado_117655" data-name="Trazado 117655" d="M2174.426,547.36c-5.975-7.112-2.846-9.217-2.846-9.217s-7.859,2.411-3.5,12.07c3.613,8.01-2.189,10.095-2.189,10.095,1.058-7.1-2.765-11.6-5.911-16.459-4.282-6.615,0-11.85,0-11.85s-7.662,3.95-3.722,14.264c5.088,13.317-4.656,18.189-5.473,5.486a22.125,22.125,0,0,0-5.692,14.483,18.557,18.557,0,0,0,7.6,14.968h-6.98v5.109h34.774V581.2h-6.854C2183.028,574.92,2185.536,560.583,2174.426,547.36Zm-13.415,33.772c-.145-.017-.289-.036-.43-.057-6.65-1.028-11.192-7.535-10.126-14.505a15.041,15.041,0,0,1,2.1-5.607,4.948,4.948,0,0,0,3.722,3.133,4.776,4.776,0,0,0,4.2-1.6c1.542-1.642,2.369-4.229,2.411-7.317a11.26,11.26,0,0,1,.578,7.917l-1.327,4.281,4.391-.852a7.353,7.353,0,0,0,4.58-3.278c1.337-2.167,1.548-4.945.628-8.257a12.127,12.127,0,0,1-.33-1.564q.495,1.011,1.161,2.109c4.3,7.082,4.838,14.486,1.435,19.808a12.8,12.8,0,0,1-10.057,5.859h-2.14C2161.54,581.182,2161.276,581.163,2161.011,581.132Z" transform="translate(-128.044 -98.708)"/>
    </g>
    <g id="Grupo_84048" data-name="Grupo 84048" transform="translate(-359.007 1278.65)">
      <path id="Trazado_117656" data-name="Trazado 117656" d="M1407.51,417.5l-43.119,74.685a7.36,7.36,0,0,0,6.374,11.039H1457a7.36,7.36,0,0,0,6.374-11.039l-43.12-74.685A7.36,7.36,0,0,0,1407.51,417.5Z" transform="translate(-7.376 -5.871)" fill="url(#linear-gradient)"/>
      <g id="Grupo_84047" data-name="Grupo 84047" transform="translate(1354.007 406.35)">
        <path id="Trazado_117657" data-name="Trazado 117657" d="M1447.026,500.455h-81.037a11.962,11.962,0,0,1-10.36-17.944l40.518-70.18a11.962,11.962,0,0,1,20.719,0l40.518,70.18a11.962,11.962,0,0,1-10.359,17.944Zm-45.507-85.023L1361,485.613a5.76,5.76,0,0,0,4.988,8.639h81.037a5.76,5.76,0,0,0,4.988-8.639L1411.5,415.432a5.76,5.76,0,0,0-9.976,0Z" transform="translate(-1354.007 -406.35)"/>
      </g>
      <path id="Trazado_117658" data-name="Trazado 117658" d="M1511.041,560.6a16.411,16.411,0,0,0-11.41-4.585,16.557,16.557,0,0,0-8.218-22.981,12.836,12.836,0,0,1,2.785,20.082,14.349,14.349,0,0,0-18.3,0,12.836,12.836,0,0,1,2.785-20.082,16.557,16.557,0,0,0-8.218,22.982,16.524,16.524,0,0,0-15.09,22.469,12.8,12.8,0,0,1,15.333-15.567c-.041.442-.064.889-.064,1.341a14.458,14.458,0,0,0,9.693,13.641,12.789,12.789,0,0,1-16.161,9.8,16.5,16.5,0,0,0,21.026-7.145,16.506,16.506,0,0,0,21.026,7.145,12.788,12.788,0,0,1-16.18-9.9,14.46,14.46,0,0,0,9.4-13.539c0-.427-.022-.849-.059-1.267a12.806,12.806,0,0,1,15.638,15.493A16.565,16.565,0,0,0,1511.041,560.6Zm-19.061-5.667a12.753,12.753,0,0,1-13.861,0,11.56,11.56,0,0,1,13.861,0Zm-6.93,13.777a4.451,4.451,0,1,1,4.44-4.451A4.446,4.446,0,0,1,1485.05,568.715Zm-11.605-4.451c0-.121.006-.241.009-.361a12.832,12.832,0,0,1,7.126,11.1A11.651,11.651,0,0,1,1473.444,564.263Zm23.211,0a11.648,11.648,0,0,1-6.818,10.593,12.809,12.809,0,0,1,6.812-10.794C1496.651,564.13,1496.655,564.2,1496.655,564.263Z" transform="translate(-78.8 -99.558)"/>
    </g>
    <g id="Grupo_84057" data-name="Grupo 84057" transform="translate(-249.007 692.445)">
      <path id="Trazado_117659" data-name="Trazado 117659" d="M1407.51,1004.542l-43.119,74.685a7.359,7.359,0,0,0,6.373,11.039H1457a7.36,7.36,0,0,0,6.374-11.039l-43.12-74.685A7.359,7.359,0,0,0,1407.51,1004.542Z" transform="translate(-7.376 -5.872)" fill="url(#linear-gradient)"/>
      <g id="Grupo_84049" data-name="Grupo 84049" transform="translate(1354.007 993.39)">
        <path id="Trazado_117660" data-name="Trazado 117660" d="M1447.026,1087.5h-81.037a11.962,11.962,0,0,1-10.36-17.944l40.518-70.18a11.962,11.962,0,0,1,20.719,0l40.518,70.18a11.962,11.962,0,0,1-10.359,17.944Zm-40.518-87.9a5.7,5.7,0,0,0-4.988,2.88L1361,1072.653a5.76,5.76,0,0,0,4.988,8.64h81.037a5.76,5.76,0,0,0,4.988-8.64l-40.518-70.18A5.7,5.7,0,0,0,1406.507,999.593Z" transform="translate(-1354.007 -993.39)"/>
      </g>
      <g id="Grupo_84056" data-name="Grupo 84056" transform="translate(1379.841 1021.25)">
        <g id="Grupo_84052" data-name="Grupo 84052" transform="translate(0 27.487)">
          <path id="Trazado_117661" data-name="Trazado 117661" d="M1540.068,1270.048l-45.733,17.335-1.952-5.173,45.733-17.335Z" transform="translate(-1488.583 -1262.083)"/>
          <g id="Grupo_84050" data-name="Grupo 84050" transform="translate(0 16.789)">
            <path id="Trazado_117662" data-name="Trazado 117662" d="M1481.908,1332.671a3.756,3.756,0,1,1-4.841-2.189A3.766,3.766,0,0,1,1481.908,1332.671Z" transform="translate(-1474.64 -1330.237)"/>
            <ellipse id="Elipse_4829" data-name="Elipse 4829" cx="2.816" cy="2.823" rx="2.816" ry="2.823" transform="translate(3.242 5.025) rotate(-0.243)"/>
          </g>
          <g id="Grupo_84051" data-name="Grupo 84051" transform="translate(45.059)">
            <path id="Trazado_117663" data-name="Trazado 117663" d="M1691.711,1271.552a3.756,3.756,0,1,1,4.841,2.19A3.766,3.766,0,0,1,1691.711,1271.552Z" transform="translate(-1690.092 -1263.326)"/>
            <path id="Trazado_117664" data-name="Trazado 117664" d="M1685.228,1255.663a2.817,2.817,0,1,1,3.631,1.642A2.825,2.825,0,0,1,1685.228,1255.663Z" transform="translate(-1685.045 -1251.84)"/>
          </g>
        </g>
        <g id="Grupo_84055" data-name="Grupo 84055" transform="translate(1.226 27.331)">
          <path id="Trazado_117665" data-name="Trazado 117665" d="M1536.288,1289.5l-45.86-17,1.913-5.188,45.86,17Z" transform="translate(-1488.273 -1263.848)"/>
          <g id="Grupo_84053" data-name="Grupo 84053">
            <path id="Trazado_117666" data-name="Trazado 117666" d="M1487.642,1256.18a3.756,3.756,0,1,1-2.22-4.836A3.752,3.752,0,0,1,1487.642,1256.18Z" transform="translate(-1480.363 -1251.109)"/>
            <path id="Trazado_117667" data-name="Trazado 117667" d="M1485.919,1280.761a2.817,2.817,0,1,1-1.665-3.627A2.815,2.815,0,0,1,1485.919,1280.761Z" transform="translate(-1480.439 -1271.423)"/>
          </g>
          <g id="Grupo_84054" data-name="Grupo 84054" transform="translate(43.982 16.578)">
            <path id="Trazado_117668" data-name="Trazado 117668" d="M1685.977,1348.04a3.756,3.756,0,1,1,2.22,4.836A3.752,3.752,0,0,1,1685.977,1348.04Z" transform="translate(-1685.743 -1341.927)"/>
            <path id="Trazado_117669" data-name="Trazado 117669" d="M1694.591,1330.367a2.817,2.817,0,1,1,1.665,3.627A2.814,2.814,0,0,1,1694.591,1330.367Z" transform="translate(-1692.558 -1328.522)"/>
          </g>
        </g>
        <path id="Trazado_117670" data-name="Trazado 117670" d="M1552.537,1123.486h0a13.111,13.111,0,0,0-13.1,13.127v6.947a4.516,4.516,0,0,0,2.546,4.066,4.516,4.516,0,0,1,2.518,3.562l.419,1.963a3.4,3.4,0,0,0,2.586,2.957,22.961,22.961,0,0,0,9.985-.043,3.425,3.425,0,0,0,2.662-2.978l.412-1.9a4.515,4.515,0,0,1,2.518-3.562,4.516,4.516,0,0,0,2.546-4.066v-6.947A13.111,13.111,0,0,0,1552.537,1123.486Zm-5.649,22.565a4.741,4.741,0,1,1,4.708-4.74A4.724,4.724,0,0,1,1546.888,1146.051Zm7.328,3.275a5.883,5.883,0,0,0-3.443,0,.743.743,0,0,1-.642-1.115l1.721-2.989a.741.741,0,0,1,1.284,0l1.722,2.989A.743.743,0,0,1,1554.216,1149.326Zm4.355-3.275a4.741,4.741,0,1,1,4.707-4.74A4.724,4.724,0,0,1,1558.572,1146.051Z" transform="translate(-1525.565 -1123.486)"/>
      </g>
    </g>
  </g>
</svg>
