<svg xmlns="http://www.w3.org/2000/svg" width="85" height="85" viewBox="0 0 85 85">
  <g id="Grupo_84257" data-name="Grupo 84257" transform="translate(-515 -5288)">
    <rect id="Rectángulo_34570" data-name="Rectángulo 34570" width="85" height="85" transform="translate(515 5288)" fill="none"/>
    <g id="radiacion" transform="translate(521 5293.973)">
      <g id="Grupo_84255" data-name="Grupo 84255" transform="translate(0 0.027)">
        <g id="Grupo_84254" data-name="Grupo 84254" transform="translate(0 0)">
          <g id="Grupo_84252" data-name="Grupo 84252" transform="translate(1.925 1.872)">
            <circle id="Elipse_4830" data-name="Elipse 4830" cx="34.5" cy="34.5" r="34.5" transform="translate(0.132 0.129)" fill="#e9c46a"/>
            <g id="Grupo_84251" data-name="Grupo 84251" transform="translate(6.573 6.404)">
              <circle id="Elipse_4831" data-name="Elipse 4831" cx="5.612" cy="5.612" r="5.612" transform="translate(22.423 22.565)" fill="#264653"/>
              <path id="Trazado_117862" data-name="Trazado 117862" d="M57.194,67.406c0-.055.008-.109.008-.164H40.25v.019A28.036,28.036,0,0,0,54.256,91.536L62.673,76.96A11.076,11.076,0,0,1,57.194,67.406ZM68.285,39.227a27.894,27.894,0,0,0-14.01,3.75l8.538,14.786a11.046,11.046,0,0,1,10.944,0L82.3,42.977A27.892,27.892,0,0,0,68.285,39.227Zm11.083,28.01c0,.055.008.109.008.164a11.076,11.076,0,0,1-5.48,9.556l8.417,14.576A28.035,28.035,0,0,0,96.321,67.26v-.023Z" transform="translate(-40.25 -39.227)" fill="#264653"/>
            </g>
          </g>
          <g id="Grupo_84253" data-name="Grupo 84253">
            <path id="Trazado_117863" data-name="Trazado 117863" d="M39.228,60.578a1.473,1.473,0,0,0,1.142-.54q.318-.38.647-.76a1.478,1.478,0,0,0-2.183-1.992l-.044.05q-.357.409-.7.829a1.477,1.477,0,0,0,1.141,2.416Z" transform="translate(-29.78 -44.818)" fill="#2c292a"/>
            <path id="Trazado_117864" data-name="Trazado 117864" d="M65.541,14.357c-.648-.844-1.341-1.671-2.063-2.459s-1.484-1.552-2.272-2.276-1.611-1.415-2.464-2.071A36.534,36.534,0,0,0,14.527,7.4,1.478,1.478,0,1,0,16.31,9.756,33.576,33.576,0,0,1,56.942,9.9c.785.6,1.548,1.242,2.267,1.9s1.428,1.368,2.089,2.092,1.3,1.485,1.9,2.261A33.563,33.563,0,1,1,7.16,20.287a1.478,1.478,0,0,0-2.585-1.436,36.525,36.525,0,1,0,60.969-4.5Z" transform="translate(0 -0.027)" fill="#2c292a"/>
            <path id="Trazado_117865" data-name="Trazado 117865" d="M153.637,146.2a7.093,7.093,0,1,0-7.093,7.093A7.093,7.093,0,0,0,153.637,146.2Zm-7.093,4.138a4.138,4.138,0,1,1,4.138-4.138A4.138,4.138,0,0,1,146.543,150.338Z" transform="translate(-110.011 -109.746)" fill="#2c292a"/>
            <path id="Trazado_117866" data-name="Trazado 117866" d="M47.992,191.99a1.477,1.477,0,0,0,2.018-.537v0l8.417-14.576a1.477,1.477,0,0,0-.53-2.012,9.658,9.658,0,0,1-4.75-8.281v.008c0-.019.006-.108.007-.128a1.477,1.477,0,0,0-1.433-1.519h-17a1.5,1.5,0,0,0-1.478,1.5,29.635,29.635,0,0,0,14.742,25.55Zm2.273-24.1a12.647,12.647,0,0,0,4.917,8.7l-6.968,12.064a26.7,26.7,0,0,1-11.967-20.761Z" transform="translate(-26.23 -130.127)" fill="#2c292a"/>
            <path id="Trazado_117867" data-name="Trazado 117867" d="M129.924,36.172a29.518,29.518,0,0,0-29.5,0,1.478,1.478,0,0,0-.54,2.018l8.534,14.786a1.48,1.48,0,0,0,2.011.546,9.72,9.72,0,0,1,9.483,0,1.477,1.477,0,0,0,2.016-.545v0l8.537-14.786a1.478,1.478,0,0,0-.543-2.018ZM120.058,50.3a12.5,12.5,0,0,0-9.767,0L103.2,38.028a26.573,26.573,0,0,1,23.942,0Z" transform="translate(-78.641 -25.426)" fill="#2c292a"/>
            <path id="Trazado_117868" data-name="Trazado 117868" d="M201.251,191.423a1.478,1.478,0,0,0,2.019.54h0a29.64,29.64,0,0,0,14.739-25.577,1.478,1.478,0,0,0-1.478-1.478h-16.95a1.478,1.478,0,0,0-1.478,1.478c0,.008,0,.015,0,.023,0,.028.007.113.008.141a9.658,9.658,0,0,1-4.751,8.282,1.477,1.477,0,0,0-.53,2.012ZM201,167.863h14.018a26.685,26.685,0,0,1-11.967,20.764l-6.967-12.065a12.647,12.647,0,0,0,4.915-8.7Z" transform="translate(-151.967 -130.099)" fill="#2c292a"/>
          </g>
        </g>
      </g>
    </g>
  </g>
</svg>
