<svg xmlns="http://www.w3.org/2000/svg" width="85" height="85" viewBox="0 0 85 85">
  <g id="Grupo_84370" data-name="Grupo 84370" transform="translate(-1149 -5024)">
    <rect id="Rectángulo_34572" data-name="Rectángulo 34572" width="85" height="85" transform="translate(1149 5024)" fill="none"/>
    <g id="peligro-biologico" transform="translate(1156 5005.929)">
      <g id="Grupo_84269" data-name="Grupo 84269" transform="translate(1.036 31.105)">
        <path id="Trazado_117887" data-name="Trazado 117887" d="M92.583,103.854,62.51,51.98l-4.459,1.079L27.893,105.3l2.069,3.583.116-.45,5.1,1.31h54.02A3.919,3.919,0,0,0,92.583,103.854Z" transform="translate(-25.083 -49.993)" fill="#aa9ea9"/>
        <path id="Trazado_117888" data-name="Trazado 117888" d="M17.506,91.432l28.755-49.6-1.319-2.275-.02-.034a3.919,3.919,0,0,0-6.78,0L8.05,91.432a3.919,3.919,0,0,0,3.39,5.884H20.9A3.919,3.919,0,0,1,17.506,91.432Z" transform="translate(-7.515 -37.571)" fill="#9b8e99"/>
        <path id="Trazado_117889" data-name="Trazado 117889" d="M101.717,123.637,73.026,74.147a.446.446,0,0,0-.77,0L43.507,123.944a.382.382,0,0,0,.311.577h57.389a.589.589,0,0,0,.51-.884Z" transform="translate(-38.499 -68.914)" fill="#fee97d"/>
        <path id="Trazado_117890" data-name="Trazado 117890" d="M73.026,74.147a.446.446,0,0,0-.77,0L43.507,123.944a.383.383,0,0,0,.311.577h4.144a3.9,3.9,0,0,1,.528-1.747L74.853,77.3Z" transform="translate(-38.499 -68.914)" fill="#fedf30"/>
      </g>
      <g id="Grupo_84270" data-name="Grupo 84270" transform="translate(0 30.071)">
        <path id="Trazado_117891" data-name="Trazado 117891" d="M69.431,84.448,50.378,51.582a1.034,1.034,0,1,0-1.79,1.037L67.642,85.485a2.884,2.884,0,0,1-2.5,4.331H4.961a2.884,2.884,0,0,1-2.5-4.331L32.558,33.577a2.884,2.884,0,0,1,4.991,0l8.829,15.229a1.034,1.034,0,0,0,1.79-1.037L39.339,32.54a4.953,4.953,0,0,0-8.57,0L.676,84.448A4.953,4.953,0,0,0,4.96,91.885H65.146a4.953,4.953,0,0,0,4.285-7.437Z" transform="translate(0 -30.071)"/>
        <path id="Trazado_117892" data-name="Trazado 117892" d="M54.765,164.528a1.034,1.034,0,1,0-1.79-1.037L31.363,200.77a1.034,1.034,0,0,0,.895,1.553H91.685a1.034,1.034,0,0,0,.895-1.553l-4.237-7.309a1.034,1.034,0,0,0-1.79,1.037l3.337,5.756H34.053Z" transform="translate(-26.918 -144.646)"/>
        <path id="Trazado_117893" data-name="Trazado 117893" d="M211.79,62.164a1.034,1.034,0,0,0-1.789,0l-5.89,10.16a1.034,1.034,0,1,0,1.79,1.037l5-8.617,22.371,38.587a1.034,1.034,0,0,0,1.79-1.038Z" transform="translate(-175.841 -57.293)"/>
        <path id="Trazado_117894" data-name="Trazado 117894" d="M163.966,207.289a1.034,1.034,0,0,0-1.01-1.805,7.554,7.554,0,0,0-3.2,9.714,8.263,8.263,0,0,0-.617,1.1,7.563,7.563,0,0,0-6.222,9.515,1.034,1.034,0,1,0,1.993-.553,5.5,5.5,0,0,1,3.55-6.686,8.265,8.265,0,0,0,5.652,9.068l-.045.046a5.5,5.5,0,0,1-5.39,1.375,1.034,1.034,0,1,0-.571,1.988,7.573,7.573,0,0,0,7.418-1.893,7.651,7.651,0,0,0,.935-1.123c.062,0,.124,0,.186,0,.118,0,.236,0,.353-.009a7.575,7.575,0,0,0,6.264,3.315,7.557,7.557,0,0,0,2.091-.295,1.034,1.034,0,0,0-.572-1.988,5.5,5.5,0,0,1-5.39-1.375c-.03-.029-.057-.06-.086-.09a8.274,8.274,0,0,0,5.517-9.081,5.5,5.5,0,0,1,3.727,6.742,1.034,1.034,0,1,0,1.993.553,7.56,7.56,0,0,0-6.4-9.536,8.276,8.276,0,0,0-.607-1.08,7.554,7.554,0,0,0-3.2-9.714,1.034,1.034,0,0,0-1.01,1.805,5.5,5.5,0,0,1,2.646,6.155,8.25,8.25,0,0,0-10.647,0,5.5,5.5,0,0,1,2.646-6.155Zm-3.526,12.48a6.2,6.2,0,0,1,.175-1.459,5.5,5.5,0,0,1,4.688,7.515A6.213,6.213,0,0,1,160.439,219.769Zm7.7,6.02a5.5,5.5,0,0,1,4.536-7.466,6.2,6.2,0,0,1-4.536,7.466Zm-1.5-12.223a6.184,6.184,0,0,1,4.387,1.822,5.487,5.487,0,0,1-8.775,0A6.184,6.184,0,0,1,166.643,213.566Z" transform="translate(-131.589 -181.179)"/>
        <path id="Trazado_117895" data-name="Trazado 117895" d="M248.752,121.014v-.889a1.034,1.034,0,1,0-2.069,0v.889a1.034,1.034,0,1,0,2.069,0Z" transform="translate(-212.663 -106.814)"/>
        <path id="Trazado_117896" data-name="Trazado 117896" d="M80.874,405.483a1.034,1.034,0,0,0,0,2.069h1.147a1.034,1.034,0,0,0,0-2.069Z" transform="translate(-68.829 -353.711)"/>
        <path id="Trazado_117897" data-name="Trazado 117897" d="M408.621,407.552a1.034,1.034,0,0,0,0-2.069h-1.147a1.034,1.034,0,0,0,0,2.069Z" transform="translate(-350.388 -353.711)"/>
      </g>
    </g>
  </g>
</svg>
