<svg xmlns="http://www.w3.org/2000/svg" width="85" height="85" viewBox="0 0 85 85">
  <g id="Grupo_84286" data-name="Grupo 84286" transform="translate(-204 -5504)">
    <rect id="Rectángulo_34571" data-name="Rectángulo 34571" width="85" height="85" transform="translate(204 5504)" fill="none"/>
    <g id="botiquin-medico" transform="translate(216 5512.947)">
      <g id="Grupo_84271" data-name="Grupo 84271" transform="translate(17.918 3.961)">
        <path id="Trazado_117898" data-name="Trazado 117898" d="M169.05,10.554h-11a10.1,10.1,0,0,0-10.084,10.081V21.5l2.072,1.539,2.651-1.539v-.865a5.376,5.376,0,0,1,5.362-5.358h11a5.374,5.374,0,0,1,5.362,5.358V21.5l2.121.794,2.6-.794v-.865A10.1,10.1,0,0,0,169.05,10.554Z" transform="translate(-147.964 -10.554)" fill="#ecdaec" fill-rule="evenodd"/>
      </g>
      <g id="Grupo_84272" data-name="Grupo 84272" transform="translate(15.288 14.907)">
        <path id="Trazado_117899" data-name="Trazado 117899" d="M133.6,100.944h-5.1a2.254,2.254,0,0,0-2.248,2.248v2.245l3.918,2.231,5.986-2.231v-2.245a2.251,2.251,0,0,0-2.245-2.248Z" transform="translate(-126.248 -100.944)" fill="#365e7d" fill-rule="evenodd"/>
      </g>
      <g id="Grupo_84273" data-name="Grupo 84273" transform="translate(41.813 14.907)">
        <path id="Trazado_117900" data-name="Trazado 117900" d="M355.2,103.191a2.254,2.254,0,0,0-2.248-2.248h-5.411a2.251,2.251,0,0,0-2.245,2.248v2.245l5.665,2.231,4.239-2.231Z" transform="translate(-345.294 -100.943)" fill="#365e7d" fill-rule="evenodd"/>
      </g>
      <g id="Grupo_84274" data-name="Grupo 84274" transform="translate(5.913 19.4)">
        <path id="Trazado_117901" data-name="Trazado 117901" d="M55.481,138.05a6.67,6.67,0,0,0-6.65,6.65v12.721c2.976,10.067,4.514,16.254,9.375,19.918H97.36a6.67,6.67,0,0,0,6.65-6.65V144.7a6.67,6.67,0,0,0-6.65-6.65H55.481Z" transform="translate(-48.831 -138.05)" fill="#ffd772" fill-rule="evenodd"/>
      </g>
      <g id="Grupo_84275" data-name="Grupo 84275" transform="translate(3.795 38.771)">
        <path id="Trazado_117902" data-name="Trazado 117902" d="M40.474,299.8a1.788,1.788,0,0,0-1.779-1.783H33.122a1.788,1.788,0,0,0-1.779,1.783v3.3h9.131v-3.3Z" transform="translate(-31.343 -298.018)" fill="#365e7d" fill-rule="evenodd"/>
      </g>
      <g id="Grupo_84276" data-name="Grupo 84276" transform="translate(0.908 43.851)">
        <path id="Trazado_117903" data-name="Trazado 117903" d="M21.88,342.324a2.368,2.368,0,0,0-2.361-2.361H9.861A2.368,2.368,0,0,0,7.5,342.324v14.832a2.368,2.368,0,0,0,2.361,2.361h9.657a2.368,2.368,0,0,0,2.361-2.361V342.324Z" transform="translate(-7.5 -339.963)" fill="#90d8f9" fill-rule="evenodd"/>
      </g>
      <g id="Grupo_84277" data-name="Grupo 84277" transform="translate(21.26 26.802)">
        <path id="Trazado_117904" data-name="Trazado 117904" d="M200.051,211.419A12.243,12.243,0,1,0,187.81,223.66,12.243,12.243,0,0,0,200.051,211.419Z" transform="translate(-175.566 -199.174)" fill="#f9f6f6" fill-rule="evenodd"/>
      </g>
      <g id="Grupo_84278" data-name="Grupo 84278" transform="translate(31.602 26.802)">
        <path id="Trazado_117905" data-name="Trazado 117905" d="M275.112,211.419a12.243,12.243,0,0,0-12.241-12.245,12.507,12.507,0,0,0-1.9.145,12.247,12.247,0,0,1,0,24.2,12.506,12.506,0,0,0,1.9.145A12.242,12.242,0,0,0,275.112,211.419Z" transform="translate(-260.969 -199.174)" fill="#ecdaec" fill-rule="evenodd"/>
      </g>
      <g id="Grupo_84279" data-name="Grupo 84279" transform="translate(27.546 33.089)">
        <path id="Trazado_117906" data-name="Trazado 117906" d="M238.25,254.421h-2.192v-2.192a1.144,1.144,0,0,0-1.14-1.14H231.95a1.144,1.144,0,0,0-1.14,1.14v2.192h-2.192a1.144,1.144,0,0,0-1.14,1.14v2.969a1.144,1.144,0,0,0,1.14,1.14h2.192v2.192a1.142,1.142,0,0,0,1.14,1.14h2.968a1.142,1.142,0,0,0,1.14-1.14V259.67h2.192a1.142,1.142,0,0,0,1.14-1.14v-2.969A1.142,1.142,0,0,0,238.25,254.421Z" transform="translate(-227.478 -251.089)" fill="#dd636e" fill-rule="evenodd"/>
      </g>
      <g id="Grupo_84280" data-name="Grupo 84280" transform="translate(47.919 19.4)">
        <path id="Trazado_117907" data-name="Trazado 117907" d="M408.893,144.7a6.67,6.67,0,0,0-6.65-6.65H395.72a6.761,6.761,0,0,1,1.168.106,6.664,6.664,0,0,1,5.478,6.544v25.989a6.67,6.67,0,0,1-6.646,6.65h6.523a6.67,6.67,0,0,0,6.65-6.65Z" transform="translate(-395.72 -138.05)" fill="#fdb440" fill-rule="evenodd"/>
      </g>
      <g id="Grupo_84281" data-name="Grupo 84281" transform="translate(19.146 14.907)">
        <path id="Trazado_117908" data-name="Trazado 117908" d="M164.153,103.191a2.251,2.251,0,0,0-2.245-2.248h-3.8a2.247,2.247,0,0,1,1.839.96,2.221,2.221,0,0,1,.409,1.288v2.245h3.8Z" transform="translate(-158.107 -100.943)" fill="#2b4d66" fill-rule="evenodd"/>
      </g>
      <g id="Grupo_84282" data-name="Grupo 84282" transform="translate(45.671 14.907)">
        <path id="Trazado_117909" data-name="Trazado 117909" d="M383.2,103.191a2.254,2.254,0,0,0-2.248-2.248h-3.8a2.253,2.253,0,0,1,2.248,2.248v2.245h3.8Z" transform="translate(-377.153 -100.943)" fill="#2b4d66" fill-rule="evenodd"/>
      </g>
      <g id="Grupo_84283" data-name="Grupo 84283" transform="translate(8.07 38.771)">
        <path id="Trazado_117910" data-name="Trazado 117910" d="M71.5,299.8a1.788,1.788,0,0,0-1.779-1.783H66.641A1.788,1.788,0,0,1,68.42,299.8v3.3H71.5v-3.3Z" transform="translate(-66.641 -298.018)" fill="#2b4d66" fill-rule="evenodd"/>
      </g>
      <g id="Grupo_84284" data-name="Grupo 84284" transform="translate(9.849 43.851)">
        <path id="Trazado_117911" data-name="Trazado 117911" d="M86.771,354.8V342.325a2.368,2.368,0,0,0-2.361-2.361H81.332a2.368,2.368,0,0,1,2.361,2.361v14.832a2.368,2.368,0,0,1-2.361,2.361H84.41a2.368,2.368,0,0,0,2.361-2.361V354.8Z" transform="translate(-81.332 -339.964)" fill="#75cef8" fill-rule="evenodd"/>
      </g>
      <g id="Grupo_84285" data-name="Grupo 84285" transform="translate(0 3.053)">
        <path id="Trazado_117912" data-name="Trazado 117912" d="M43.231,390.093h1.418v1.421a.908.908,0,0,0,1.816,0v-1.421h1.421a.908.908,0,0,0,0-1.816H46.465v-1.418a.908.908,0,0,0-1.816,0v1.418H43.231a.908.908,0,0,0,0,1.816Z" transform="translate(-37.198 -339.584)"/>
        <path id="Trazado_117913" data-name="Trazado 117913" d="M231.659,246.92h-1.284v-1.284a2.051,2.051,0,0,0-2.048-2.048h-2.968a2.051,2.051,0,0,0-2.048,2.048v1.284h-1.284a2.051,2.051,0,0,0-2.048,2.048v2.969a2.051,2.051,0,0,0,2.048,2.048h1.284v1.284a2.051,2.051,0,0,0,2.048,2.048h2.968a2.051,2.051,0,0,0,2.048-2.048v-1.284h1.284a2.051,2.051,0,0,0,2.048-2.048v-2.969A2.051,2.051,0,0,0,231.659,246.92Zm.232,5.017a.235.235,0,0,1-.232.232h-2.192a.908.908,0,0,0-.908.908v2.192a.235.235,0,0,1-.232.232h-2.968a.235.235,0,0,1-.232-.232v-2.192a.908.908,0,0,0-.908-.908h-2.192a.235.235,0,0,1-.232-.232v-2.968a.235.235,0,0,1,.232-.232h2.192a.908.908,0,0,0,.908-.908v-2.192a.235.235,0,0,1,.232-.232h2.968a.235.235,0,0,1,.232.232v2.192a.908.908,0,0,0,.908.908h2.192a.235.235,0,0,1,.232.232Z" transform="translate(-193.34 -214.461)"/>
        <path id="Trazado_117914" data-name="Trazado 117914" d="M194.367,204.828a13.151,13.151,0,1,0-13.149,13.149A13.166,13.166,0,0,0,194.367,204.828Zm-13.149,11.333a11.335,11.335,0,1,1,11.333-11.333A11.347,11.347,0,0,1,181.219,216.161Z" transform="translate(-147.714 -168.834)"/>
        <path id="Trazado_117915" data-name="Trazado 117915" d="M54.442,18.492H52.625V17.155A3.161,3.161,0,0,0,50,14.044h0A11,11,0,0,0,39,3.053H28A11,11,0,0,0,17.009,14.042h0a3.161,3.161,0,0,0-2.63,3.112v1.337H12.563A7.567,7.567,0,0,0,5.005,26.05V37.925a2.694,2.694,0,0,0-2.118,2.629v2.412A3.274,3.274,0,0,0,0,46.212V61.044a3.273,3.273,0,0,0,3.27,3.27h9.657a3.273,3.273,0,0,0,3.27-3.27V59.6H30.342a.908.908,0,0,0,0-1.816H16.2V46.212a3.275,3.275,0,0,0-2.361-3.14V40.554a2.692,2.692,0,0,0-2.687-2.691H6.821V26.05a5.748,5.748,0,0,1,5.742-5.742H30.342a.908.908,0,0,0,0-1.816H26.1V17.155a3.161,3.161,0,0,0-2.552-3.1v-.015A4.457,4.457,0,0,1,28,9.592H39a4.457,4.457,0,0,1,4.453,4.45v.015a3.161,3.161,0,0,0-2.552,3.1v1.339H34.884a.908.908,0,0,0,0,1.816l19.558,0a5.748,5.748,0,0,1,5.742,5.742V52.04a5.748,5.748,0,0,1-5.742,5.742H34.884a.908.908,0,0,0,0,1.816H54.442A7.567,7.567,0,0,0,62,52.04V26.05a7.567,7.567,0,0,0-7.558-7.558ZM14.38,46.212V61.044A1.455,1.455,0,0,1,12.927,62.5H3.27a1.455,1.455,0,0,1-1.453-1.453V46.212A1.455,1.455,0,0,1,3.27,44.759h9.657A1.455,1.455,0,0,1,14.38,46.212ZM11.148,39.68a.873.873,0,0,1,.871.874v2.389H4.7V40.554a.874.874,0,0,1,.871-.874ZM24.284,17.155v1.337H16.2V17.155a1.342,1.342,0,0,1,1.34-1.34h5.411a1.34,1.34,0,0,1,1.337,1.34ZM39,7.776H28A6.275,6.275,0,0,0,21.733,14H18.827A9.184,9.184,0,0,1,28,4.87H39A9.184,9.184,0,0,1,48.178,14H45.272A6.275,6.275,0,0,0,39,7.776Zm3.718,9.38a1.34,1.34,0,0,1,1.337-1.34h5.411a1.342,1.342,0,0,1,1.34,1.34v1.337H42.721Z" transform="translate(0 -3.053)"/>
      </g>
    </g>
  </g>
</svg>
