<svg xmlns="http://www.w3.org/2000/svg" width="85" height="85" viewBox="0 0 85 85">
  <g id="Grupo_84291" data-name="Grupo 84291" transform="translate(-834 -5504)">
    <rect id="Rectángulo_34571" data-name="Rectángulo 34571" width="85" height="85" transform="translate(834 5504)" fill="none"/>
    <g id="veneno" transform="translate(758.238 5510.793)">
      <path id="Trazado_117916" data-name="Trazado 117916" d="M132.484,42.248V37.954H117.469v4.294A11.484,11.484,0,0,1,110.6,52.762a11.484,11.484,0,0,0-6.865,10.514V96.2a6.827,6.827,0,0,0,6.827,6.827h28.82a6.827,6.827,0,0,0,6.827-6.827V63.276a11.484,11.484,0,0,0-6.865-10.514A11.484,11.484,0,0,1,132.484,42.248Z" transform="translate(-6.454 -32.66)" fill="#eff3f5"/>
      <path id="Trazado_117917" data-name="Trazado 117917" d="M285.013,52.762a11.484,11.484,0,0,1-6.865-10.514V37.954h-5.135v4.294a11.484,11.484,0,0,0,6.865,10.514,11.484,11.484,0,0,1,6.865,10.514V96.2a6.827,6.827,0,0,1-6.827,6.827h5.135a6.827,6.827,0,0,0,6.827-6.827V63.276A11.485,11.485,0,0,0,285.013,52.762Z" transform="translate(-152.118 -32.66)" fill="#c9e2e7"/>
      <path id="Trazado_117918" data-name="Trazado 117918" d="M145.532,191.572h-41.11a11.467,11.467,0,0,0-.682,3.9v32.924h42.475V195.467A11.465,11.465,0,0,0,145.532,191.572Z" transform="translate(-6.455 -164.852)" fill="#da4a54"/>
      <path id="Trazado_117919" data-name="Trazado 117919" d="M367.236,195.468v32.924h5.135V195.468a11.468,11.468,0,0,0-.682-3.9h-5.135A11.466,11.466,0,0,1,367.236,195.468Z" transform="translate(-232.611 -164.852)" fill="#c32430"/>
      <path id="Trazado_117920" data-name="Trazado 117920" d="M197.647,15.04H181.471a2.681,2.681,0,0,1-2.681-2.681V10.181A2.681,2.681,0,0,1,181.471,7.5h16.176a2.681,2.681,0,0,1,2.681,2.681v2.177A2.681,2.681,0,0,1,197.647,15.04Z" transform="translate(-71.037 -6.454)" fill="#557981"/>
      <path id="Trazado_117921" data-name="Trazado 117921" d="M160.026,244.922a3.005,3.005,0,0,1,.857-2.656L175.4,227.75a3.005,3.005,0,0,1,2.656-.857,2.676,2.676,0,1,0,.735-5.3,2.676,2.676,0,1,0-5.3.735,3.006,3.006,0,0,1-.857,2.656L158.122,239.5a3.005,3.005,0,0,1-2.656.857,2.676,2.676,0,1,0-.735,5.3,2.676,2.676,0,1,0,5.3-.735Z" transform="translate(-48.238 -188.594)" fill="#f2e7e4"/>
      <path id="Trazado_117922" data-name="Trazado 117922" d="M173.5,244.922a3.005,3.005,0,0,0-.857-2.656L158.123,227.75a3.005,3.005,0,0,0-2.656-.857,2.676,2.676,0,1,1-.735-5.3,2.676,2.676,0,1,1,5.3.735,3.006,3.006,0,0,0,.857,2.656L175.4,239.5a3.005,3.005,0,0,0,2.656.857,2.676,2.676,0,1,1,.735,5.3,2.676,2.676,0,1,1-5.3-.735Z" transform="translate(-48.239 -188.594)" fill="#f2e7e4"/>
      <path id="Trazado_117923" data-name="Trazado 117923" d="M219.2,278.276c-.827-.66-.213-.17.143-5.014a2.77,2.77,0,0,0-1.555-2.787l-1.769-.838a7.993,7.993,0,0,0-6.814-.014l-1.819.852a2.771,2.771,0,0,0-1.555,2.787c.358,4.874.968,4.354.144,5.013a1.117,1.117,0,0,0-.241,1.512l.872,1.256a1.256,1.256,0,0,0,1.16.489,1.139,1.139,0,0,1,1.122,1.335,2.1,2.1,0,0,0,2.088,2.324H214.2a2.1,2.1,0,0,0,2.088-2.324,1.139,1.139,0,0,1,1.122-1.335,1.257,1.257,0,0,0,1.16-.489l.835-1.2A1.16,1.16,0,0,0,219.2,278.276Z" transform="translate(-94.052 -231.367)" fill="#f9f5f5"/>
      <path id="Trazado_117924" data-name="Trazado 117924" d="M247.017,278.279c-.827-.66-.213-.17.143-5.014a2.77,2.77,0,0,0-1.555-2.787l-1.769-.838a7.993,7.993,0,0,0-5.962-.355,8,8,0,0,1,.885.355l1.769.838a2.771,2.771,0,0,1,1.555,2.787c-.3,4.466.443,6.383-1.071,7.656a2.256,2.256,0,0,1-.735.4c-.858.29-1.359.927-1.249,1.554a2.1,2.1,0,0,1-1.162,2.107,2.086,2.086,0,0,0,.926.217h3.224a2.1,2.1,0,0,0,2.088-2.324,1.139,1.139,0,0,1,1.122-1.335,1.257,1.257,0,0,0,1.16-.489l.835-1.2A1.16,1.16,0,0,0,247.017,278.279Z" transform="translate(-121.873 -231.37)" fill="#f2e7e4"/>
      <circle id="Elipse_4832" data-name="Elipse 4832" cx="1.046" cy="1.046" r="1.046" transform="translate(114.816 44.408)"/>
      <circle id="Elipse_4833" data-name="Elipse 4833" cx="1.046" cy="1.046" r="1.046" transform="translate(120.138 44.408)"/>
      <path id="Trazado_117925" data-name="Trazado 117925" d="M171.411,221.47a3.722,3.722,0,0,0,1.808-7.207,3.722,3.722,0,0,0-7.207,1.808,1.953,1.953,0,0,1-.568,1.726l-1.542,1.542a9,9,0,0,0-7.18.012l-1.554-1.554a1.953,1.953,0,0,1-.568-1.726,3.722,3.722,0,0,0-7.207-1.808,3.722,3.722,0,0,0,1.808,7.207,1.954,1.954,0,0,1,1.727.568l1.575,1.575a34.262,34.262,0,0,0,.532,4.634,2.181,2.181,0,0,0-.619,2.579l-1.487,1.487a1.954,1.954,0,0,1-1.727.568,3.722,3.722,0,0,0-1.808,7.207,3.722,3.722,0,0,0,7.207-1.807,1.953,1.953,0,0,1,.568-1.727l.928-.928a3.143,3.143,0,0,0,2.607,1.388h3.224a3.143,3.143,0,0,0,2.6-1.377l.917.917a1.953,1.953,0,0,1,.568,1.727,3.722,3.722,0,0,0,7.207,1.807,3.722,3.722,0,0,0-1.808-7.207,1.954,1.954,0,0,1-1.726-.567l-1.481-1.481a2.2,2.2,0,0,0-.609-2.586,34.155,34.155,0,0,0,.533-4.651l1.557-1.557A1.955,1.955,0,0,1,171.411,221.47Zm-19-.912a4.044,4.044,0,0,0-3.586-1.145,1.63,1.63,0,1,1-.45-3.225,1.046,1.046,0,0,0,.947-.947,1.63,1.63,0,1,1,3.225.45,4.045,4.045,0,0,0,1.146,3.586l1.013,1.013-.041.019a3.8,3.8,0,0,0-1.378,1.125Zm1.282,14.516a4.045,4.045,0,0,0-1.146,3.586,1.628,1.628,0,0,1-2.754,1.455,1.612,1.612,0,0,1-.471-1.006,1.046,1.046,0,0,0-.947-.947,1.612,1.612,0,0,1-1.005-.471,1.628,1.628,0,0,1,1.455-2.754,4.045,4.045,0,0,0,3.586-1.146l1.2-1.2a2.27,2.27,0,0,0,1.791.772Zm8.238-.153H158.7a1.053,1.053,0,0,1-1.05-1.143,2.185,2.185,0,0,0-2.159-2.517c-.078,0-.25.032-.3-.04l-.872-1.256c-.02-.028,0-.072.035-.1l.015-.012c.893-.714.867-1.182.682-2.2a34.863,34.863,0,0,1-.455-3.729c-.188-1.784,1.9-2.011,2.777-2.582a6.924,6.924,0,0,1,5.922.012c.781.514,2.917.808,2.731,2.57a34.765,34.765,0,0,1-.453,3.711c-.191,1.053-.2,1.509.7,2.229h0a.123.123,0,0,1,0,.15l-.835,1.2c-.044.063-.183.03-.351.04a2.185,2.185,0,0,0-2.109,2.516A1.053,1.053,0,0,1,161.927,234.922Zm9.864.017a1.628,1.628,0,0,1,1.455,2.754,1.612,1.612,0,0,1-1.005.471,1.046,1.046,0,0,0-.947.947,1.612,1.612,0,0,1-.471,1.005,1.628,1.628,0,0,1-2.754-1.455,4.045,4.045,0,0,0-1.146-3.587l-1.721-1.721a2.2,2.2,0,0,0,1.81-.753l1.193,1.193A4.044,4.044,0,0,0,171.791,234.938Zm-4.452-13.514a3.818,3.818,0,0,0-1.375-1.118l-.048-.022,1.007-1.007a4.045,4.045,0,0,0,1.146-3.586,1.63,1.63,0,1,1,3.225-.45,1.046,1.046,0,0,0,.947.947,1.63,1.63,0,1,1-.45,3.225,4.046,4.046,0,0,0-3.586,1.145Z" transform="translate(-41.784 -182.142)"/>
      <path id="Trazado_117926" data-name="Trazado 117926" d="M139.76,54.458a1.046,1.046,0,0,0,1.046-1.046v-22.8a12.533,12.533,0,0,0-7.49-11.472A10.44,10.44,0,0,1,127.077,9.6a3.732,3.732,0,0,0,3.261-3.7V3.728A3.732,3.732,0,0,0,126.61,0H110.435a3.732,3.732,0,0,0-3.728,3.728V5.9a3.732,3.732,0,0,0,3.261,3.7,10.44,10.44,0,0,1-6.239,9.542,12.533,12.533,0,0,0-7.49,11.472V63.54a7.882,7.882,0,0,0,7.874,7.873h28.82a7.882,7.882,0,0,0,7.874-7.873V58.311a1.046,1.046,0,1,0-2.092,0v4.183H98.331V30.616a10.425,10.425,0,0,1,.4-2.849h4.351a1.046,1.046,0,0,0,0-2.092h-3.5a10.432,10.432,0,0,1,4.993-4.615A12.533,12.533,0,0,0,112.06,9.632h12.925a12.533,12.533,0,0,0,7.489,11.427,10.433,10.433,0,0,1,4.994,4.615h-29.5a1.046,1.046,0,1,0,0,2.092h30.345a10.42,10.42,0,0,1,.4,2.849v22.8A1.046,1.046,0,0,0,139.76,54.458Zm-6.827,14.863h-28.82a5.79,5.79,0,0,1-5.685-4.735h40.189A5.79,5.79,0,0,1,132.932,69.322ZM108.8,5.9V3.728a1.637,1.637,0,0,1,1.635-1.635H126.61a1.637,1.637,0,0,1,1.635,1.635V5.9A1.637,1.637,0,0,1,126.61,7.54H110.435A1.637,1.637,0,0,1,108.8,5.9Z" transform="translate(0)"/>
    </g>
  </g>
</svg>
