<svg xmlns="http://www.w3.org/2000/svg" width="48.395" height="52.854" viewBox="0 0 48.395 52.854">
  <g id="Grupo_83855" data-name="Grupo 83855" transform="translate(-300 -507.146)">
    <g id="Grupo_83840" data-name="Grupo 83840" transform="translate(59.326 373.046)">
      <g id="Grupo_83837" data-name="Grupo 83837" transform="translate(251.907 134.101)">
        <g id="Grupo_83835" data-name="Grupo 83835">
          <path id="Trazado_117526" data-name="Trazado 117526" d="M275.439,186.954h-.009a.332.332,0,0,1-.307-.229,11.567,11.567,0,0,0-4.411-5.844c-2.617-1.528-8.566-5.637-10.517-8.253a.332.332,0,0,1,.531-.4c1.81,2.426,7.6,6.49,10.331,8.083l.023.014a12.357,12.357,0,0,1,4.376,5.38c1.127-2.532,2.413-3.374,4.588-4.8.716-.47,1.528-1,2.479-1.685.286-.206.593-.416.917-.638,4.586-3.145,12.25-8.4,13.178-34.825-6.154-1.49-14.663-4.23-20.969-8.91-2.162,1.7-9.645,6.027-11.451,7.046a.332.332,0,1,1-.326-.578c1.858-1.048,9.753-5.615,11.554-7.142a.332.332,0,0,1,.415-.012c6.324,4.774,15.017,7.536,21.2,9.013a.332.332,0,0,1,.254.334c-.392,11.837-2.136,20.574-5.33,26.71a22.428,22.428,0,0,1-8.146,8.91c-.319.219-.622.427-.9.63-.962.691-1.78,1.227-2.5,1.7-2.421,1.586-3.525,2.31-4.66,5.277A.331.331,0,0,1,275.439,186.954Z" transform="translate(-260.13 -134.101)"/>
        </g>
        <g id="Grupo_83836" data-name="Grupo 83836" transform="translate(5.57 4.35)">
          <path id="Trazado_117527" data-name="Trazado 117527" d="M278.343,182.7h-.007a.111.111,0,0,1-.083-.046,32.322,32.322,0,0,0-4.071-3,42.674,42.674,0,0,1-5.525-4.131.11.11,0,1,1,.168-.144,43,43,0,0,0,5.483,4.093,38.094,38.094,0,0,1,4.04,2.953,17.334,17.334,0,0,1,4.074-3.036c.5-.308,1.06-.657,1.71-1.068,8.841-5.585,10.952-14.51,11.9-30.064-7.7-1.852-13.384-4.228-17.377-7.264a25.428,25.428,0,0,1-4.308,2.611c-.382.2-.684.357-.856.457a.11.11,0,1,1-.11-.191c.176-.1.48-.261.864-.462a24.018,24.018,0,0,0,4.325-2.639.11.11,0,0,1,.144-.009c3.987,3.055,9.7,5.443,17.459,7.3a.11.11,0,0,1,.085.114c-.391,6.447-1.016,13.162-2.916,18.6a21.49,21.49,0,0,1-9.095,11.734c-.651.411-1.215.761-1.712,1.069a16.871,16.871,0,0,0-4.114,3.09A.11.11,0,0,1,278.343,182.7Z" transform="translate(-268.63 -140.74)"/>
        </g>
      </g>
    </g>
    <path id="Icon_awesome-car" data-name="Icon awesome-car" d="M28.32,10.844H24.929l-.943-2.356A6.312,6.312,0,0,0,18.1,4.5H10.9a6.313,6.313,0,0,0-5.89,3.988l-.943,2.356H.68a.679.679,0,0,0-.659.845l.34,1.359a.679.679,0,0,0,.659.515H2.157A3.6,3.6,0,0,0,.906,16.281V19a3.6,3.6,0,0,0,.906,2.375v3.063A1.813,1.813,0,0,0,3.625,26.25H5.438A1.813,1.813,0,0,0,7.25,24.438V22.625h14.5v1.813a1.813,1.813,0,0,0,1.813,1.813h1.813a1.813,1.813,0,0,0,1.813-1.813V21.375A3.593,3.593,0,0,0,28.094,19V16.281a3.6,3.6,0,0,0-1.25-2.719h1.137a.679.679,0,0,0,.659-.515l.34-1.359a.68.68,0,0,0-.66-.845ZM8.379,9.834A2.719,2.719,0,0,1,10.9,8.125H18.1a2.719,2.719,0,0,1,2.524,1.709l1.129,2.822H7.25L8.379,9.834ZM5.438,18.989a1.71,1.71,0,0,1-1.813-1.807,1.71,1.71,0,0,1,1.813-1.807,3.487,3.487,0,0,1,2.719,2.71C8.156,19.169,6.525,18.989,5.438,18.989Zm18.125,0c-1.088,0-2.719.181-2.719-.9a3.487,3.487,0,0,1,2.719-2.71,1.71,1.71,0,0,1,1.813,1.807,1.71,1.71,0,0,1-1.813,1.807Z" transform="translate(300 515.75)" fill="#f88f05"/>
  </g>
</svg>
