<svg xmlns="http://www.w3.org/2000/svg" width="51.121" height="52.854" viewBox="0 0 51.121 52.854">
  <g id="Grupo_84337" data-name="Grupo 84337" transform="translate(-348.524 9143.854)">
    <g id="Grupo_83854" data-name="Grupo 83854" transform="translate(110.576 -9277.954)">
      <g id="Grupo_83837" data-name="Grupo 83837" transform="translate(251.907 134.101)">
        <g id="Grupo_83835" data-name="Grupo 83835">
          <path id="Trazado_117526" data-name="Trazado 117526" d="M275.439,186.954h-.009a.332.332,0,0,1-.307-.229,11.567,11.567,0,0,0-4.411-5.844c-2.617-1.528-8.566-5.637-10.517-8.253a.332.332,0,0,1,.531-.4c1.81,2.426,7.6,6.49,10.331,8.083l.023.014a12.357,12.357,0,0,1,4.376,5.38c1.127-2.532,2.413-3.374,4.588-4.8.716-.47,1.528-1,2.479-1.685.286-.206.593-.416.917-.638,4.586-3.145,12.25-8.4,13.178-34.825-6.154-1.49-14.663-4.23-20.969-8.91-2.162,1.7-9.645,6.027-11.451,7.046a.332.332,0,1,1-.326-.578c1.858-1.048,9.753-5.615,11.554-7.142a.332.332,0,0,1,.415-.012c6.324,4.774,15.017,7.536,21.2,9.013a.332.332,0,0,1,.254.334c-.392,11.837-2.136,20.574-5.33,26.71a22.428,22.428,0,0,1-8.146,8.91c-.319.219-.622.427-.9.63-.962.691-1.78,1.227-2.5,1.7-2.421,1.586-3.525,2.31-4.66,5.277A.331.331,0,0,1,275.439,186.954Z" transform="translate(-260.13 -134.101)"/>
        </g>
        <g id="Grupo_83836" data-name="Grupo 83836" transform="translate(5.57 4.35)">
          <path id="Trazado_117527" data-name="Trazado 117527" d="M278.343,182.7h-.007a.111.111,0,0,1-.083-.046,32.322,32.322,0,0,0-4.071-3,42.674,42.674,0,0,1-5.525-4.131.11.11,0,1,1,.168-.144,43,43,0,0,0,5.483,4.093,38.094,38.094,0,0,1,4.04,2.953,17.334,17.334,0,0,1,4.074-3.036c.5-.308,1.06-.657,1.71-1.068,8.841-5.585,10.952-14.51,11.9-30.064-7.7-1.852-13.384-4.228-17.377-7.264a25.428,25.428,0,0,1-4.308,2.611c-.382.2-.684.357-.856.457a.11.11,0,1,1-.11-.191c.176-.1.48-.261.864-.462a24.018,24.018,0,0,0,4.325-2.639.11.11,0,0,1,.144-.009c3.987,3.055,9.7,5.443,17.459,7.3a.11.11,0,0,1,.085.114c-.391,6.447-1.016,13.162-2.916,18.6a21.49,21.49,0,0,1-9.095,11.734c-.651.411-1.215.761-1.712,1.069a16.871,16.871,0,0,0-4.114,3.09A.11.11,0,0,1,278.343,182.7Z" transform="translate(-268.63 -140.74)"/>
        </g>
      </g>
    </g>
    <path id="Icon_material-motorcycle" data-name="Icon material-motorcycle" d="M29.16,13.545,23.115,7.5H16.5v3h5.385l3,3H7.5a7.5,7.5,0,0,0,0,15,7.4,7.4,0,0,0,7.35-6h2.475l4.155-4.155A7.324,7.324,0,0,0,21,21a7.5,7.5,0,1,0,8.16-7.455ZM11.73,22.5a4.567,4.567,0,0,1-4.23,3,4.5,4.5,0,0,1,0-9,4.567,4.567,0,0,1,4.23,3H7.5v3Zm16.77,3A4.5,4.5,0,1,1,33,21,4.494,4.494,0,0,1,28.5,25.5Z" transform="translate(348.524 -9138.427)" fill="#f88f05"/>
  </g>
</svg>
