<svg xmlns="http://www.w3.org/2000/svg" width="111.56" height="124.715" viewBox="0 0 111.56 124.715">
  <g id="barrera-vial" transform="translate(-44 -19)">
    <g id="Grupo_84334" data-name="Grupo 84334" transform="translate(55.917 42.201)">
      <path id="Trazado_118000" data-name="Trazado 118000" d="M113.152,212.578h7.306v3.882h-7.306Z" transform="translate(-106.874 -184.847)" fill="#d3e9ed"/>
      <path id="Trazado_118001" data-name="Trazado 118001" d="M113.152,107.181h7.306v3.866h-7.306Z" transform="translate(-106.874 -107.181)" fill="#d3e9ed"/>
      <path id="Trazado_118002" data-name="Trazado 118002" d="M113.152,318.025h7.306v25.943h-7.306Z" transform="translate(-106.874 -262.549)" fill="#d3e9ed"/>
      <path id="Trazado_118003" data-name="Trazado 118003" d="M93.992,428.626h-4.7v4.09h19.861v-4.09H93.992Z" transform="translate(-89.293 -344.05)" fill="#d3e9ed"/>
      <path id="Trazado_118004" data-name="Trazado 118004" d="M371.081,318.025h7.306v25.943h-7.306Z" transform="translate(-296.939 -262.549)" fill="#d3e9ed"/>
      <path id="Trazado_118005" data-name="Trazado 118005" d="M371.081,107.181h7.306v3.866h-7.306Z" transform="translate(-296.939 -107.181)" fill="#d3e9ed"/>
      <path id="Trazado_118006" data-name="Trazado 118006" d="M371.081,212.578h7.306v3.882h-7.306Z" transform="translate(-296.939 -184.847)" fill="#d3e9ed"/>
      <path id="Trazado_118007" data-name="Trazado 118007" d="M367.083,428.626H347.222v4.09h19.861Z" transform="translate(-279.358 -344.05)" fill="#d3e9ed"/>
    </g>
    <path id="Trazado_118008" data-name="Trazado 118008" d="M424.32,175.124h8.335v-9.089Z" transform="translate(-280.253 -108.348)" fill="#ffa56a"/>
    <path id="Trazado_118009" data-name="Trazado 118009" d="M288.341,151.425l16.1-17.55H289.56l-16.1,17.55Z" transform="translate(-169.088 -84.65)" fill="#ffa56a"/>
    <path id="Trazado_118010" data-name="Trazado 118010" d="M64.258,133.875H56v9Z" transform="translate(-8.843 -84.65)" fill="#ffa56a"/>
    <path id="Trazado_118011" data-name="Trazado 118011" d="M120.523,151.425h15.425l16.1-17.55H136.62Z" transform="translate(-56.389 -84.65)" fill="#ffa56a"/>
    <path id="Trazado_118012" data-name="Trazado 118012" d="M136.489,256.88l16.091-17.548H137.155L121.064,256.88Z" transform="translate(-56.788 -162.361)" fill="#ffa56a"/>
    <path id="Trazado_118013" data-name="Trazado 118013" d="M64.4,239.333H56v9.156Z" transform="translate(-8.843 -162.361)" fill="#ffa56a"/>
    <path id="Trazado_118014" data-name="Trazado 118014" d="M424.861,281h8.193V272.07Z" transform="translate(-280.652 -186.484)" fill="#ffa56a"/>
    <path id="Trazado_118015" data-name="Trazado 118015" d="M304.972,239.333H290.093L274,256.88H288.88Z" transform="translate(-169.486 -162.361)" fill="#ffa56a"/>
    <path id="Trazado_118016" data-name="Trazado 118016" d="M105.729,88.851h4.22l-.578-2.26H91.6l-.578,2.26h14.707Z" transform="translate(-34.65 -49.807)" fill="#9eafb2"/>
    <path id="Trazado_118017" data-name="Trazado 118017" d="M114.571,42.469,112.8,31.817c-.095-.571-.4-.817-.481-.817h-9.289c-.083,0-.386.246-.481.817l-1.771,10.652Z" transform="translate(-41.838 -8.843)" fill="#ff586e"/>
    <path id="Trazado_118018" data-name="Trazado 118018" d="M363.725,88.851h4.244l-.579-2.26H349.62l-.578,2.26h14.683Z" transform="translate(-224.782 -49.807)" fill="#9eafb2"/>
    <path id="Trazado_118019" data-name="Trazado 118019" d="M372.591,42.469,370.82,31.817c-.1-.571-.4-.817-.481-.817H361.05c-.083,0-.386.246-.482.817L358.8,42.469Z" transform="translate(-231.97 -8.843)" fill="#ff586e"/>
    <path id="Trazado_118020" data-name="Trazado 118020" d="M195.433,151.425h16.246l16.1-17.55H211.529Z" transform="translate(-111.589 -84.65)" fill="#f4f3f6"/>
    <path id="Trazado_118021" data-name="Trazado 118021" d="M68.693,151.425l16.1-17.55H68.543L56,147.551v3.875Z" transform="translate(-8.843 -84.65)" fill="#f4f3f6"/>
    <path id="Trazado_118022" data-name="Trazado 118022" d="M362.388,133.875l-16.1,17.55h16.246l12.619-13.76v-3.79Z" transform="translate(-222.755 -84.65)" fill="#f4f3f6"/>
    <path id="Trazado_118023" data-name="Trazado 118023" d="M153.981,46.068H140.522V42.2h2.94a2.936,2.936,0,0,0,2.856-3.657l-.955-3.73a1.579,1.579,0,0,0-1.529-1.187h-.013l-1.857-11.17a3.818,3.818,0,0,0-3.6-3.457h-9.289a3.818,3.818,0,0,0-3.6,3.457l-1.857,11.17h-.013a1.579,1.579,0,0,0-1.529,1.187l-.955,3.73a2.936,2.936,0,0,0,2.856,3.657H126.9v3.866H72.658V42.2h2.917a2.936,2.936,0,0,0,2.856-3.657l-.955-3.73a1.579,1.579,0,0,0-1.529-1.187h-.013l-1.857-11.17A3.818,3.818,0,0,0,70.48,19H61.191a3.818,3.818,0,0,0-3.6,3.457l-1.857,11.17h-.013A1.579,1.579,0,0,0,54.2,34.814l-.955,3.731A2.936,2.936,0,0,0,56.1,42.2h2.94v3.866H45.579A1.579,1.579,0,0,0,44,47.646V68.354a1.579,1.579,0,0,0,1.579,1.579H59.037v3.882H45.579A1.579,1.579,0,0,0,44,75.394V96.1a1.579,1.579,0,0,0,1.579,1.579H59.037V123.62H55.654a2.9,2.9,0,0,0-2.894,2.894v4.616a2.9,2.9,0,0,0,2.894,2.894H76.041a2.9,2.9,0,0,0,2.894-2.894v-4.616a2.9,2.9,0,0,0-2.894-2.894H72.658V97.677H126.9V123.62h-3.383a2.9,2.9,0,0,0-2.894,2.894v4.616a2.9,2.9,0,0,0,2.894,2.894h20.387a2.9,2.9,0,0,0,2.894-2.894v-4.616a2.9,2.9,0,0,0-2.894-2.894h-3.383V97.677h13.459A1.579,1.579,0,0,0,155.56,96.1v-20.7a1.579,1.579,0,0,0-1.579-1.579H140.522V69.933h13.459a1.579,1.579,0,0,0,1.579-1.579V47.646a1.579,1.579,0,0,0-1.579-1.579ZM144.209,94.52l8.193-8.934V94.52ZM152.4,80.915,139.925,94.52H123.678L139.77,76.972H152.4Zm-28.621,45.863h19.861v4.09H123.781Zm6.278-3.157V97.677h7.306V123.62Zm-25.543-29.1,16.091-17.547h14.878L119.394,94.52ZM75.778,130.867H55.917v-4.09H75.778ZM62.195,123.62V97.677H69.5V123.62Zm-6.779-74.4-8.258,9v-9ZM47.157,62.9,59.7,49.225H75.946l-16.1,17.55H47.157ZM61.191,22.157H70.48c.083,0,.386.246.481.817l1.771,10.652H58.939L60.71,22.974c.095-.571.4-.817.481-.817ZM56.95,36.784H74.721l.578,2.26H56.372ZM69.5,42.2v3.866H62.195V42.2Zm65.848,7.023-16.1,17.55H104.375l16.1-17.55Zm-6.27-27.068h9.289c.083,0,.386.246.481.817l1.771,10.652H126.827L128.6,22.975c.1-.571.4-.817.482-.817Zm-4.241,14.627h17.771l.578,2.26H124.26ZM137.365,42.2v3.866h-7.306V42.2ZM152.4,53.015l-12.619,13.76H123.536l16.1-17.55H152.4ZM95.656,49.225l-16.1,17.55H64.134l16.1-17.55Zm24.258,24.59H72.658V69.933H126.9v3.882ZM69.5,69.933v3.882H62.195V69.933Zm60.559,3.882V69.933h7.306v3.882Zm-29.969-7.04H83.844l16.1-17.55h16.247Zm-44.537,10.2-8.4,9.156V76.972ZM47.157,90.8l12.68-13.828H76.084L59.992,94.52H47.157Zm17.119,3.72L80.368,76.972H95.793L79.7,94.52Zm19.709,0,16.091-17.547h16.247L100.233,94.52Zm60.081-27.745,8.335-9.089v9.089Z"/>
    <path id="Trazado_118024" data-name="Trazado 118024" d="M212.063,239.333,195.972,256.88h16.247l16.091-17.548Z" transform="translate(-111.986 -162.361)" fill="#f4f3f6"/>
    <path id="Trazado_118025" data-name="Trazado 118025" d="M68.835,256.88l16.091-17.548H68.68L56,253.161v3.72Z" transform="translate(-8.843 -162.361)" fill="#f4f3f6"/>
    <path id="Trazado_118026" data-name="Trazado 118026" d="M362.921,239.333,346.83,256.88h16.247l12.477-13.605v-3.942Z" transform="translate(-223.152 -162.361)" fill="#f4f3f6"/>
    <path id="Trazado_118027" data-name="Trazado 118027" d="M235.795,374.224l-9.414-29.751h-3.614l-9.414,29.751Z" transform="translate(-124.794 -239.837)" fill="#ffa56a"/>
    <path id="Trazado_118028" data-name="Trazado 118028" d="M218.677,469.548H190.246a4.423,4.423,0,0,0-4.187,3.013h36.8A4.423,4.423,0,0,0,218.677,469.548Z" transform="translate(-104.682 -332.003)" fill="#ffa56a"/>
    <path id="Trazado_118029" data-name="Trazado 118029" d="M209.515,365.39l-10.067-31.814a1.579,1.579,0,0,0-1.505-1.1h-5.927a1.579,1.579,0,0,0-1.5,1.1L180.444,365.39a7.581,7.581,0,0,0-7.252,7.564v.177a1.579,1.579,0,0,0,1.579,1.579h40.418a1.579,1.579,0,0,0,1.579-1.579v-.177A7.581,7.581,0,0,0,209.515,365.39Zm-28.751,3.149H209.2a4.423,4.423,0,0,1,4.187,3.013h-36.8A4.423,4.423,0,0,1,180.764,368.539Zm16.022-32.909,9.414,29.751H183.759l9.414-29.751Z" transform="translate(-95.2 -230.994)"/>
  </g>
</svg>
