<svg xmlns="http://www.w3.org/2000/svg" width="141" height="141" viewBox="0 0 141 141">
  <g id="Grupo_84331" data-name="Grupo 84331" transform="translate(-309 -568)">
    <g id="Elipse_4838" data-name="Elipse 4838" transform="translate(309 568)" fill="#535353" stroke="#707070" stroke-width="1">
      <circle cx="70.5" cy="70.5" r="70.5" stroke="none"/>
      <circle cx="70.5" cy="70.5" r="70" fill="none"/>
    </g>
    <g id="diagnostico" transform="translate(332.847 576.786)">
      <g id="Grupo_84318" data-name="Grupo 84318" transform="translate(1.469 13.321)">
        <g id="Grupo_84316" data-name="Grupo 84316">
          <path id="Trazado_117955" data-name="Trazado 117955" d="M54.864,25.608l25.3,43.816a11.552,11.552,0,0,1-10,17.328H19.563a11.552,11.552,0,0,1-10-17.328l25.3-43.816a11.552,11.552,0,0,1,20.009,0Z" transform="translate(-7.998 -19.832)" fill="#f88f05" fill-rule="evenodd"/>
          <path id="Trazado_117957" data-name="Trazado 117957" d="M75.964,54.935l25.3,43.816a5.53,5.53,0,0,1-4.789,8.3H45.878a5.53,5.53,0,0,1-4.789-8.3l25.3-43.816a5.53,5.53,0,0,1,9.578,0Z" transform="translate(-34.314 -46.148)" fill="#ffe177" fill-rule="evenodd"/>
          <path id="Trazado_117958" data-name="Trazado 117958" d="M48.884,107.046H45.878a5.53,5.53,0,0,1-4.789-8.3l25.3-43.816a5.452,5.452,0,0,1,4.789-2.765,5.656,5.656,0,0,1,1.5.2,5.446,5.446,0,0,0-3.286,2.564l-25.3,43.816a5.53,5.53,0,0,0,4.789,8.3Z" transform="translate(-34.314 -46.148)" fill="#ffd064" fill-rule="evenodd"/>
          <path id="Trazado_117959" data-name="Trazado 117959" d="M192.115,151.917a3.163,3.163,0,1,1-3.163,3.163A3.163,3.163,0,0,1,192.115,151.917Zm0-3.308a2.469,2.469,0,0,1-2.468-2.38l-.624-17.285a2.469,2.469,0,0,1,2.467-2.558h1.248a2.469,2.469,0,0,1,2.467,2.558l-.624,17.285A2.469,2.469,0,0,1,192.115,148.609Z" transform="translate(-155.254 -106.543)" fill="#ffd817" fill-rule="evenodd"/>
          <path id="Trazado_117960" data-name="Trazado 117960" d="M202.654,151.916a3.163,3.163,0,1,1-.751,6.236,3.164,3.164,0,0,0,0-6.147,3.193,3.193,0,0,1,.751-.09Zm0-3.308a2.464,2.464,0,0,1-.751-.117,2.471,2.471,0,0,0,1.716-2.263l.624-17.285a2.47,2.47,0,0,0-2.34-2.555c.042,0,.084,0,.127,0h1.248a2.469,2.469,0,0,1,2.467,2.558l-.624,17.285A2.47,2.47,0,0,1,202.654,148.608Z" transform="translate(-165.793 -106.542)" fill="#fd4755" fill-rule="evenodd"/>
        </g>
        <g id="Grupo_84317" data-name="Grupo 84317" transform="translate(31.224 28.554)">
          <path id="Trazado_117961" data-name="Trazado 117961" d="M379.46,366.042a18.84,18.84,0,0,1-3.179,3.5l8.645,8.474,3.291-3.392Z" transform="translate(-338.921 -330.123)" fill="#a79ba7" fill-rule="evenodd"/>
          <path id="Trazado_117962" data-name="Trazado 117962" d="M389.554,365.729a2.172,2.172,0,0,1-.941,1.262l8.587,8.531,1.052-1.152Z" transform="translate(-348.957 -329.868)" fill="#837683" fill-rule="evenodd"/>
          <path id="Trazado_117963" data-name="Trazado 117963" d="M423.755,416.439l3.714-3.828a1.708,1.708,0,0,0-.036-2.408l-10.288-9.983a1.708,1.708,0,0,0-2.408.036l-3.714,3.828a1.708,1.708,0,0,0,.036,2.408l10.287,9.982A1.708,1.708,0,0,0,423.755,416.439Z" transform="translate(-366.804 -357.547)" fill="#ffd817" fill-rule="evenodd"/>
          <path id="Trazado_117964" data-name="Trazado 117964" d="M435.962,400.221l10.287,9.983a1.708,1.708,0,0,1,.036,2.408l-3.714,3.828a1.686,1.686,0,0,1-.461.337,1.71,1.71,0,0,0,1.983-.337l3.714-3.828a1.708,1.708,0,0,0-.036-2.408l-10.287-9.983a1.709,1.709,0,0,0-1.947-.3A1.686,1.686,0,0,1,435.962,400.221Z" transform="translate(-387.142 -357.547)" fill="#e3a76f" fill-rule="evenodd"/>
          <circle id="Elipse_4834" data-name="Elipse 4834" cx="18.733" cy="18.733" r="18.733" transform="translate(0 26.489) rotate(-45)" fill="#ffd817"/>
          <path id="Trazado_117965" data-name="Trazado 117965" d="M314,214.808a18.733,18.733,0,0,1,0,37.466q-.457,0-.909-.022a18.733,18.733,0,0,0,0-37.422C313.389,214.816,313.692,214.808,314,214.808Z" transform="translate(-287.496 -207.053)" fill="#60b7ff" fill-rule="evenodd"/>
          <circle id="Elipse_4835" data-name="Elipse 4835" cx="13.452" cy="13.452" r="13.452" transform="matrix(0.305, -0.952, 0.952, 0.305, 9.565, 35.199)" fill="#eceff1"/>
          <path id="Trazado_117966" data-name="Trazado 117966" d="M259.19,243.17c.306,0,.609.011.909.031a13.451,13.451,0,0,0,0,26.84c-.3.02-.6.031-.909.031a13.451,13.451,0,0,1,0-26.9Z" transform="translate(-232.689 -230.133)" fill="#d1d1d6" fill-rule="evenodd"/>
        </g>
      </g>
      <path id="Trazado_117967" data-name="Trazado 117967" d="M59.2,80.174a11.81,11.81,0,1,1,11.81-11.81A11.823,11.823,0,0,1,59.2,80.174Zm0-26.6a14.79,14.79,0,1,0,14.79,14.79A14.808,14.808,0,0,0,59.2,53.574ZM92.294,95.9,88.578,99.73a.219.219,0,0,1-.3.005L77.99,89.752a.205.205,0,0,1-.062-.149.2.2,0,0,1,.057-.152L81.7,85.624a.223.223,0,0,1,.151-.064h0a.209.209,0,0,1,.147.058L92.288,95.6A.218.218,0,0,1,92.294,95.9ZM41.955,68.364A17.243,17.243,0,1,0,59.2,51.121,17.262,17.262,0,0,0,41.955,68.364ZM41.549,58.5A20.271,20.271,0,0,1,56.537,48.318l-14.7-25.465a4.04,4.04,0,0,0-7,0L9.538,66.669a4.039,4.039,0,0,0,3.5,6.06H39.45a20.187,20.187,0,0,1-.475-4.365c0-.645.032-1.281.091-1.911a4.779,4.779,0,0,1-.732.058A4.653,4.653,0,1,1,41.549,58.5Zm-3.215,5.033a1.673,1.673,0,1,1,1.675-1.672A1.675,1.675,0,0,1,38.334,63.531Zm-25.3,15.221H41.852a20.274,20.274,0,0,1-1.5-3.043H13.037a7.019,7.019,0,0,1-6.081-10.53l11.1-19.22,14.2-24.6a7.02,7.02,0,0,1,12.159,0L59.88,48.154a20.076,20.076,0,0,1,3.8.488l-16.628-28.8a10.059,10.059,0,0,0-17.427,0L4.322,63.658a10.063,10.063,0,0,0,8.715,15.093ZM78.448,84.7l-1.216,1.253L73.66,82.484q.611-.626,1.167-1.3Zm15.917,8.767L84.076,83.48a3.182,3.182,0,0,0-2.27-.9,3.22,3.22,0,0,0-1.056.2l-4.186-4.062a20.208,20.208,0,0,0-8.574-28.562l-18.36-31.8a13.041,13.041,0,0,0-22.589,0L1.743,62.168A13.042,13.042,0,0,0,13.037,81.731h31a20.188,20.188,0,0,0,27.384,2.731L75.271,88.2a3.21,3.21,0,0,0-.322,1.449,3.171,3.171,0,0,0,.967,2.242L86.2,101.873a3.2,3.2,0,0,0,4.514-.067l0,0,3.713-3.827a3.2,3.2,0,0,0-.067-4.514ZM39.314,52.954a.98.98,0,0,1-1.959,0l-.624-17.286a.977.977,0,0,1,.98-1.013h1.248a.976.976,0,0,1,.98,1.013Zm-.356-21.278a3.962,3.962,0,0,1,3.958,4.1l-.626,17.286a3.959,3.959,0,0,1-7.913,0l-.624-17.286a3.961,3.961,0,0,1,3.957-4.1Z" transform="translate(0)" fill-rule="evenodd"/>
    </g>
  </g>
</svg>
