<svg xmlns="http://www.w3.org/2000/svg" width="141" height="141" viewBox="0 0 141 141">
  <g id="Grupo_84329" data-name="Grupo 84329" transform="translate(-1152 -568)">
    <g id="Elipse_4840" data-name="Elipse 4840" transform="translate(1152 568)" fill="#535353" stroke="#707070" stroke-width="1">
      <circle cx="70.5" cy="70.5" r="70.5" stroke="none"/>
      <circle cx="70.5" cy="70.5" r="70" fill="none"/>
    </g>
    <g id="trabajador" transform="translate(1184.854 588.617)">
      <g id="Grupo_84319" data-name="Grupo 84319" transform="translate(18.586 3.192)">
        <path id="Trazado_117988" data-name="Trazado 117988" d="M106.611,36.867H118.7c2.495-5.977,2.651-10.44,2.656-17.636a18.88,18.88,0,0,0-15.136,17.655A3.525,3.525,0,0,1,106.611,36.867Z" transform="translate(-106.222 -19.231)" fill="#ffda8f" fill-rule="evenodd"/>
      </g>
      <g id="Grupo_84320" data-name="Grupo 84320" transform="translate(41.396 3.277)">
        <path id="Trazado_117989" data-name="Trazado 117989" d="M243.651,19.746c.009,7.143.171,11.593,2.661,17.55h11.7a3.5,3.5,0,0,1,.384.019,18.871,18.871,0,0,0-14.747-17.569Z" transform="translate(-243.651 -19.746)" fill="#ffda8f" fill-rule="evenodd"/>
      </g>
      <g id="Grupo_84321" data-name="Grupo 84321" transform="translate(15.143 20.828)">
        <path id="Trazado_117990" data-name="Trazado 117990" d="M89.307,133.146h36.784a3.831,3.831,0,0,0,.384-7.642,3.463,3.463,0,0,0-.384-.019H89.307a3.53,3.53,0,0,0-.389.019,3.829,3.829,0,0,0-.133,7.6,3.74,3.74,0,0,0,.521.038Z" transform="translate(-85.475 -125.485)" fill="#ffda8f" fill-rule="evenodd"/>
      </g>
      <g id="Grupo_84322" data-name="Grupo 84322" transform="translate(31.066 1.66)">
        <path id="Trazado_117991" data-name="Trazado 117991" d="M181.408,29.169H194.4c-2.49-5.958-2.651-10.407-2.661-17.55v-.787a.834.834,0,0,0-.83-.83h-6.014a.834.834,0,0,0-.83.83v.7C184.059,18.729,183.9,23.192,181.408,29.169Z" transform="translate(-181.408 -10.001)" fill="#ffe6b4" fill-rule="evenodd"/>
      </g>
      <g id="Grupo_84323" data-name="Grupo 84323" transform="translate(18.453 28.45)">
        <path id="Trazado_117992" data-name="Trazado 117992" d="M124.33,194.525a13.473,13.473,0,0,0,4.715-.958,20.919,20.919,0,0,0,5.583-3.173c5.056-3.956,8.619-10.032,8.619-15.131v-3.852a3.8,3.8,0,0,1-.522.038H105.941a3.751,3.751,0,0,1-.522-.038v3.852c0,5.1,3.562,11.175,8.619,15.131a21.008,21.008,0,0,0,5.554,3.169A13.4,13.4,0,0,0,124.33,194.525Z" transform="translate(-105.419 -171.411)" fill="#f5c6af" fill-rule="evenodd"/>
      </g>
      <g id="Grupo_84324" data-name="Grupo 84324" transform="translate(2.804 48.591)">
        <path id="Trazado_117993" data-name="Trazado 117993" d="M16.8,324.063H73.8a38.169,38.169,0,0,1-4.269-6.091,26.17,26.17,0,0,1-3.33-14.344,17.78,17.78,0,0,0,6.475-2.021,28.372,28.372,0,0,0-12.622-8.851c1.651,6.484-1.6,10.488-3.842,13.2L45.7,295.731,35.184,305.953c-2.248-2.708-5.493-6.712-3.847-13.2-12.622,4.506-17.835,15.449-19.813,24.376-1.157,5.237.161,6.93,5.279,6.93Z" transform="translate(-11.135 -292.757)" fill="#ecf2f3" fill-rule="evenodd"/>
      </g>
      <g id="Grupo_84325" data-name="Grupo 84325" transform="translate(22.558 47.433)">
        <path id="Trazado_117994" data-name="Trazado 117994" d="M130.6,286.94c-1.646,6.484,1.6,10.488,3.847,13.2l10.511-10.222a13.4,13.4,0,0,1-4.738-.963,21.007,21.007,0,0,1-5.554-3.168A33.372,33.372,0,0,0,130.6,286.94Z" transform="translate(-130.15 -285.783)" fill="#b5cdcd" fill-rule="evenodd"/>
      </g>
      <g id="Grupo_84326" data-name="Grupo 84326" transform="translate(37.365 47.433)">
        <path id="Trazado_117995" data-name="Trazado 117995" d="M219.359,289.914l10.516,10.222c2.243-2.708,5.493-6.712,3.842-13.2a33.056,33.056,0,0,0-4.06-1.157,20.919,20.919,0,0,1-5.583,3.173,13.474,13.474,0,0,1-4.715.958Z" transform="translate(-219.359 -285.783)" fill="#b5cdcd" fill-rule="evenodd"/>
      </g>
      <g id="Grupo_84327" data-name="Grupo 84327" transform="translate(57.857 52.196)">
        <path id="Trazado_117996" data-name="Trazado 117996" d="M342.837,321.743a26.168,26.168,0,0,0,3.33,14.344,38.159,38.159,0,0,0,4.269,6.091c1.916,2.215,4.084,4.093,5.839,4.093,3.486,0,8.618-7.409,10.108-10.184a26.252,26.252,0,0,0,3.33-14.344c-4.667-.408-9.823-3.467-13.438-7.267a26.751,26.751,0,0,1-6.963,5.246A17.785,17.785,0,0,1,342.837,321.743Z" transform="translate(-342.825 -314.476)" fill="#f88f05" fill-rule="evenodd"/>
      </g>
      <g id="Grupo_84328" data-name="Grupo 84328" transform="translate(1.146 0)">
        <path id="Trazado_117997" data-name="Trazado 117997" d="M395.238,390.513a1.66,1.66,0,0,0-2.016,2.638l2.836,2.168a1.66,1.66,0,0,0,2.238-.2l5.421-5.986a1.66,1.66,0,0,0-2.46-2.228l-4.4,4.854Z" transform="translate(-327.603 -322.228)"/>
        <path id="Trazado_117998" data-name="Trazado 117998" d="M86.4,59.425a1.66,1.66,0,0,0-1.515-1.616c-3.948-.345-8.807-3-12.379-6.757a1.66,1.66,0,0,0-1.2-.517h0a1.66,1.66,0,0,0-1.2.516,25.132,25.132,0,0,1-5.384,4.279,29.966,29.966,0,0,0-12.378-8.278c-.042-.017-.085-.032-.129-.046q-.568-.2-1.149-.384c4.111-4.1,6.876-9.488,6.876-14.321V29.694a5.489,5.489,0,0,0-.234-10.168A20.476,20.476,0,0,0,43,1.978,2.494,2.494,0,0,0,40.566,0H34.552a2.492,2.492,0,0,0-2.406,1.86A20.528,20.528,0,0,0,17.024,19.527,5.487,5.487,0,0,0,16.794,29.7V32.3c0,4.829,2.766,10.219,6.876,14.322q-.564.177-1.116.372a1.65,1.65,0,0,0-.211.076,29.957,29.957,0,0,0-13.54,9.7A38.691,38.691,0,0,0,1.574,72.608c-.489,2.214-.858,5,.652,6.876,1.475,1.836,4.113,2.072,6.248,2.072H19.331a1.66,1.66,0,0,0,0-3.32H8.474c-1.986,0-3.217-.28-3.659-.831-.469-.584-.469-1.957,0-4.08,1.725-7.77,5.943-17.278,16.105-22.078-.313,5.607,2.726,9.272,4.657,11.6a1.66,1.66,0,0,0,2.434.13l9.354-9.1,9.359,9.1a1.66,1.66,0,0,0,1.157.47l.089,0a1.66,1.66,0,0,0,1.189-.6c1.928-2.328,4.962-6,4.652-11.591a26.46,26.46,0,0,1,7.793,5.6,14.353,14.353,0,0,1-3.879.956,1.66,1.66,0,0,0-1.515,1.615,27.85,27.85,0,0,0,3.526,15.162c.023.042.927,1.663,2.336,3.651H34.357a1.66,1.66,0,0,0,0,3.32H64.708c2,2.211,4.361,4.094,6.6,4.094,5.4,0,11.511-10.954,11.57-11.064A27.939,27.939,0,0,0,86.4,59.425ZM54.319,19.168H45.181c-1.726-4.51-2.053-8.229-2.112-13.689a17.161,17.161,0,0,1,11.25,13.689ZM35.381,3.32h4.356c.01,6.425.173,10.776,1.913,15.848H33.472C35.208,14.1,35.371,9.743,35.381,3.32Zm-3.33,2.029c-.055,5.531-.372,9.273-2.109,13.82H20.414A17.384,17.384,0,0,1,32.051,5.348ZM18.975,22.487h11.1c.1.079.192.089.272,0H55.759a2.171,2.171,0,0,1,0,4.341H18.975a2.171,2.171,0,1,1,0-4.341ZM20.113,32.3V30.148H54.621V32.3c0,6.328-6.131,14.154-13.119,16.749a10.5,10.5,0,0,1-8.295,0C26.232,46.442,20.113,38.617,20.113,32.3ZM27,59.328a11.292,11.292,0,0,1-2.577-9.461q1.1-.355,2.273-.643a22.311,22.311,0,0,0,5.35,2.934c.6.224,1.182.408,1.749.561Zm20.729,0-6.8-6.609c.56-.152,1.132-.334,1.725-.555a22.3,22.3,0,0,0,5.376-2.939q1.162.283,2.272.641a11.3,11.3,0,0,1-2.574,9.462ZM79.952,73.018c-1.963,3.663-6.56,9.313-8.645,9.313s-6.682-5.65-8.646-9.315a23.976,23.976,0,0,1-3.142-12.11,20.837,20.837,0,0,0,5.488-1.942,1.657,1.657,0,0,0,.189-.1,27.967,27.967,0,0,0,6.111-4.335,24.967,24.967,0,0,0,11.788,6.375,24.055,24.055,0,0,1-3.142,12.112Z" transform="translate(-1.146 0)"/>
        <path id="Trazado_117999" data-name="Trazado 117999" d="M147.634,471.373a1.66,1.66,0,0,0,0,3.32h.009a1.66,1.66,0,0,0-.009-3.32Z" transform="translate(-121.936 -393.136)"/>
      </g>
    </g>
  </g>
</svg>
