<svg xmlns="http://www.w3.org/2000/svg" width="111.216" height="111.217" viewBox="0 0 111.216 111.217">
  <g id="_x34_7_x2C__settings_x2C__configuration_x2C__gear_x2C__Tools_and_utensils_x2C__wrench" transform="translate(-15.994 -15.99)">
    <g id="XMLID_2710_" transform="translate(15.994 15.99)">
      <path id="XMLID_2711_" d="M132.573,69.306V89.287H121.419a42.984,42.984,0,0,1-5.278,12.736l7.889,7.889L109.9,124.044l-7.889-7.889a42.984,42.984,0,0,1-12.736,5.278v11.154H69.292V121.433a42.984,42.984,0,0,1-12.736-5.278l-7.889,7.889L34.536,109.913l7.889-7.889a42.984,42.984,0,0,1-5.278-12.736H25.993V69.306H37.147A42.984,42.984,0,0,1,42.425,56.57l-7.889-7.889L48.667,34.55l7.889,7.889a42.984,42.984,0,0,1,12.736-5.278V26.007H89.274v13.06c-.92,2.628-3.9,5.632-2.808,13.365a27.78,27.78,0,1,0,19.682,19.682,23.178,23.178,0,0,0,15.13-3.038l.141.229Z" transform="translate(-23.676 -23.686)" fill="#ffd817"/>
      <path id="XMLID_2712_" d="M248.312,40.711a23.175,23.175,0,0,1-30.037,30.037L191.82,97.2A18.552,18.552,0,0,1,178.713,84.1l26.455-26.455A23.175,23.175,0,0,1,235.2,27.6l-8.821,8.823a8.2,8.2,0,0,0,0,11.6l1.506,1.506a8.206,8.206,0,0,0,11.6,0Z" transform="translate(-141.012 -23.687)" fill="#f0eeff"/>
      <path id="XMLID_2713_" d="M190.661,156.628a27.78,27.78,0,1,1-19.682-19.682,23.179,23.179,0,0,0,1.367,5.208l-3.751,3.751A18.529,18.529,0,1,0,181.7,159.012l3.751-3.751A23.177,23.177,0,0,0,190.661,156.628Z" transform="translate(-108.19 -108.2)" fill="#f88f05"/>
      <g id="XMLID_2714_" transform="translate(0 0.004)">
        <path id="XMLID_2715_" d="M81.591,127.22H61.61a2.317,2.317,0,0,1-2.317-2.317v-9.358a45.206,45.206,0,0,1-10.051-4.166L42.623,118a2.317,2.317,0,0,1-3.277,0L25.215,103.868a2.317,2.317,0,0,1,0-3.277l6.62-6.62a45.206,45.206,0,0,1-4.166-10.05H18.311A2.317,2.317,0,0,1,15.994,81.6V61.623a2.317,2.317,0,0,1,2.317-2.317h9.358a45.208,45.208,0,0,1,4.166-10.05l-6.62-6.62a2.318,2.318,0,0,1,0-3.277L39.346,25.228a2.317,2.317,0,0,1,3.277,0l6.62,6.62a45.206,45.206,0,0,1,10.05-4.166V18.324a2.317,2.317,0,0,1,2.317-2.317H81.591a2.317,2.317,0,0,1,2.317,2.317V29.478a2.317,2.317,0,1,1-4.634,0V20.641H63.927v8.837a2.317,2.317,0,0,1-1.785,2.255,40.618,40.618,0,0,0-12.05,4.994,2.317,2.317,0,0,1-2.856-.333l-6.251-6.251L30.13,41l6.251,6.251a2.317,2.317,0,0,1,.333,2.856,40.618,40.618,0,0,0-4.994,12.05,2.317,2.317,0,0,1-2.255,1.785H20.628V79.287h8.837a2.317,2.317,0,0,1,2.255,1.785,40.618,40.618,0,0,0,4.994,12.05,2.317,2.317,0,0,1-.333,2.856L30.13,102.23l10.854,10.854,6.251-6.251a2.317,2.317,0,0,1,2.856-.333,40.619,40.619,0,0,0,12.05,4.994,2.317,2.317,0,0,1,1.785,2.255v8.837H79.274v-8.837a2.317,2.317,0,0,1,1.785-2.255A40.619,40.619,0,0,0,93.11,106.5a2.317,2.317,0,0,1,2.856.333l6.251,6.251,10.854-10.854-6.251-6.251a2.317,2.317,0,0,1-.333-2.856,40.625,40.625,0,0,0,4.994-12.05,2.316,2.316,0,0,1,2.255-1.785h8.837V63.94h-8.837a2.317,2.317,0,0,1,0-4.634h11.154a2.317,2.317,0,0,1,2.317,2.317V81.6a2.317,2.317,0,0,1-2.317,2.317h-9.358a45.208,45.208,0,0,1-4.166,10.05l6.62,6.62a2.317,2.317,0,0,1,0,3.277L103.855,118a2.317,2.317,0,0,1-3.277,0l-6.62-6.62a45.218,45.218,0,0,1-10.051,4.166V124.9a2.317,2.317,0,0,1-2.317,2.317Z" transform="translate(-15.994 -16.007)"/>
      </g>
      <g id="XMLID_2716_" transform="translate(25.486 25.49)">
        <path id="XMLID_2717_" d="M156.113,186.248a30.12,30.12,0,1,1,7.78-59.224,2.317,2.317,0,1,1-1.2,4.477,25.462,25.462,0,1,0,18.042,18.041,2.317,2.317,0,0,1,4.477-1.2,30.139,30.139,0,0,1-29.1,37.9Z" transform="translate(-125.993 -126.007)"/>
      </g>
      <g id="XMLID_2718_" transform="translate(35.384 0)">
        <path id="XMLID_2719_" d="M184.136,91.823a2.317,2.317,0,0,1-1.638-3.955l26.455-26.455a2.317,2.317,0,0,1,2.483-.519,20.858,20.858,0,0,0,28.075-23.485l-6.065,6.066a10.537,10.537,0,0,1-14.877,0l-1.507-1.507a10.513,10.513,0,0,1,0-14.878l6.065-6.066A20.855,20.855,0,0,0,199.642,49.1a2.317,2.317,0,0,1-.519,2.483L172.668,78.037a2.317,2.317,0,0,1-3.277-3.277L194.81,49.341a25.491,25.491,0,0,1,33.556-31.592,2.317,2.317,0,0,1,.793,3.8l-8.821,8.823a5.884,5.884,0,0,0,0,8.324l1.506,1.506a5.9,5.9,0,0,0,8.325,0l8.82-8.822a2.317,2.317,0,0,1,3.8.793,25.5,25.5,0,0,1-31.591,33.556L185.774,91.143a2.305,2.305,0,0,1-1.638.68Z" transform="translate(-168.712 -15.99)"/>
      </g>
      <g id="XMLID_2720_" transform="translate(34.754 34.758)">
        <path id="XMLID_2721_" d="M186.846,207.712a20.853,20.853,0,1,1,5.4-40.995,2.317,2.317,0,0,1-1.207,4.474,16.212,16.212,0,1,0,11.473,11.473,2.317,2.317,0,1,1,4.474-1.206,20.859,20.859,0,0,1-20.143,26.254Z" transform="translate(-165.993 -166.007)"/>
      </g>
      <g id="XMLID_2722_" transform="translate(71.825 25.49)">
        <path id="XMLID_2723_" d="M337.578,139.908a2.309,2.309,0,0,1-1.638-.679l-9.268-9.268a2.317,2.317,0,1,1,3.277-3.277l9.268,9.268a2.317,2.317,0,0,1-1.639,3.956Z" transform="translate(-325.993 -126.006)"/>
      </g>
    </g>
  </g>
</svg>
