<svg xmlns="http://www.w3.org/2000/svg" width="141" height="141" viewBox="0 0 141 141">
  <g id="Grupo_84330" data-name="Grupo 84330" transform="translate(-733 -568)">
    <g id="Elipse_4839" data-name="Elipse 4839" transform="translate(733 568)" fill="#535353" stroke="#707070" stroke-width="1">
      <circle cx="70.5" cy="70.5" r="70.5" stroke="none"/>
      <circle cx="70.5" cy="70.5" r="70" fill="none"/>
    </g>
    <g id="investigacion" transform="translate(744 579)">
      <path id="Trazado_117968" data-name="Trazado 117968" d="M80,24h45.168v8.742H80Z" transform="translate(-52.344 -6.543)" fill="#d7e6eb"/>
      <path id="Trazado_117969" data-name="Trazado 117969" d="M112,24l5.828,5.828h16.027L128.027,24Z" transform="translate(-78.516 -6.543)" fill="#ccdce4"/>
      <path id="Trazado_117970" data-name="Trazado 117970" d="M56,24l5.828,5.828H77.855L72.027,24Z" transform="translate(-32.715 -6.543)" fill="#b4c2c9"/>
      <path id="Trazado_117971" data-name="Trazado 117971" d="M24,102.68V24H34.2l5.828,5.828h39.34V102.68Z" transform="translate(-6.543 -6.543)" fill="#ecae49"/>
      <path id="Trazado_117972" data-name="Trazado 117972" d="M0,0H43.711V59.738H0Z" transform="translate(25.313 42.365) rotate(-13.3)" fill="#ccdce4"/>
      <path id="Trazado_117973" data-name="Trazado 117973" d="M0,0H29.141V11.656H0Z" transform="translate(34.078 47.778) rotate(-13.3)" fill="#7a8a9a"/>
      <circle id="Elipse_4836" data-name="Elipse 4836" cx="20.5" cy="20.5" r="20.5" transform="translate(61 32)" fill="#ffd817"/>
      <path id="Trazado_117974" data-name="Trazado 117974" d="M365.828,352v21.855a2.914,2.914,0,0,1-5.828,0V352Z" transform="translate(-281.348 -274.805)" fill="#ecae49"/>
      <path id="Trazado_117975" data-name="Trazado 117975" d="M360,352h5.828v4.371H360Z" transform="translate(-281.348 -274.805)" fill="#d7a145"/>
      <rect id="Rectángulo_34603" data-name="Rectángulo 34603" width="11" height="6" rx="3" transform="translate(76 73)" fill="#d08b29"/>
      <ellipse id="Elipse_4837" data-name="Elipse 4837" cx="14.5" cy="15" rx="14.5" ry="15" transform="translate(67 37)" fill="#fff5c5"/>
      <path id="Trazado_117976" data-name="Trazado 117976" d="M360,456h5.828v2.914a2.914,2.914,0,0,1-5.828,0Z" transform="translate(-281.348 -359.863)" fill="#d08b29"/>
      <path id="Trazado_117977" data-name="Trazado 117977" d="M304.027,128a16.027,16.027,0,1,0,16.027,16.027A16.027,16.027,0,0,0,304.027,128Zm0,29.141a13.113,13.113,0,1,1,13.113-13.113,13.113,13.113,0,0,1-13.113,13.113Z" transform="translate(-222.461 -91.602)"/>
      <path id="Trazado_117978" data-name="Trazado 117978" d="M299.7,117.858a21.855,21.855,0,1,0-28.385,20.859,4.367,4.367,0,0,0,2.158,6.574v19.192a4.371,4.371,0,1,0,8.742,0V145.291a4.367,4.367,0,0,0,2.158-6.575A21.9,21.9,0,0,0,299.7,117.858Zm-20.4,27.684v14.57h-2.914v-14.57Zm-1.457,20.4a1.459,1.459,0,0,1-1.457-1.457v-1.457H279.3v1.457A1.459,1.459,0,0,1,277.842,165.94Zm2.914-26.227a1.457,1.457,0,0,1,0,2.914h-5.828a1.457,1.457,0,0,1,0-2.914Zm-2.914-2.914a18.941,18.941,0,1,1,18.941-18.941A18.941,18.941,0,0,1,277.842,136.8Z" transform="translate(-196.275 -65.433)"/>
      <path id="Trazado_117979" data-name="Trazado 117979" d="M18.914,18.914h8.139l5.4,5.4a1.457,1.457,0,0,0,1.03.427H71.367v4.371h2.914V17.457A1.457,1.457,0,0,0,72.824,16H17.457A1.457,1.457,0,0,0,16,17.457v78.68a1.457,1.457,0,0,0,1.457,1.457H33.484V94.68H18.914Zm12.26,0h7.535l2.914,2.914H34.088Zm11.656,0h6.078l2.914,2.914H45.744Zm28.537,2.914H55.943l-2.914-2.914H71.367Z"/>
      <path id="Trazado_117980" data-name="Trazado 117980" d="M75.429,165.667l-13.068-55.3,41.122-9.717-.67-2.836L60.273,107.865a1.457,1.457,0,0,0-1.083,1.753l13.739,58.137a1.457,1.457,0,0,0,1.753,1.083l35.226-8.324-.67-2.836Z" transform="translate(-35.292 -66.912)"/>
      <path id="Trazado_117981" data-name="Trazado 117981" d="M0,0H2.914V2.914H0Z" transform="translate(39.516 64.455) rotate(-13.3)"/>
      <path id="Trazado_117982" data-name="Trazado 117982" d="M0,0H13.077V2.914H0Z" transform="translate(45.186 63.116) rotate(-13.3)"/>
      <path id="Trazado_117983" data-name="Trazado 117983" d="M0,0H23.436V2.914H0Z" transform="translate(38.02 70.797) rotate(-13.3)"/>
      <path id="Trazado_117984" data-name="Trazado 117984" d="M0,0H26.551V2.914H0Z" transform="translate(39.36 76.469) rotate(-13.3)"/>
      <path id="Trazado_117985" data-name="Trazado 117985" d="M0,0H32.055V2.914H0Z" transform="translate(40.702 82.138) rotate(-13.3)"/>
      <path id="Trazado_117986" data-name="Trazado 117986" d="M0,0H26.227V2.914H0Z" transform="translate(42.043 87.808) rotate(-13.3)"/>
      <path id="Trazado_117987" data-name="Trazado 117987" d="M131.926,152.215,108.4,157.774a1.457,1.457,0,0,0-1.083,1.753L110,170.87a1.455,1.455,0,0,0,1.753,1.083l20.034-4.734-.67-2.836-18.616,4.4-2.011-8.508,22.106-5.224Z" transform="translate(-74.655 -111.406)"/>
    </g>
  </g>
</svg>
