<svg xmlns="http://www.w3.org/2000/svg" width="117" height="117" viewBox="0 0 117 117">
  <g id="Grupo_84347" data-name="Grupo 84347" transform="translate(-749 -5717)">
    <circle id="Elipse_4824" data-name="Elipse 4824" cx="58.5" cy="58.5" r="58.5" transform="translate(749 5717)" fill="#fff5c5"/>
    <g id="autobus" transform="translate(770.807 5734.632)">
      <path id="Trazado_118969" data-name="Trazado 118969" d="M71.9,11.7H66.382V30.683h2.206V39.4H64.394V10.595A10.593,10.593,0,0,0,53.8,0H18.922A10.6,10.6,0,0,0,8.328,10.595V38.849H4.685V29.576H7V10.595H1.486V29.576H3.8V39.734H8.328v20.75a10.6,10.6,0,0,0,5.519,9.3v5.484h9.27V71.077H49.383V75.27h9.273V69.89a10.578,10.578,0,0,0,5.737-9.407v-20.2h5.078v-9.6H71.9V11.7ZM24.222,2.2h24.72V7.947H24.222ZM26.869,60.04H13.185V53.863H26.869Zm33.11,0H46.295V53.863H59.98Zm0-19.866s-2.649,8.39-23.838,8.39-23.4-8.39-23.4-8.39V11.034H59.98Z" fill="#f88f05"/>
    </g>
  </g>
</svg>
