<svg xmlns="http://www.w3.org/2000/svg" width="86.973" height="108.89" viewBox="0 0 86.973 108.89">
  <g id="Mechanic" transform="translate(-10.45 -1)">
    <path id="Trazado_118940" data-name="Trazado 118940" d="M84.82,101.167H10.45l4.112-27A16.507,16.507,0,0,1,27.3,60.553L47.438,56.07l20.5,4.553A16.484,16.484,0,0,1,80.684,74.245Z" transform="translate(0 8.723)" fill="#ffd817"/>
    <path id="Trazado_118941" data-name="Trazado 118941" d="M22.961,94.432a5.862,5.862,0,0,1-5.792-6.742L19.3,74.09a10.646,10.646,0,0,1,8.259-8.827l10.426-2.317a39.108,39.108,0,0,1,16.913,0l10.808,2.317A10.785,10.785,0,0,1,73.977,74.1l2.074,13.565a5.862,5.862,0,0,1-5.792,6.742Z" transform="translate(1.054 9.666)" fill="#fff6e9"/>
    <path id="Trazado_118942" data-name="Trazado 118942" d="M61.291,82.751H28.729A1.738,1.738,0,0,1,27,80.758L27.431,78a1.738,1.738,0,0,1,1.714-1.471H60.874A1.738,1.738,0,0,1,62.589,78l.417,2.757a1.726,1.726,0,0,1-1.714,1.992Z" transform="translate(2.619 11.964)" fill="#ffd817"/>
    <path id="Trazado_118943" data-name="Trazado 118943" d="M43.657,67.848V99.484H41.34V67.848a1.158,1.158,0,1,1,2.317,0Z" transform="translate(4.893 10.406)" fill="#f88f05"/>
    <path id="Trazado_118944" data-name="Trazado 118944" d="M41.34,76.53h2.317v6.221H41.34Z" transform="translate(4.893 11.964)" fill="#fff5c5"/>
    <path id="Trazado_118945" data-name="Trazado 118945" d="M24.787,81.6,23.247,97.326H20.93l1.575-15.963a1.164,1.164,0,0,1,2.317.232Z" transform="translate(1.66 12.564)" fill="#f88f05"/>
    <path id="Trazado_118946" data-name="Trazado 118946" d="M64.721,97.337H62.4L60.841,81.513a1.158,1.158,0,1,1,2.305-.22Z" transform="translate(7.981 12.553)" fill="#f88f05"/>
    <path id="Trazado_118947" data-name="Trazado 118947" d="M43.916,73.465,32.39,77.554V58.637L43.823,56.1Z" transform="translate(3.475 8.728)" fill="#f88f05"/>
    <path id="Trazado_118948" data-name="Trazado 118948" d="M42.34,73.465l11.526,4.089V58.637L42.433,56.1Z" transform="translate(5.052 8.728)" fill="#f88f05"/>
    <path id="Trazado_118949" data-name="Trazado 118949" d="M49.994,49.98V62.109L43.287,74.434,36.36,62.109V49.98Z" transform="translate(4.104 7.759)" fill="#f5b48b"/>
    <path id="Trazado_118950" data-name="Trazado 118950" d="M49.994,50v6.835a25.809,25.809,0,0,1-13.634,0V50Z" transform="translate(4.104 7.762)" fill="#f58c72"/>
    <path id="Trazado_118951" data-name="Trazado 118951" d="M37.74,62.92l5.329,9.464,5.155-9.464Z" transform="translate(4.323 9.809)" fill="#afe3ff"/>
    <path id="Trazado_118952" data-name="Trazado 118952" d="M69.952,35.546H22.307a4.819,4.819,0,0,1,0-9.626H69.952a4.819,4.819,0,0,1,0,9.626Z" transform="translate(1.152 3.947)" fill="#f5b48b"/>
    <path id="Trazado_118953" data-name="Trazado 118953" d="M45.154,59.923a21.3,21.3,0,0,1-21.3-21.315V28.843a21.315,21.315,0,1,1,42.618,0v9.765A21.315,21.315,0,0,1,45.154,59.923Z" transform="translate(2.122 0.955)" fill="#f5d29f"/>
    <rect id="Rectángulo_34619" data-name="Rectángulo 34619" width="49.429" height="6.684" rx="2.66" transform="translate(22.926 23.183)" fill="#f88f05"/>
    <rect id="Rectángulo_34620" data-name="Rectángulo 34620" width="25.369" height="6.684" rx="2.66" transform="translate(34.95 23.183)" fill="#fff5c5"/>
    <path id="Trazado_118954" data-name="Trazado 118954" d="M43.522,1h4.124A20.122,20.122,0,0,1,67.767,21.122v1.691a.371.371,0,0,1-.371.371H23.771a.371.371,0,0,1-.371-.371V21.122A20.122,20.122,0,0,1,43.522,1Z" transform="translate(2.051 0)" fill="#ffd817"/>
    <path id="Trazado_118955" data-name="Trazado 118955" d="M34.983,16.768a4.9,4.9,0,0,1-3.556-8.294A15.476,15.476,0,0,1,42.466,3.84H46.59a15.465,15.465,0,0,1,11.04,4.635,4.9,4.9,0,0,1-3.546,8.293Z" transform="translate(3.106 0.45)" fill="#fff5c5"/>
    <rect id="Rectángulo_34621" data-name="Rectángulo 34621" width="13.634" height="5.491" rx="1.09" transform="translate(40.464 12.526)" fill="#e8dca4"/>
    <g id="Grupo_84343" data-name="Grupo 84343" transform="translate(32.796 33.018)">
      <path id="Trazado_118956" data-name="Trazado 118956" d="M32.948,35.186a1.158,1.158,0,0,1-1.158-1.158v-.869a1.158,1.158,0,1,1,2.317,0v.834a1.158,1.158,0,0,1-1.158,1.193Z" transform="translate(-29.415 -28.108)" fill="#302d3d"/>
      <path id="Trazado_118957" data-name="Trazado 118957" d="M35.659,30.957H30.9a1.158,1.158,0,0,1,0-2.317h4.761a1.158,1.158,0,0,1,0,2.317Z" transform="translate(-29.74 -28.64)" fill="#302d3d"/>
      <path id="Trazado_118958" data-name="Trazado 118958" d="M51.848,35.186a1.158,1.158,0,0,1-1.158-1.158v-.869a1.158,1.158,0,1,1,2.317,0v.834a1.158,1.158,0,0,1-1.158,1.193Z" transform="translate(-26.421 -28.108)" fill="#302d3d"/>
      <path id="Trazado_118959" data-name="Trazado 118959" d="M54.559,30.957H49.8a1.158,1.158,0,0,1,0-2.317h4.761a1.158,1.158,0,0,1,0,2.317Z" transform="translate(-26.746 -28.64)" fill="#302d3d"/>
    </g>
    <path id="Trazado_118960" data-name="Trazado 118960" d="M37.046,44.524a1.159,1.159,0,1,1,1.645-1.633,6.163,6.163,0,0,0,9.105-.209,1.172,1.172,0,1,1,1.726,1.587,8.468,8.468,0,0,1-12.476.255Z" transform="translate(4.16 6.543)" fill="#f5b48b"/>
    <rect id="Rectángulo_34622" data-name="Rectángulo 34622" width="8.398" height="4.993" rx="1.22" transform="translate(55.628 96.928)" fill="#f88f05"/>
    <path id="Trazado_118961" data-name="Trazado 118961" d="M82.572,77.873a4.159,4.159,0,0,0-2.143,3.579v19.693H72.321V81.453a4.182,4.182,0,0,0-2.155-3.626,12.627,12.627,0,0,1-1.158-21.234,2.1,2.1,0,0,1,3.313,1.691v11a1.749,1.749,0,0,0,1.749,1.738H78.7a1.761,1.761,0,0,0,1.761-1.749V58.284a2.1,2.1,0,0,1,3.267-1.645,12.627,12.627,0,0,1-1.158,21.234Z" transform="translate(8.445 8.745)" fill="#d9e1f8"/>
    <path id="Trazado_118962" data-name="Trazado 118962" d="M85.355,61.173a12.743,12.743,0,0,0-3.9-4.541,2.1,2.1,0,0,0-3.3,1.645v2.9Z" transform="translate(10.724 8.752)" fill="#535353"/>
    <path id="Trazado_118963" data-name="Trazado 118963" d="M72.135,61.182v-2.9a2.1,2.1,0,0,0-3.325-1.691,12.662,12.662,0,0,0-3.881,4.541Z" transform="translate(8.63 8.744)" fill="#535353"/>
    <path id="Trazado_118964" data-name="Trazado 118964" d="M71.15,90h8.109v5.792H71.15Z" transform="translate(9.615 14.098)" fill="#535353"/>
    <path id="Trazado_118965" data-name="Trazado 118965" d="M77.337,73.937H72.888a1.158,1.158,0,1,1,0-2.317h4.448a1.158,1.158,0,0,1,0,2.317Z" transform="translate(9.707 11.187)" fill="#fff"/>
  </g>
</svg>
