<svg xmlns="http://www.w3.org/2000/svg" xmlns:xlink="http://www.w3.org/1999/xlink" width="29" height="19.282" viewBox="0 0 29 19.282">
  <defs>
    <clipPath id="clip-path">
      <rect x="2" y="1" width="29" height="19.282" fill="none"/>
    </clipPath>
  </defs>
  <g id="Grupo_84372" data-name="Grupo 84372" transform="translate(-1346 -2471.236)">
    <g id="Grupo_de_desplazamiento_1" data-name="Grupo de desplazamiento 1" transform="translate(1344 2470.236)" clip-path="url(#clip-path)" style="isolation: isolate">
      <g id="Grupo_84370" data-name="Grupo 84370" transform="translate(7449 -11700.236)">
        <g id="Grupo_84371" data-name="Grupo 84371">
          <g id="Polígono_1" data-name="Polígono 1" transform="translate(-7449 11700.236)" fill="#dee4f0">
            <path d="M 25.76580047607422 25.7818431854248 L 7.234200000762939 25.7818431854248 C 5.941699981689453 25.7818431854248 4.79665994644165 25.10655212402344 4.171239852905273 23.97544288635254 C 3.545819997787476 22.84433174133301 3.582720041275024 21.51551246643066 4.269949913024902 20.42085266113281 L 13.53575038909912 5.661922454833984 C 14.18008041381836 4.635622501373291 15.28820991516113 4.022912502288818 16.5 4.022912502288818 C 17.71179008483887 4.022912502288818 18.81991958618164 4.635622501373291 19.4642505645752 5.661922454833984 L 28.73004913330078 20.42085266113281 C 29.41728019714355 21.51551246643066 29.45417976379395 22.84433174133301 28.82876014709473 23.97544288635254 C 28.20334053039551 25.10655212402344 27.05830001831055 25.7818431854248 25.76580047607422 25.7818431854248 Z" stroke="none"/>
            <path d="M 16.5 4.522912979125977 C 15.4613094329834 4.522912979125977 14.51148986816406 5.048091888427734 13.95922088623047 5.92778205871582 L 4.69342041015625 20.68671226501465 C 4.104360580444336 21.62499237060547 4.072729110717773 22.76397323608398 4.608810424804688 23.73350143432617 C 5.144880294799805 24.70302200317383 6.126340866088867 25.28184127807617 7.234199523925781 25.28184127807617 L 25.76580047607422 25.28184127807617 C 26.87366104125977 25.28184127807617 27.8551197052002 24.70302200317383 28.39118957519531 23.73350143432617 C 28.92726898193359 22.76397323608398 28.89563941955566 21.62499237060547 28.30657958984375 20.68671226501465 L 19.04077911376953 5.92778205871582 C 18.48851013183594 5.048101425170898 17.53868103027344 4.522912979125977 16.5 4.522912979125977 M 16.5 3.522909164428711 C 17.80185699462891 3.522909164428711 19.10371398925781 4.147296905517578 19.88771057128906 5.396072387695312 L 29.15351104736328 20.15500259399414 C 30.82592964172363 22.81890296936035 28.91117095947266 26.28184127807617 25.76580047607422 26.28184127807617 L 7.234199523925781 26.28184127807617 C 4.088830947875977 26.28184127807617 2.174070358276367 22.81890296936035 3.846490859985352 20.15500259399414 L 13.11228942871094 5.396072387695312 C 13.89628410339355 4.147296905517578 15.19814300537109 3.522909164428711 16.5 3.522909164428711 Z" stroke="none" fill="#919191"/>
          </g>
        </g>
      </g>
    </g>
  </g>
</svg>
