<svg xmlns="http://www.w3.org/2000/svg" width="85" height="85" viewBox="0 0 85 85">
  <g id="Grupo_84287" data-name="Grupo 84287" transform="translate(-834 -5288)">
    <rect id="Rectángulo_34570" data-name="Rectángulo 34570" width="85" height="85" transform="translate(834 5288)" fill="none"/>
    <g id="proteccion" transform="translate(846.551 5300.934)">
      <g id="Grupo_84267" data-name="Grupo 84267" transform="translate(1.2 0.866)">
        <g id="Grupo_84261" data-name="Grupo 84261">
          <g id="Grupo_84260" data-name="Grupo 84260" transform="translate(2.769)">
            <path id="Trazado_117869" data-name="Trazado 117869" d="M86.709,54.207H41.846l0-5.449a22.431,22.431,0,0,1,44.862-.019Z" transform="translate(-40.597 -24.144)" fill="#ffb938"/>
            <path id="Trazado_117870" data-name="Trazado 117870" d="M204.176,37.558l-.012-28.893a10.326,10.326,0,0,0-9.558,0l.012,28.889h9.558Z" transform="translate(-175.716 -7.494)" fill="#ffe645"/>
            <path id="Trazado_117871" data-name="Trazado 117871" d="M223.1,8.671a10.325,10.325,0,0,0-7.085-.908,10.32,10.32,0,0,1,2.465.908l.012,28.893h4.62Z" transform="translate(-194.655 -7.501)" fill="#f5d60c"/>
            <g id="Grupo_84259" data-name="Grupo 84259" transform="translate(0 5.914)">
              <path id="Trazado_117872" data-name="Trazado 117872" d="M31.043,77.5l0,5.448H41.37l-.01-23.261A.873.873,0,0,0,39.944,59,23.645,23.645,0,0,0,31.043,77.5Z" transform="translate(-31.043 -58.795)" fill="#ffe645"/>
              <path id="Trazado_117873" data-name="Trazado 117873" d="M85.007,59.683A.873.873,0,0,0,83.59,59a23.886,23.886,0,0,0-3.2,3.1L80.4,82.944h4.62Z" transform="translate(-74.689 -58.795)" fill="#f5d60c"/>
              <path id="Trazado_117874" data-name="Trazado 117874" d="M351.632,59.58l.01,23.272h10.325l0-5.468a23.645,23.645,0,0,0-8.917-18.49A.873.873,0,0,0,351.632,59.58Z" transform="translate(-314.607 -58.703)" fill="#ffe645"/>
              <path id="Trazado_117875" data-name="Trazado 117875" d="M361.964,77.385a23.645,23.645,0,0,0-8.917-18.49.873.873,0,0,0-1.416.686v2.41a23.572,23.572,0,0,1,5.712,15.394l0,5.468h4.62Z" transform="translate(-314.606 -58.704)" fill="#f5d60c"/>
            </g>
          </g>
          <path id="Trazado_117876" data-name="Trazado 117876" d="M48.112,275.874l.812-.429a17.642,17.642,0,0,1,8.236-2.045,2.807,2.807,0,0,0,2.8-2.9,2.839,2.839,0,0,0-2.881-2.69H9.944a2.856,2.856,0,0,0-2.878,2.712,2.808,2.808,0,0,0,2.807,2.9,17.643,17.643,0,0,1,8.238,2.038l.813.429a17.644,17.644,0,0,0,8.238,2.038l12.714-.005a17.645,17.645,0,0,0,8.237-2.045Z" transform="translate(-7.064 -237.742)" fill="#ffe645"/>
          <path id="Trazado_117877" data-name="Trazado 117877" d="M212.91,270.5a2.839,2.839,0,0,0-2.881-2.69h-4.62a2.839,2.839,0,0,1,2.881,2.69,2.807,2.807,0,0,1-2.8,2.9,17.641,17.641,0,0,0-8.236,2.045l-.812.429a17.642,17.642,0,0,1-8.237,2.045l-8.222,0,.128,0,12.714-.005a17.642,17.642,0,0,0,8.237-2.045l.812-.429a17.642,17.642,0,0,1,8.236-2.045A2.807,2.807,0,0,0,212.91,270.5Z" transform="translate(-160.009 -237.742)" fill="#f5d60c"/>
        </g>
        <g id="Grupo_84266" data-name="Grupo 84266" transform="translate(12.5 35.317)">
          <g id="Grupo_84265" data-name="Grupo 84265">
            <g id="Grupo_84262" data-name="Grupo 84262" transform="translate(3.021)">
              <path id="Trazado_117878" data-name="Trazado 117878" d="M145.789,313.353a2.246,2.246,0,0,0-2.688,1.692l-1.553,6.829c-1.433,6.3,13.535,14.864,15.566,5.93l.321-1.411a2.627,2.627,0,0,1,5.123,1.165l-.321,1.411c-2.041,8.974,15.175,7.653,16.6,1.385l1.553-6.829a2.246,2.246,0,0,0-1.692-2.688Z" transform="translate(-141.451 -313.297)" fill="#f88f05"/>
            </g>
            <g id="Grupo_84264" data-name="Grupo 84264" transform="translate(0 1.32)">
              <path id="Trazado_117880" data-name="Trazado 117880" d="M116.529,332.382l1.706.388,1.732-7.614-1.706-.388a1.583,1.583,0,0,0-1.895,1.193l-1.029,4.526A1.583,1.583,0,0,0,116.529,332.382Z" transform="translate(-115.297 -324.728)" fill="#ffd817"/>
              <path id="Trazado_117881" data-name="Trazado 117881" d="M467.064,402.251l-1.706-.388-1.732,7.614,1.706.388a1.583,1.583,0,0,0,1.895-1.193l1.029-4.526A1.583,1.583,0,0,0,467.064,402.251Z" transform="translate(-423.397 -392.955)" fill="#ffd817"/>
            </g>
          </g>
        </g>
      </g>
      <g id="Grupo_84268" data-name="Grupo 84268" transform="translate(0.434 0.001)">
        <path id="Trazado_117882" data-name="Trazado 117882" d="M59.088,47.039a2.635,2.635,0,0,0-1.53-1.084l-.981-.223A3.172,3.172,0,0,0,54.16,42.88L41.969,40.107c3.044-1.45,5.851-2.715,9.328-2.716,4.22,0,4.936-6.163.9-7.2l0-4.726A24.443,24.443,0,0,0,42.951,6.295a1.847,1.847,0,0,0-2.122-.034,23.011,23.011,0,0,0-7.546-3.4V2.036a.866.866,0,0,0-.466-.768,11.2,11.2,0,0,0-10.359,0,.866.866,0,0,0-.465.768v.825A23,23,0,0,0,14.45,6.272a1.847,1.847,0,0,0-2.122.036,24.768,24.768,0,0,0-4.313,4.447A.867.867,0,0,0,9.4,11.8a23.212,23.212,0,0,1,3.936-4.079.861.861,0,0,0,.083.223l.009,22.123H4.837l0-4.582A22.536,22.536,0,0,1,7.17,15.423a.867.867,0,0,0-1.554-.766A24.252,24.252,0,0,0,3.1,25.481l0,4.712c-4.035,1.09-3.31,7.217.911,7.217,3.56,0,6.4,1.363,9.529,2.8l-.65,2.856A2.527,2.527,0,0,0,14.74,46l1.15.262a8.7,8.7,0,0,0,2.731,4.929,15.082,15.082,0,0,0,6.99,3.975c3.955.9,6.8-.7,7.617-4.284l.321-1.411a1.762,1.762,0,0,1,3.434.781l-.321,1.411a5.374,5.374,0,0,0,1.228,5.208c1.405,1.457,3.862,2.259,6.659,2.259a15.737,15.737,0,0,0,2.919-.279.867.867,0,0,0-.322-1.7c-3.329.63-6.548.035-8.009-1.48a3.729,3.729,0,0,1-.786-3.622l.321-1.411c1-4.387-5.814-5.941-6.812-1.549L31.539,50.5c-.418,1.839-1.72,3.849-5.544,2.979-4.265-.97-9.072-5.278-8.333-8.525l1.553-6.83h0a1.381,1.381,0,0,1,1.651-1.038l32.911,7.485a1.4,1.4,0,0,1,1.039,1.651l-1.553,6.83a4.565,4.565,0,0,1-2.144,2.62.867.867,0,0,0,.926,1.464A7.161,7.161,0,0,0,54.286,55l1.157.263a2.5,2.5,0,0,0,2.932-1.845L59.4,48.887a2.434,2.434,0,0,0-.316-1.848ZM41.869,7.648A22.72,22.72,0,0,1,50.46,25.461l0,4.6H41.87L41.859,7.654s.01-.008.011-.006Zm-1.741.236.009,22.179H33.295L33.284,4.65a21.31,21.31,0,0,1,6.844,3.233ZM31.551,2.578l.012,27.486H23.737L23.726,2.581a9.466,9.466,0,0,1,7.825,0Zm-16.4,5.315a21.293,21.293,0,0,1,6.841-3.238L22,30.063H15.162Zm-.029,36.42a.717.717,0,0,1-.54-.858l1.029-4.526a.765.765,0,0,1,.858-.54l.862.2-1.347,5.925Zm2.714-7.391-.982-.223a2.452,2.452,0,0,0-2.916,1.786c-3.2-1.56-6.278-2.806-9.924-2.806-2.528,0-2.467-3.881.064-3.882H51.221c2.514,0,2.614,3.861.075,3.863-4.322,0-8.5,1.854-12.3,3.772L21.25,35.395A3.117,3.117,0,0,0,17.838,36.922ZM57.714,48.5l-1.029,4.526a.718.718,0,0,1-.858.54l-.862-.2,1.078-4.739.27-1.186.862.2a.717.717,0,0,1,.54.858Z" transform="translate(-0.434 -0.001)"/>
        <path id="Trazado_117883" data-name="Trazado 117883" d="M173.416,349.024l3.491-2.2a.867.867,0,0,0-.923-1.466l-3.491,2.2C171.523,348.169,172.506,349.6,173.416,349.024Z" transform="translate(-152.268 -305.351)"/>
        <path id="Trazado_117884" data-name="Trazado 117884" d="M176.272,362.713a.862.862,0,0,0,.461-.133l8.434-5.308a.867.867,0,0,0-.923-1.466l-8.434,5.308A.879.879,0,0,0,176.272,362.713Z" transform="translate(-155.223 -314.589)"/>
        <path id="Trazado_117885" data-name="Trazado 117885" d="M351.157,389.445l3.491-2.2a.867.867,0,0,0-.923-1.466l-3.491,2.2C349.263,388.59,350.247,390.019,351.157,389.445Z" transform="translate(-309.481 -341.104)"/>
        <path id="Trazado_117886" data-name="Trazado 117886" d="M354.012,403.134a.862.862,0,0,0,.461-.133l8.434-5.308a.867.867,0,0,0-.923-1.466l-8.434,5.308A.879.879,0,0,0,354.012,403.134Z" transform="translate(-312.435 -350.342)"/>
      </g>
    </g>
  </g>
</svg>
